<svg width="20" height="20" viewBox="0 0 20 20" fill="none" xmlns="http://www.w3.org/2000/svg">
<path d="M12.2028 9.99984L19.6805 2.52179C19.8862 2.31594 19.9997 2.0413 20 1.74846C20 1.45545 19.8865 1.18049 19.6805 0.97496L19.0252 0.319838C18.8192 0.113496 18.5446 0.000488281 18.2514 0.000488281C17.9587 0.000488281 17.6841 0.113496 17.478 0.319838L10.0003 7.7974L2.52228 0.319838C2.31659 0.113496 2.04179 0.000488281 1.74878 0.000488281C1.4561 0.000488281 1.1813 0.113496 0.97561 0.319838L0.32 0.97496C-0.106667 1.40163 -0.106667 2.09561 0.32 2.52179L7.79789 9.99984L0.32 17.4776C0.114146 17.6837 0.000813008 17.9584 0.000813008 18.2512C0.000813008 18.5441 0.114146 18.8187 0.32 19.0247L0.975447 19.6798C1.18114 19.886 1.4561 19.9992 1.74862 19.9992C2.04163 19.9992 2.31642 19.886 2.52211 19.6798L10.0002 12.2021L17.4779 19.6798C17.6839 19.886 17.9585 19.9992 18.2512 19.9992H18.2515C18.5444 19.9992 18.819 19.886 19.025 19.6798L19.6803 19.0247C19.886 18.8189 19.9995 18.5441 19.9995 18.2512C19.9995 17.9584 19.886 17.6837 19.6803 17.4777L12.2028 9.99984Z" fill="white" fill-opacity="0.5"/>
</svg>
