<svg width="148" height="148" viewBox="0 0 148 148" fill="none" xmlns="http://www.w3.org/2000/svg">
<path d="M9.2923 58.1205C0.292305 73.0205 -4.1077 90.3205 5.0923 104.921C20.2923 128.921 55.1923 141.621 80.1923 146.221C90.8923 148.221 102.092 148.821 112.892 145.721C123.792 142.621 134.392 135.421 140.892 124.421C151.292 106.521 148.492 83.5205 142.792 64.4205C138.092 48.6205 131.592 33.4205 121.892 21.3205C102.192 -3.37948 75.3923 -7.67948 49.3923 14.0205C37.7923 23.7205 20.1923 40.1205 9.2923 58.1205Z" fill="#FEF6D8"/>
<g clip-path="url(#clip0_48_18976)">
<path d="M84.335 69.125C83.7549 66.7752 81.9089 64.25 78.0625 64.25C74.962 64.25 73.6766 66.8029 72.8414 69.125H67.0385C67.747 67.6885 69.3557 67.5098 69.9472 67.5C70.8394 67.4951 71.5625 66.7687 71.5625 65.875C71.5625 64.978 70.8345 64.25 69.9375 64.25C67.6462 64.25 64.3784 65.5825 63.6065 69.125H62.625C61.728 69.125 61 69.853 61 70.75C61 71.647 61.728 72.375 62.625 72.375H63.6065C64.3784 75.9175 67.6462 77.25 69.9375 77.25C73.038 77.25 74.3234 74.6971 75.1586 72.375H80.9388C80.5471 73.1956 79.7493 74 78.0625 74C77.1639 74 76.4375 74.728 76.4375 75.625C76.4375 76.5236 77.1639 77.25 78.0625 77.25C81.9089 77.25 83.7565 74.7248 84.335 72.375H85.375C86.2736 72.375 87 71.647 87 70.75C87 69.853 86.2736 69.125 85.375 69.125H84.335ZM69.9375 74C69.515 74 67.7892 73.8846 67.0434 72.375H71.6616C71.1741 73.4638 70.6899 74 69.9375 74ZM76.3368 69.125C76.8242 68.0362 77.3101 67.5 78.0625 67.5C79.7379 67.5 80.5374 68.2962 80.9323 69.125H76.3368ZM93.5 74V52.875C93.5 49.2984 90.5848 48 88.625 48H59.375C55.7984 48 54.5 50.9153 54.5 52.875V74H48V83.75H100V74H93.5ZM54.5 80.5H51.25V77.25H54.5V80.5ZM57.75 52.8945C57.7695 52.1438 58.0669 51.25 59.375 51.25H60.701C60.2102 52.6264 59.1264 53.7102 57.75 54.201V52.8945ZM90.25 80.5H57.75V57.5859C60.9285 56.9375 63.4375 54.4285 64.0859 51.25H83.9141C84.5625 54.4285 87.0715 56.9375 90.25 57.5859V80.5ZM90.25 54.201C88.8736 53.7102 87.7897 52.6264 87.299 51.25H88.6055C89.3563 51.2695 90.25 51.5669 90.25 52.875V54.201ZM96.75 80.5H93.5V77.25H96.75V80.5ZM81.6489 90.7261C82.2843 91.3615 82.2843 92.3885 81.6489 93.0239L75.1489 99.5239C74.832 99.8408 74.416 100 74 100C73.584 100 73.168 99.8408 72.8511 99.5239L66.3511 93.0239C65.7157 92.3885 65.7157 91.3615 66.3511 90.7261C66.9865 90.0907 68.0135 90.0907 68.6489 90.7261L72.375 94.4523V87C72.375 86.1014 73.103 85.375 74 85.375C74.897 85.375 75.625 86.1014 75.625 87V94.4523L79.3511 90.7261C79.9865 90.0907 81.0135 90.0907 81.6489 90.7261Z" fill="black"/>
</g>
<defs>
<clipPath id="clip0_48_18976">
<rect width="52" height="52" fill="white" transform="translate(48 48)"/>
</clipPath>
</defs>
</svg>
