<svg width="153" height="137" viewBox="0 0 153 137" fill="none" xmlns="http://www.w3.org/2000/svg">
<path d="M41.5575 12C24.5575 22.6 5.55752 41.4 1.15752 61.6C-9.14248 108.7 51.6575 137.3 89.8575 136.7C114.058 136.3 139.158 123.3 148.658 101C154.858 86.5 153.858 69.6 148.658 54.7C132.058 7.29998 86.3575 -15.8 41.5575 12Z" fill="#FCD535"/>
<g clip-path="url(#clip0_48_19018)">
<mask id="path-2-outside-1_48_19018" maskUnits="userSpaceOnUse" x="52" y="39.9991" width="54" height="54" fill="black">
<rect fill="white" x="52" y="39.9991" width="54" height="54"/>
<path d="M99.3355 70.4665H99.8087C100.039 70.4665 100.259 70.3752 100.421 70.2127C100.584 70.0502 100.675 69.8297 100.675 69.5999C100.675 69.37 100.584 69.1496 100.421 68.9871C100.259 68.8245 100.039 68.7332 99.8087 68.7332H98.1031L99.6683 65.0819C99.7811 64.8183 99.8268 64.5307 99.8012 64.2451C99.7756 63.9594 99.6795 63.6846 99.5215 63.4452C99.3636 63.2059 99.1487 63.0094 98.8961 62.8735C98.6436 62.7376 98.3613 62.6665 98.0745 62.6665H94.08L93.8963 62.1162C93.7809 61.7715 93.56 61.4719 93.265 61.2596C92.97 61.0473 92.6157 60.9331 92.2522 60.9332H90.2771C89.9882 60.9331 89.7038 61.0052 89.4499 61.143C89.1959 61.2808 88.9805 61.4798 88.8231 61.7221C88.6656 61.9643 88.5713 62.2421 88.5485 62.5301C88.5258 62.8181 88.5754 63.1072 88.6928 63.3711L91.0761 68.7332H89.4087C89.1788 68.7332 88.9584 68.8245 88.7958 68.9871C88.6333 69.1496 88.542 69.37 88.542 69.5999C88.542 69.8297 88.6333 70.0502 88.7958 70.2127C88.9584 70.3752 89.1788 70.4665 89.4087 70.4665H89.9105C87.9749 72.2171 86.4705 74.3916 85.5147 76.8201C84.0472 76.0622 82.4196 75.6667 80.768 75.6665H80.3347C79.5377 74.7771 78.4501 74.2004 77.2667 74.0398V72.5873C78.8532 71.7195 80.1959 70.4666 81.1714 68.944C82.1469 67.4213 82.7237 65.6778 82.8489 63.8738C83.3302 63.734 83.7771 63.4954 84.161 63.1732C84.545 62.8511 84.8575 62.4524 85.0788 62.0027C85.9333 60.2953 85.9333 58.991 85.9333 57.0167V52.153C85.9333 48.8597 83.2467 46.1028 79.6933 45.4693L80.7403 43.9465C80.9216 43.6563 81.0211 43.3225 81.0285 42.9803C81.0358 42.6381 80.9506 42.3004 80.7819 42.0026C80.609 41.6972 80.358 41.4434 80.0546 41.2672C79.7512 41.0909 79.4063 40.9987 79.0555 40.9999H70.4417C67.2356 40.9647 64.1465 42.2024 61.8517 44.4415C59.5569 46.6806 58.2436 49.7384 58.2 52.9443V57.0176C58.2 58.9919 58.2 60.2962 59.0571 62.0079C59.2781 62.4568 59.5904 62.8548 59.9739 63.1762C60.3574 63.4976 60.8038 63.7355 61.2845 63.8747C61.4075 65.6808 61.9833 67.4269 62.9589 68.9519C63.9345 70.4768 65.2784 71.7315 66.8667 72.6003V74.0398C65.6826 74.2 64.5943 74.7767 63.7969 75.6665H63.3636C60.6158 75.67 57.9815 76.7632 56.0386 78.7064C54.0958 80.6496 53.003 83.284 53 86.0319V91.3445C53.0002 91.7835 53.1747 92.2044 53.4851 92.5148C53.7955 92.8252 54.2164 92.9996 54.6553 92.9999H89.478C89.7446 92.9995 90.0072 92.9347 90.2434 92.811C90.4796 92.6873 90.6823 92.5082 90.8343 92.2892C92.0198 92.7494 93.279 92.9902 94.5506 92.9999H94.6173C97.3433 93.0096 99.9638 91.9468 101.913 90.0411C102.885 89.1017 103.659 87.9771 104.189 86.7338C104.719 85.4904 104.995 84.1535 105 82.8018C104.81 78.1045 102.774 73.6718 99.3355 70.4665ZM90.2771 62.6665H92.2522L92.6327 63.8019L93.2047 65.5352C93.2766 65.7536 93.4324 65.9344 93.6376 66.0379C93.8429 66.1415 94.0809 66.1592 94.2993 66.0873C94.5176 66.0153 94.6985 65.8596 94.802 65.6543C94.9055 65.449 94.9233 65.211 94.8513 64.9927L94.6546 64.3999H98.0762L96.2172 68.7332H92.9724L90.2771 62.6665ZM72.0667 78.4555C72.5173 78.4713 72.9599 78.5787 73.3677 78.771C73.7755 78.9634 74.1399 79.2367 74.4387 79.5743L73.3883 80.8665H70.745L69.6946 79.5795C69.9963 79.245 70.3612 78.9734 70.7683 78.7805C71.1754 78.5876 71.6167 78.4771 72.0667 78.4555ZM67.937 81.5893C68.0107 81.6093 68.0868 81.6195 68.1632 81.6197C68.295 81.6203 68.4252 81.5902 68.5434 81.5319C68.6617 81.4735 68.7647 81.3884 68.8444 81.2834L69.4103 81.9767L67.9613 90.6937C66.2531 88.9551 65.4401 84.3089 65.2018 80.1567C66.0137 80.8065 66.9437 81.293 67.9405 81.5893H67.937ZM71.0674 82.5999H73.0659L74.5107 91.2665H69.6227L71.0674 82.5999ZM74.7195 81.9776L75.2855 81.2843C75.3892 81.4197 75.5309 81.5211 75.6925 81.5756C75.8541 81.6301 76.0283 81.6352 76.1929 81.5902C77.182 81.2962 78.1055 80.8152 78.9133 80.1732C78.6802 83.8071 77.9548 88.4507 76.14 90.5333L74.7195 81.9776ZM78.9913 76.7533C78.8657 78.3133 77.4175 79.2112 76.4971 79.6281C76.1351 78.7993 75.5428 78.0918 74.7906 77.5897C75.6615 77.1871 76.4007 76.5462 76.9226 75.7411C77.708 75.8308 78.4385 76.1883 78.9913 76.7533ZM70.4417 42.7332H79.0555C79.0984 42.7311 79.1412 42.741 79.1788 42.7618C79.2165 42.7826 79.2476 42.8135 79.2687 42.8511C79.3423 42.9793 79.286 43.0053 79.2886 43.0019L77.6783 45.3332H76.4C76.1701 45.3332 75.9497 45.4245 75.7872 45.587C75.6246 45.7496 75.5333 45.97 75.5333 46.1999C75.5333 46.4297 75.6246 46.6502 75.7872 46.8127C75.9497 46.9752 76.1701 47.0665 76.4 47.0665H78.1333C81.0505 47.0665 84.2 49.0113 84.2 52.153V54.1593C83.8505 54.0276 83.4758 53.9765 83.1038 54.0098C82.7317 54.0431 82.3721 54.16 82.0515 54.3517C81.8405 54.0419 81.5622 53.7836 81.2375 53.5962C80.9128 53.4088 80.55 53.297 80.1761 53.2693C77.2485 53.0353 75.0861 52.3211 73.7515 51.1503C73.2942 50.7459 72.7035 50.5251 72.0931 50.5306C71.4827 50.536 70.8959 50.7673 70.446 51.1797C68.7049 52.7779 65.9887 53.0405 64.1921 53.2138L63.8827 53.2441C63.5164 53.2789 63.1626 53.3956 62.8476 53.5857C62.5325 53.7758 62.2643 54.0343 62.0627 54.3422C61.7439 54.1549 61.3872 54.0412 61.0187 54.0096C60.6503 53.9779 60.2794 54.0291 59.9333 54.1593V52.946C59.9758 50.1993 61.106 47.5815 63.0759 45.6669C65.0459 43.7524 67.6948 42.6973 70.4417 42.7332ZM63.01 63.7065C62.9877 63.3666 62.861 63.0418 62.647 62.7767C62.4331 62.5116 62.1424 62.319 61.8149 62.2254C61.5519 62.1594 61.3067 62.036 61.097 61.8641C60.8872 61.6923 60.718 61.4762 60.6015 61.2313C59.9333 59.8854 59.9333 58.9269 59.9333 57.0167V56.5999C59.9333 56.37 60.0246 56.1496 60.1872 55.987C60.3497 55.8245 60.5701 55.7332 60.8 55.7332C61.0299 55.7332 61.2503 55.8245 61.4128 55.987C61.5754 56.1496 61.6667 56.37 61.6667 56.5999V57.4665C61.6667 57.6964 61.758 57.9168 61.9205 58.0794C62.083 58.2419 62.3035 58.3332 62.5333 58.3332C62.7632 58.3332 62.9836 58.2419 63.1462 58.0794C63.3087 57.9168 63.4 57.6964 63.4 57.4665V55.6708C63.4016 55.4935 63.4694 55.3231 63.5901 55.1932C63.7109 55.0633 63.8758 54.9833 64.0526 54.9688L64.3585 54.9393C66.3857 54.7426 69.4485 54.4471 71.6169 52.4572C71.7531 52.336 71.929 52.2686 72.1113 52.2678C72.2937 52.267 72.4701 52.3328 72.6075 52.4529C74.2541 53.8959 76.6808 54.7287 80.0365 54.9974C80.2196 55.0056 80.3927 55.0827 80.5213 55.2132C80.6499 55.3437 80.7244 55.518 80.7299 55.7011V57.4665C80.7299 57.6964 80.8212 57.9168 80.9837 58.0794C81.1462 58.2419 81.3667 58.3332 81.5965 58.3332C81.8264 58.3332 82.0468 58.2419 82.2094 58.0794C82.3719 57.9168 82.4632 57.6964 82.4632 57.4665V56.5999C82.4632 56.37 82.5545 56.1496 82.717 55.987C82.8796 55.8245 83.1 55.7332 83.3299 55.7332C83.5597 55.7332 83.7802 55.8245 83.9427 55.987C84.1052 56.1496 84.1965 56.37 84.1965 56.5999V57.0167C84.1965 58.9234 84.1965 59.8854 83.5275 61.2235C83.4102 61.4705 83.2396 61.6884 83.028 61.8615C82.8164 62.0346 82.569 62.1586 82.3037 62.2245C81.9773 62.3205 81.6884 62.5148 81.4764 62.781C81.2644 63.0471 81.1396 63.3721 81.119 63.7117C80.9718 66.0144 79.9531 68.1746 78.2699 69.7528C76.5868 71.3311 74.3656 72.2089 72.0583 72.2078C69.7509 72.2067 67.5306 71.3268 65.849 69.7469C64.1673 68.167 63.1506 66.0059 63.0057 63.7031L63.01 63.7065ZM72.0667 73.9332C73.2464 73.9307 74.4177 73.7336 75.5333 73.3499V74.6569C75.4059 74.9463 74.7282 76.1146 72.0667 76.6987C69.3566 76.1042 68.7066 74.9073 68.6 74.6638V73.356C69.7164 73.7361 70.8874 73.9311 72.0667 73.9332ZM67.2133 75.7411C67.7352 76.5462 68.4744 77.1871 69.3453 77.5897C68.5931 78.0918 68.0008 78.7993 67.6389 79.6281C66.7176 79.2103 65.2703 78.3125 65.1446 76.7533C65.697 76.1878 66.4278 75.8302 67.2133 75.7411ZM54.7333 86.0319C54.7359 83.7433 55.6461 81.5492 57.2644 79.9309C58.8826 78.3127 61.0768 77.4024 63.3653 77.3999H63.3905C63.3905 80.1463 63.6297 87.721 66.1985 91.2665H54.7333V86.0319ZM77.7702 91.2665C80.4811 87.5919 80.7429 80.1169 80.7429 77.3999H80.768C82.2172 77.4051 83.6415 77.7762 84.9089 78.4789C84.4699 79.8396 84.231 81.257 84.2 82.6865C84.1958 84.3899 84.6177 86.0672 85.4274 87.5657C86.2371 89.0643 87.4088 90.3365 88.8358 91.2665H77.7702ZM100.703 88.8C99.0771 90.3894 96.8911 91.2754 94.6173 91.2665H94.561C92.2816 91.2705 90.0937 90.3707 88.4765 88.7644C86.8593 87.1581 85.9448 84.9763 85.9333 82.6969C85.9541 78.166 89.3315 71.6903 93.2671 70.4769L95.9537 70.4691C99.9291 71.6721 103.288 78.2067 103.268 82.7957C103.262 83.9171 103.033 85.026 102.593 86.0572C102.152 87.0885 101.51 88.021 100.703 88.8Z"/>
</mask>
<path d="M99.3355 70.4665H99.8087C100.039 70.4665 100.259 70.3752 100.421 70.2127C100.584 70.0502 100.675 69.8297 100.675 69.5999C100.675 69.37 100.584 69.1496 100.421 68.9871C100.259 68.8245 100.039 68.7332 99.8087 68.7332H98.1031L99.6683 65.0819C99.7811 64.8183 99.8268 64.5307 99.8012 64.2451C99.7756 63.9594 99.6795 63.6846 99.5215 63.4452C99.3636 63.2059 99.1487 63.0094 98.8961 62.8735C98.6436 62.7376 98.3613 62.6665 98.0745 62.6665H94.08L93.8963 62.1162C93.7809 61.7715 93.56 61.4719 93.265 61.2596C92.97 61.0473 92.6157 60.9331 92.2522 60.9332H90.2771C89.9882 60.9331 89.7038 61.0052 89.4499 61.143C89.1959 61.2808 88.9805 61.4798 88.8231 61.7221C88.6656 61.9643 88.5713 62.2421 88.5485 62.5301C88.5258 62.8181 88.5754 63.1072 88.6928 63.3711L91.0761 68.7332H89.4087C89.1788 68.7332 88.9584 68.8245 88.7958 68.9871C88.6333 69.1496 88.542 69.37 88.542 69.5999C88.542 69.8297 88.6333 70.0502 88.7958 70.2127C88.9584 70.3752 89.1788 70.4665 89.4087 70.4665H89.9105C87.9749 72.2171 86.4705 74.3916 85.5147 76.8201C84.0472 76.0622 82.4196 75.6667 80.768 75.6665H80.3347C79.5377 74.7771 78.4501 74.2004 77.2667 74.0398V72.5873C78.8532 71.7195 80.1959 70.4666 81.1714 68.944C82.1469 67.4213 82.7237 65.6778 82.8489 63.8738C83.3302 63.734 83.7771 63.4954 84.161 63.1732C84.545 62.8511 84.8575 62.4524 85.0788 62.0027C85.9333 60.2953 85.9333 58.991 85.9333 57.0167V52.153C85.9333 48.8597 83.2467 46.1028 79.6933 45.4693L80.7403 43.9465C80.9216 43.6563 81.0211 43.3225 81.0285 42.9803C81.0358 42.6381 80.9506 42.3004 80.7819 42.0026C80.609 41.6972 80.358 41.4434 80.0546 41.2672C79.7512 41.0909 79.4063 40.9987 79.0555 40.9999H70.4417C67.2356 40.9647 64.1465 42.2024 61.8517 44.4415C59.5569 46.6806 58.2436 49.7384 58.2 52.9443V57.0176C58.2 58.9919 58.2 60.2962 59.0571 62.0079C59.2781 62.4568 59.5904 62.8548 59.9739 63.1762C60.3574 63.4976 60.8038 63.7355 61.2845 63.8747C61.4075 65.6808 61.9833 67.4269 62.9589 68.9519C63.9345 70.4768 65.2784 71.7315 66.8667 72.6003V74.0398C65.6826 74.2 64.5943 74.7767 63.7969 75.6665H63.3636C60.6158 75.67 57.9815 76.7632 56.0386 78.7064C54.0958 80.6496 53.003 83.284 53 86.0319V91.3445C53.0002 91.7835 53.1747 92.2044 53.4851 92.5148C53.7955 92.8252 54.2164 92.9996 54.6553 92.9999H89.478C89.7446 92.9995 90.0072 92.9347 90.2434 92.811C90.4796 92.6873 90.6823 92.5082 90.8343 92.2892C92.0198 92.7494 93.279 92.9902 94.5506 92.9999H94.6173C97.3433 93.0096 99.9638 91.9468 101.913 90.0411C102.885 89.1017 103.659 87.9771 104.189 86.7338C104.719 85.4904 104.995 84.1535 105 82.8018C104.81 78.1045 102.774 73.6718 99.3355 70.4665ZM90.2771 62.6665H92.2522L92.6327 63.8019L93.2047 65.5352C93.2766 65.7536 93.4324 65.9344 93.6376 66.0379C93.8429 66.1415 94.0809 66.1592 94.2993 66.0873C94.5176 66.0153 94.6985 65.8596 94.802 65.6543C94.9055 65.449 94.9233 65.211 94.8513 64.9927L94.6546 64.3999H98.0762L96.2172 68.7332H92.9724L90.2771 62.6665ZM72.0667 78.4555C72.5173 78.4713 72.9599 78.5787 73.3677 78.771C73.7755 78.9634 74.1399 79.2367 74.4387 79.5743L73.3883 80.8665H70.745L69.6946 79.5795C69.9963 79.245 70.3612 78.9734 70.7683 78.7805C71.1754 78.5876 71.6167 78.4771 72.0667 78.4555ZM67.937 81.5893C68.0107 81.6093 68.0868 81.6195 68.1632 81.6197C68.295 81.6203 68.4252 81.5902 68.5434 81.5319C68.6617 81.4735 68.7647 81.3884 68.8444 81.2834L69.4103 81.9767L67.9613 90.6937C66.2531 88.9551 65.4401 84.3089 65.2018 80.1567C66.0137 80.8065 66.9437 81.293 67.9405 81.5893H67.937ZM71.0674 82.5999H73.0659L74.5107 91.2665H69.6227L71.0674 82.5999ZM74.7195 81.9776L75.2855 81.2843C75.3892 81.4197 75.5309 81.5211 75.6925 81.5756C75.8541 81.6301 76.0283 81.6352 76.1929 81.5902C77.182 81.2962 78.1055 80.8152 78.9133 80.1732C78.6802 83.8071 77.9548 88.4507 76.14 90.5333L74.7195 81.9776ZM78.9913 76.7533C78.8657 78.3133 77.4175 79.2112 76.4971 79.6281C76.1351 78.7993 75.5428 78.0918 74.7906 77.5897C75.6615 77.1871 76.4007 76.5462 76.9226 75.7411C77.708 75.8308 78.4385 76.1883 78.9913 76.7533ZM70.4417 42.7332H79.0555C79.0984 42.7311 79.1412 42.741 79.1788 42.7618C79.2165 42.7826 79.2476 42.8135 79.2687 42.8511C79.3423 42.9793 79.286 43.0053 79.2886 43.0019L77.6783 45.3332H76.4C76.1701 45.3332 75.9497 45.4245 75.7872 45.587C75.6246 45.7496 75.5333 45.97 75.5333 46.1999C75.5333 46.4297 75.6246 46.6502 75.7872 46.8127C75.9497 46.9752 76.1701 47.0665 76.4 47.0665H78.1333C81.0505 47.0665 84.2 49.0113 84.2 52.153V54.1593C83.8505 54.0276 83.4758 53.9765 83.1038 54.0098C82.7317 54.0431 82.3721 54.16 82.0515 54.3517C81.8405 54.0419 81.5622 53.7836 81.2375 53.5962C80.9128 53.4088 80.55 53.297 80.1761 53.2693C77.2485 53.0353 75.0861 52.3211 73.7515 51.1503C73.2942 50.7459 72.7035 50.5251 72.0931 50.5306C71.4827 50.536 70.8959 50.7673 70.446 51.1797C68.7049 52.7779 65.9887 53.0405 64.1921 53.2138L63.8827 53.2441C63.5164 53.2789 63.1626 53.3956 62.8476 53.5857C62.5325 53.7758 62.2643 54.0343 62.0627 54.3422C61.7439 54.1549 61.3872 54.0412 61.0187 54.0096C60.6503 53.9779 60.2794 54.0291 59.9333 54.1593V52.946C59.9758 50.1993 61.106 47.5815 63.0759 45.6669C65.0459 43.7524 67.6948 42.6973 70.4417 42.7332ZM63.01 63.7065C62.9877 63.3666 62.861 63.0418 62.647 62.7767C62.4331 62.5116 62.1424 62.319 61.8149 62.2254C61.5519 62.1594 61.3067 62.036 61.097 61.8641C60.8872 61.6923 60.718 61.4762 60.6015 61.2313C59.9333 59.8854 59.9333 58.9269 59.9333 57.0167V56.5999C59.9333 56.37 60.0246 56.1496 60.1872 55.987C60.3497 55.8245 60.5701 55.7332 60.8 55.7332C61.0299 55.7332 61.2503 55.8245 61.4128 55.987C61.5754 56.1496 61.6667 56.37 61.6667 56.5999V57.4665C61.6667 57.6964 61.758 57.9168 61.9205 58.0794C62.083 58.2419 62.3035 58.3332 62.5333 58.3332C62.7632 58.3332 62.9836 58.2419 63.1462 58.0794C63.3087 57.9168 63.4 57.6964 63.4 57.4665V55.6708C63.4016 55.4935 63.4694 55.3231 63.5901 55.1932C63.7109 55.0633 63.8758 54.9833 64.0526 54.9688L64.3585 54.9393C66.3857 54.7426 69.4485 54.4471 71.6169 52.4572C71.7531 52.336 71.929 52.2686 72.1113 52.2678C72.2937 52.267 72.4701 52.3328 72.6075 52.4529C74.2541 53.8959 76.6808 54.7287 80.0365 54.9974C80.2196 55.0056 80.3927 55.0827 80.5213 55.2132C80.6499 55.3437 80.7244 55.518 80.7299 55.7011V57.4665C80.7299 57.6964 80.8212 57.9168 80.9837 58.0794C81.1462 58.2419 81.3667 58.3332 81.5965 58.3332C81.8264 58.3332 82.0468 58.2419 82.2094 58.0794C82.3719 57.9168 82.4632 57.6964 82.4632 57.4665V56.5999C82.4632 56.37 82.5545 56.1496 82.717 55.987C82.8796 55.8245 83.1 55.7332 83.3299 55.7332C83.5597 55.7332 83.7802 55.8245 83.9427 55.987C84.1052 56.1496 84.1965 56.37 84.1965 56.5999V57.0167C84.1965 58.9234 84.1965 59.8854 83.5275 61.2235C83.4102 61.4705 83.2396 61.6884 83.028 61.8615C82.8164 62.0346 82.569 62.1586 82.3037 62.2245C81.9773 62.3205 81.6884 62.5148 81.4764 62.781C81.2644 63.0471 81.1396 63.3721 81.119 63.7117C80.9718 66.0144 79.9531 68.1746 78.2699 69.7528C76.5868 71.3311 74.3656 72.2089 72.0583 72.2078C69.7509 72.2067 67.5306 71.3268 65.849 69.7469C64.1673 68.167 63.1506 66.0059 63.0057 63.7031L63.01 63.7065ZM72.0667 73.9332C73.2464 73.9307 74.4177 73.7336 75.5333 73.3499V74.6569C75.4059 74.9463 74.7282 76.1146 72.0667 76.6987C69.3566 76.1042 68.7066 74.9073 68.6 74.6638V73.356C69.7164 73.7361 70.8874 73.9311 72.0667 73.9332ZM67.2133 75.7411C67.7352 76.5462 68.4744 77.1871 69.3453 77.5897C68.5931 78.0918 68.0008 78.7993 67.6389 79.6281C66.7176 79.2103 65.2703 78.3125 65.1446 76.7533C65.697 76.1878 66.4278 75.8302 67.2133 75.7411ZM54.7333 86.0319C54.7359 83.7433 55.6461 81.5492 57.2644 79.9309C58.8826 78.3127 61.0768 77.4024 63.3653 77.3999H63.3905C63.3905 80.1463 63.6297 87.721 66.1985 91.2665H54.7333V86.0319ZM77.7702 91.2665C80.4811 87.5919 80.7429 80.1169 80.7429 77.3999H80.768C82.2172 77.4051 83.6415 77.7762 84.9089 78.4789C84.4699 79.8396 84.231 81.257 84.2 82.6865C84.1958 84.3899 84.6177 86.0672 85.4274 87.5657C86.2371 89.0643 87.4088 90.3365 88.8358 91.2665H77.7702ZM100.703 88.8C99.0771 90.3894 96.8911 91.2754 94.6173 91.2665H94.561C92.2816 91.2705 90.0937 90.3707 88.4765 88.7644C86.8593 87.1581 85.9448 84.9763 85.9333 82.6969C85.9541 78.166 89.3315 71.6903 93.2671 70.4769L95.9537 70.4691C99.9291 71.6721 103.288 78.2067 103.268 82.7957C103.262 83.9171 103.033 85.026 102.593 86.0572C102.152 87.0885 101.51 88.021 100.703 88.8Z" fill="black"/>
<path d="M99.3355 70.4665H99.8087C100.039 70.4665 100.259 70.3752 100.421 70.2127C100.584 70.0502 100.675 69.8297 100.675 69.5999C100.675 69.37 100.584 69.1496 100.421 68.9871C100.259 68.8245 100.039 68.7332 99.8087 68.7332H98.1031L99.6683 65.0819C99.7811 64.8183 99.8268 64.5307 99.8012 64.2451C99.7756 63.9594 99.6795 63.6846 99.5215 63.4452C99.3636 63.2059 99.1487 63.0094 98.8961 62.8735C98.6436 62.7376 98.3613 62.6665 98.0745 62.6665H94.08L93.8963 62.1162C93.7809 61.7715 93.56 61.4719 93.265 61.2596C92.97 61.0473 92.6157 60.9331 92.2522 60.9332H90.2771C89.9882 60.9331 89.7038 61.0052 89.4499 61.143C89.1959 61.2808 88.9805 61.4798 88.8231 61.7221C88.6656 61.9643 88.5713 62.2421 88.5485 62.5301C88.5258 62.8181 88.5754 63.1072 88.6928 63.3711L91.0761 68.7332H89.4087C89.1788 68.7332 88.9584 68.8245 88.7958 68.9871C88.6333 69.1496 88.542 69.37 88.542 69.5999C88.542 69.8297 88.6333 70.0502 88.7958 70.2127C88.9584 70.3752 89.1788 70.4665 89.4087 70.4665H89.9105C87.9749 72.2171 86.4705 74.3916 85.5147 76.8201C84.0472 76.0622 82.4196 75.6667 80.768 75.6665H80.3347C79.5377 74.7771 78.4501 74.2004 77.2667 74.0398V72.5873C78.8532 71.7195 80.1959 70.4666 81.1714 68.944C82.1469 67.4213 82.7237 65.6778 82.8489 63.8738C83.3302 63.734 83.7771 63.4954 84.161 63.1732C84.545 62.8511 84.8575 62.4524 85.0788 62.0027C85.9333 60.2953 85.9333 58.991 85.9333 57.0167V52.153C85.9333 48.8597 83.2467 46.1028 79.6933 45.4693L80.7403 43.9465C80.9216 43.6563 81.0211 43.3225 81.0285 42.9803C81.0358 42.6381 80.9506 42.3004 80.7819 42.0026C80.609 41.6972 80.358 41.4434 80.0546 41.2672C79.7512 41.0909 79.4063 40.9987 79.0555 40.9999H70.4417C67.2356 40.9647 64.1465 42.2024 61.8517 44.4415C59.5569 46.6806 58.2436 49.7384 58.2 52.9443V57.0176C58.2 58.9919 58.2 60.2962 59.0571 62.0079C59.2781 62.4568 59.5904 62.8548 59.9739 63.1762C60.3574 63.4976 60.8038 63.7355 61.2845 63.8747C61.4075 65.6808 61.9833 67.4269 62.9589 68.9519C63.9345 70.4768 65.2784 71.7315 66.8667 72.6003V74.0398C65.6826 74.2 64.5943 74.7767 63.7969 75.6665H63.3636C60.6158 75.67 57.9815 76.7632 56.0386 78.7064C54.0958 80.6496 53.003 83.284 53 86.0319V91.3445C53.0002 91.7835 53.1747 92.2044 53.4851 92.5148C53.7955 92.8252 54.2164 92.9996 54.6553 92.9999H89.478C89.7446 92.9995 90.0072 92.9347 90.2434 92.811C90.4796 92.6873 90.6823 92.5082 90.8343 92.2892C92.0198 92.7494 93.279 92.9902 94.5506 92.9999H94.6173C97.3433 93.0096 99.9638 91.9468 101.913 90.0411C102.885 89.1017 103.659 87.9771 104.189 86.7338C104.719 85.4904 104.995 84.1535 105 82.8018C104.81 78.1045 102.774 73.6718 99.3355 70.4665ZM90.2771 62.6665H92.2522L92.6327 63.8019L93.2047 65.5352C93.2766 65.7536 93.4324 65.9344 93.6376 66.0379C93.8429 66.1415 94.0809 66.1592 94.2993 66.0873C94.5176 66.0153 94.6985 65.8596 94.802 65.6543C94.9055 65.449 94.9233 65.211 94.8513 64.9927L94.6546 64.3999H98.0762L96.2172 68.7332H92.9724L90.2771 62.6665ZM72.0667 78.4555C72.5173 78.4713 72.9599 78.5787 73.3677 78.771C73.7755 78.9634 74.1399 79.2367 74.4387 79.5743L73.3883 80.8665H70.745L69.6946 79.5795C69.9963 79.245 70.3612 78.9734 70.7683 78.7805C71.1754 78.5876 71.6167 78.4771 72.0667 78.4555ZM67.937 81.5893C68.0107 81.6093 68.0868 81.6195 68.1632 81.6197C68.295 81.6203 68.4252 81.5902 68.5434 81.5319C68.6617 81.4735 68.7647 81.3884 68.8444 81.2834L69.4103 81.9767L67.9613 90.6937C66.2531 88.9551 65.4401 84.3089 65.2018 80.1567C66.0137 80.8065 66.9437 81.293 67.9405 81.5893H67.937ZM71.0674 82.5999H73.0659L74.5107 91.2665H69.6227L71.0674 82.5999ZM74.7195 81.9776L75.2855 81.2843C75.3892 81.4197 75.5309 81.5211 75.6925 81.5756C75.8541 81.6301 76.0283 81.6352 76.1929 81.5902C77.182 81.2962 78.1055 80.8152 78.9133 80.1732C78.6802 83.8071 77.9548 88.4507 76.14 90.5333L74.7195 81.9776ZM78.9913 76.7533C78.8657 78.3133 77.4175 79.2112 76.4971 79.6281C76.1351 78.7993 75.5428 78.0918 74.7906 77.5897C75.6615 77.1871 76.4007 76.5462 76.9226 75.7411C77.708 75.8308 78.4385 76.1883 78.9913 76.7533ZM70.4417 42.7332H79.0555C79.0984 42.7311 79.1412 42.741 79.1788 42.7618C79.2165 42.7826 79.2476 42.8135 79.2687 42.8511C79.3423 42.9793 79.286 43.0053 79.2886 43.0019L77.6783 45.3332H76.4C76.1701 45.3332 75.9497 45.4245 75.7872 45.587C75.6246 45.7496 75.5333 45.97 75.5333 46.1999C75.5333 46.4297 75.6246 46.6502 75.7872 46.8127C75.9497 46.9752 76.1701 47.0665 76.4 47.0665H78.1333C81.0505 47.0665 84.2 49.0113 84.2 52.153V54.1593C83.8505 54.0276 83.4758 53.9765 83.1038 54.0098C82.7317 54.0431 82.3721 54.16 82.0515 54.3517C81.8405 54.0419 81.5622 53.7836 81.2375 53.5962C80.9128 53.4088 80.55 53.297 80.1761 53.2693C77.2485 53.0353 75.0861 52.3211 73.7515 51.1503C73.2942 50.7459 72.7035 50.5251 72.0931 50.5306C71.4827 50.536 70.8959 50.7673 70.446 51.1797C68.7049 52.7779 65.9887 53.0405 64.1921 53.2138L63.8827 53.2441C63.5164 53.2789 63.1626 53.3956 62.8476 53.5857C62.5325 53.7758 62.2643 54.0343 62.0627 54.3422C61.7439 54.1549 61.3872 54.0412 61.0187 54.0096C60.6503 53.9779 60.2794 54.0291 59.9333 54.1593V52.946C59.9758 50.1993 61.106 47.5815 63.0759 45.6669C65.0459 43.7524 67.6948 42.6973 70.4417 42.7332ZM63.01 63.7065C62.9877 63.3666 62.861 63.0418 62.647 62.7767C62.4331 62.5116 62.1424 62.319 61.8149 62.2254C61.5519 62.1594 61.3067 62.036 61.097 61.8641C60.8872 61.6923 60.718 61.4762 60.6015 61.2313C59.9333 59.8854 59.9333 58.9269 59.9333 57.0167V56.5999C59.9333 56.37 60.0246 56.1496 60.1872 55.987C60.3497 55.8245 60.5701 55.7332 60.8 55.7332C61.0299 55.7332 61.2503 55.8245 61.4128 55.987C61.5754 56.1496 61.6667 56.37 61.6667 56.5999V57.4665C61.6667 57.6964 61.758 57.9168 61.9205 58.0794C62.083 58.2419 62.3035 58.3332 62.5333 58.3332C62.7632 58.3332 62.9836 58.2419 63.1462 58.0794C63.3087 57.9168 63.4 57.6964 63.4 57.4665V55.6708C63.4016 55.4935 63.4694 55.3231 63.5901 55.1932C63.7109 55.0633 63.8758 54.9833 64.0526 54.9688L64.3585 54.9393C66.3857 54.7426 69.4485 54.4471 71.6169 52.4572C71.7531 52.336 71.929 52.2686 72.1113 52.2678C72.2937 52.267 72.4701 52.3328 72.6075 52.4529C74.2541 53.8959 76.6808 54.7287 80.0365 54.9974C80.2196 55.0056 80.3927 55.0827 80.5213 55.2132C80.6499 55.3437 80.7244 55.518 80.7299 55.7011V57.4665C80.7299 57.6964 80.8212 57.9168 80.9837 58.0794C81.1462 58.2419 81.3667 58.3332 81.5965 58.3332C81.8264 58.3332 82.0468 58.2419 82.2094 58.0794C82.3719 57.9168 82.4632 57.6964 82.4632 57.4665V56.5999C82.4632 56.37 82.5545 56.1496 82.717 55.987C82.8796 55.8245 83.1 55.7332 83.3299 55.7332C83.5597 55.7332 83.7802 55.8245 83.9427 55.987C84.1052 56.1496 84.1965 56.37 84.1965 56.5999V57.0167C84.1965 58.9234 84.1965 59.8854 83.5275 61.2235C83.4102 61.4705 83.2396 61.6884 83.028 61.8615C82.8164 62.0346 82.569 62.1586 82.3037 62.2245C81.9773 62.3205 81.6884 62.5148 81.4764 62.781C81.2644 63.0471 81.1396 63.3721 81.119 63.7117C80.9718 66.0144 79.9531 68.1746 78.2699 69.7528C76.5868 71.3311 74.3656 72.2089 72.0583 72.2078C69.7509 72.2067 67.5306 71.3268 65.849 69.7469C64.1673 68.167 63.1506 66.0059 63.0057 63.7031L63.01 63.7065ZM72.0667 73.9332C73.2464 73.9307 74.4177 73.7336 75.5333 73.3499V74.6569C75.4059 74.9463 74.7282 76.1146 72.0667 76.6987C69.3566 76.1042 68.7066 74.9073 68.6 74.6638V73.356C69.7164 73.7361 70.8874 73.9311 72.0667 73.9332ZM67.2133 75.7411C67.7352 76.5462 68.4744 77.1871 69.3453 77.5897C68.5931 78.0918 68.0008 78.7993 67.6389 79.6281C66.7176 79.2103 65.2703 78.3125 65.1446 76.7533C65.697 76.1878 66.4278 75.8302 67.2133 75.7411ZM54.7333 86.0319C54.7359 83.7433 55.6461 81.5492 57.2644 79.9309C58.8826 78.3127 61.0768 77.4024 63.3653 77.3999H63.3905C63.3905 80.1463 63.6297 87.721 66.1985 91.2665H54.7333V86.0319ZM77.7702 91.2665C80.4811 87.5919 80.7429 80.1169 80.7429 77.3999H80.768C82.2172 77.4051 83.6415 77.7762 84.9089 78.4789C84.4699 79.8396 84.231 81.257 84.2 82.6865C84.1958 84.3899 84.6177 86.0672 85.4274 87.5657C86.2371 89.0643 87.4088 90.3365 88.8358 91.2665H77.7702ZM100.703 88.8C99.0771 90.3894 96.8911 91.2754 94.6173 91.2665H94.561C92.2816 91.2705 90.0937 90.3707 88.4765 88.7644C86.8593 87.1581 85.9448 84.9763 85.9333 82.6969C85.9541 78.166 89.3315 71.6903 93.2671 70.4769L95.9537 70.4691C99.9291 71.6721 103.288 78.2067 103.268 82.7957C103.262 83.9171 103.033 85.026 102.593 86.0572C102.152 87.0885 101.51 88.021 100.703 88.8Z" stroke="black" mask="url(#path-2-outside-1_48_19018)"/>
<path d="M94.6062 81.7334L94.6062 81.9834C94.7144 81.9834 94.8208 82.0119 94.9145 82.066C95.0083 82.1201 95.0861 82.198 95.1402 82.2917C95.1944 82.3855 95.2229 82.4918 95.2229 82.6001C95.2229 82.7083 95.1944 82.8147 95.1403 82.9084C95.0861 83.0022 95.0083 83.08 94.9145 83.1341C94.8208 83.1883 94.7145 83.2167 94.6062 83.2167C94.498 83.2167 94.3916 83.1883 94.2979 83.1341C94.2041 83.08 94.1263 83.0022 94.0721 82.9084L94.0723 82.9084L94.0682 82.9019C93.9155 82.655 93.6726 82.4773 93.391 82.4065C93.1095 82.3356 92.8114 82.3772 92.56 82.5225C92.3086 82.6677 92.1237 82.9051 92.0444 83.1844C91.9651 83.4637 91.9977 83.7629 92.1353 84.0186L92.1351 84.0187L92.1406 84.0279C92.4541 84.5549 92.9288 84.965 93.4921 85.1992V85.2001C93.4921 85.4962 93.6098 85.7803 93.8192 85.9897C94.0286 86.1991 94.3126 86.3167 94.6088 86.3167C94.9049 86.3167 95.189 86.1991 95.3984 85.9897C95.6051 85.783 95.7224 85.5036 95.7254 85.2117C96.2856 84.9738 96.7563 84.5616 97.0661 84.034C97.4062 83.4548 97.5303 82.774 97.4165 82.1121C97.3027 81.4502 96.9583 80.8499 96.4443 80.4176C95.9303 79.9853 95.2799 79.7488 94.6083 79.7501L94.6088 80.0001L94.609 79.7501C94.5008 79.75 94.3945 79.7214 94.3008 79.6672C94.2072 79.613 94.1294 79.5351 94.0753 79.4414C94.0213 79.3476 93.9929 79.2413 93.993 79.133C93.993 79.0248 94.0216 78.9185 94.0757 78.8248C94.1299 78.7311 94.2077 78.6533 94.3015 78.5993C94.3952 78.5452 94.5016 78.5167 94.6098 78.5167C94.718 78.5168 94.8243 78.5453 94.918 78.5994C95.0117 78.6535 95.0896 78.7314 95.1437 78.8251L95.1435 78.8252L95.1492 78.8342C95.3037 79.0773 95.5462 79.2512 95.8259 79.3197C96.1056 79.3883 96.401 79.346 96.6504 79.2019C96.8998 79.0578 97.0838 78.8229 97.164 78.5463C97.2443 78.2697 97.2145 77.9727 97.081 77.7175L97.0814 77.7174L97.0744 77.7056C96.7608 77.1785 96.2862 76.7685 95.7228 76.5343V76.5334C95.7228 76.2373 95.6052 75.9532 95.3958 75.7438C95.1864 75.5344 94.9023 75.4167 94.6062 75.4167C94.31 75.4167 94.026 75.5344 93.8166 75.7438C93.6099 75.9505 93.4926 76.2299 93.4896 76.5218C92.9294 76.7597 92.4586 77.1719 92.1488 77.6995C91.8088 78.2787 91.6846 78.9595 91.7985 79.6214C91.9123 80.2833 92.2567 80.8836 92.7706 81.3159C93.2846 81.7482 93.935 81.9847 94.6067 81.9834L94.6062 81.7334ZM94.6062 81.7334C93.9936 81.7346 93.4004 81.5189 92.9316 81.1246C92.4628 80.7303 92.1486 80.1828 92.0448 79.579C91.941 78.9753 92.0542 78.3543 92.3644 77.8261C92.6746 77.2978 93.1617 76.8964 93.7395 76.6929L95.4754 85.2001C95.4754 85.4299 95.3841 85.6504 95.2216 85.8129C95.0591 85.9754 94.8386 86.0667 94.6088 86.0667C94.3789 86.0667 94.1585 85.9754 93.996 85.8129C93.8334 85.6504 93.7421 85.4299 93.7421 85.2001V85.0267C93.161 84.8274 92.6695 84.4281 92.3554 83.9001C92.2487 83.7017 92.2234 83.4695 92.2849 83.2527C92.3464 83.0359 92.49 82.8517 92.6851 82.7389C92.8802 82.6262 93.1115 82.5939 93.3301 82.6489C93.5486 82.7039 93.7371 82.8418 93.8556 83.0334C93.9317 83.1652 94.0411 83.2746 94.1729 83.3506C94.3046 83.4267 94.4541 83.4667 94.6062 83.4667C94.7583 83.4667 94.9078 83.4267 95.0395 83.3506C95.1713 83.2746 95.2807 83.1652 95.3568 83.0334C95.4328 82.9017 95.4729 82.7522 95.4729 82.6001C95.4729 82.4479 95.4328 82.2985 95.3567 82.1667C95.2807 82.035 95.1713 81.9256 95.0395 81.8495C94.9078 81.7735 94.7583 81.7334 94.6062 81.7334Z" fill="black" stroke="black" stroke-width="0.5"/>
</g>
<defs>
<clipPath id="clip0_48_19018">
<rect width="52" height="52" fill="white" transform="translate(53 41)"/>
</clipPath>
</defs>
</svg>
