<svg width="148" height="148" viewBox="0 0 148 148" fill="none" xmlns="http://www.w3.org/2000/svg">
<path d="M9.2923 58.1205C0.292305 73.0205 -4.1077 90.3205 5.0923 104.921C20.2923 128.921 55.1923 141.621 80.1923 146.221C90.8923 148.221 102.092 148.821 112.892 145.721C123.792 142.621 134.392 135.421 140.892 124.421C151.292 106.521 148.492 83.5205 142.792 64.4205C138.092 48.6205 131.592 33.4205 121.892 21.3205C102.192 -3.37948 75.3923 -7.67948 49.3923 14.0205C37.7923 23.7205 20.1923 40.1205 9.2923 58.1205Z" fill="#FEF6D8"/>
<g clip-path="url(#clip0_48_19028)">
<path d="M92.6727 71.5815C93.0959 71.5815 93.5017 71.4142 93.8009 71.1166C94.1001 70.8189 94.2682 70.4152 94.2682 69.9943V66.8198H97.4591C97.8822 66.8198 98.288 66.6526 98.5872 66.355C98.8865 66.0573 99.0545 65.6536 99.0545 65.2326V60.471C99.0545 60.1689 98.9678 59.873 98.8046 59.6182C98.6414 59.3634 98.4084 59.1602 98.1332 59.0326L74.2014 47.9221C73.9903 47.8241 73.7602 47.7733 73.5273 47.7733C73.2943 47.7733 73.0643 47.8241 72.8532 47.9221L48.9214 59.0326C48.6461 59.1602 48.4132 59.3634 48.25 59.6182C48.0868 59.873 48 60.1689 48 60.471V65.2326C48 65.6536 48.1681 66.0573 48.4673 66.355C48.7665 66.6526 49.1723 66.8198 49.5955 66.8198H52.7864V69.9943C52.7864 70.4152 52.9545 70.8189 53.2537 71.1166C53.5529 71.4142 53.9587 71.5815 54.3818 71.5815H55.9773V87.4536H54.3818C53.9587 87.4536 53.5529 87.6208 53.2537 87.9184C52.9545 88.2161 52.7864 88.6198 52.7864 89.0408V92.2152H49.5955C49.1723 92.2152 48.7665 92.3824 48.4673 92.6801C48.1681 92.9777 48 93.3814 48 93.8024V98.564C48 98.985 48.1681 99.3887 48.4673 99.6863C48.7665 99.984 49.1723 100.151 49.5955 100.151H97.4591C97.8822 100.151 98.288 99.984 98.5872 99.6863C98.8865 99.3887 99.0545 98.985 99.0545 98.564V93.8024C99.0545 93.3814 98.8865 92.9777 98.5872 92.6801C98.288 92.3824 97.8822 92.2152 97.4591 92.2152H94.2682V89.0408C94.2682 88.6198 94.1001 88.2161 93.8009 87.9184C93.5017 87.6208 93.0959 87.4536 92.6727 87.4536H91.0773V71.5815H92.6727ZM51.1909 63.6454V61.4809L73.5273 51.1124L95.8636 61.4809V63.6454H51.1909ZM55.9773 90.628H91.0773V92.2152H55.9773V90.628ZM59.1682 87.4536V71.5815H62.3591V87.4536H59.1682ZM65.55 87.4536V71.5815H68.7409V87.4536H65.55ZM71.9318 87.4536V71.5815H75.1227V87.4536H71.9318ZM78.3136 87.4536V71.5815H81.5045V87.4536H78.3136ZM84.6955 87.4536V71.5815H87.8864V87.4536H84.6955ZM95.8636 95.3896V96.9768H51.1909V95.3896H95.8636ZM55.9773 68.407V66.8198H91.0773V68.407H55.9773Z" fill="black"/>
</g>
<defs>
<clipPath id="clip0_48_19028">
<rect width="51.0545" height="52" fill="white" transform="translate(48 48)"/>
</clipPath>
</defs>
</svg>
