<svg width="153" height="137" viewBox="0 0 153 137" fill="none" xmlns="http://www.w3.org/2000/svg">
<path d="M41.5575 11.9973C24.5575 22.5973 5.55752 41.3973 1.15752 61.5973C-9.14248 108.697 51.6575 137.297 89.8575 136.697C114.058 136.297 139.158 123.297 148.658 100.997C154.858 86.4973 153.858 69.5973 148.658 54.6973C132.058 7.29729 86.3575 -15.8027 41.5575 11.9973Z" fill="#FCD535"/>
<g clip-path="url(#clip0_104_291)">
<path d="M98.6326 42H55.3674C52.9592 42 51 43.9592 51 46.3674V85.6717C51 88.0798 52.9592 90.0391 55.3674 90.0391H58.0838V92.375C58.0838 93.2725 58.8113 94 59.7088 94C60.6063 94 61.3338 93.2725 61.3338 92.375V90.0391H92.6662V92.375C92.6662 93.2725 93.3937 94 94.2912 94C95.1887 94 95.9162 93.2725 95.9162 92.375V90.0391H98.6326C101.041 90.0391 103 88.0798 103 85.6717V46.3674C103 43.9592 101.041 42 98.6326 42V42ZM61.1565 54.9492H60.4199V51.4198H93.5802V80.6192H60.4199V77.0898H61.1565C62.054 77.0898 62.7815 76.3624 62.7815 75.4648C62.7815 74.5673 62.054 73.8398 61.1565 73.8398H60.4199V58.1992H61.1565C62.054 58.1992 62.7815 57.4717 62.7815 56.5742C62.7815 55.6767 62.054 54.9492 61.1565 54.9492ZM57.1699 73.8398H54.25V58.1992H57.1699V73.8398ZM99.75 85.6717C99.75 86.2774 99.2383 86.7891 98.6326 86.7891H55.3674C54.7617 86.7891 54.25 86.2774 54.25 85.6717V77.0898H57.1699V82.2442C57.1699 83.1418 57.8974 83.8692 58.7949 83.8692H95.2052C96.1027 83.8692 96.8302 83.1418 96.8302 82.2442V49.7948C96.8302 48.8973 96.1027 48.1698 95.2052 48.1698H58.7949C57.8974 48.1698 57.1699 48.8973 57.1699 49.7948V54.9492H54.25V46.3674C54.25 45.7617 54.7617 45.25 55.3674 45.25H98.6326C99.2383 45.25 99.75 45.7617 99.75 46.3674V85.6717ZM68.849 74.1705C69.1663 74.4879 69.5821 74.6466 69.998 74.6466C70.4139 74.6466 70.8297 74.4878 71.147 74.1705L72.6511 72.6664C73.9016 73.4873 75.3954 73.9668 76.9999 73.9668C78.6044 73.9668 80.0982 73.4873 81.3487 72.6664L82.8529 74.1705C83.1702 74.4879 83.5861 74.6466 84.0019 74.6466C84.4177 74.6466 84.8336 74.4878 85.1509 74.1705C85.7856 73.536 85.7855 72.507 85.1509 71.8725L83.6467 70.3683C84.4676 69.1178 84.9471 67.624 84.9471 66.0195C84.9471 64.415 84.4676 62.9213 83.6467 61.6707L85.1509 60.1666C85.7855 59.532 85.7856 58.5031 85.1509 57.8685C84.5164 57.2339 83.4875 57.2339 82.8528 57.8685L81.3486 59.3727C80.0981 58.5517 78.6043 58.0723 76.9998 58.0723C75.3954 58.0723 73.9015 58.5517 72.651 59.3727L71.1469 57.8685C70.5123 57.2338 69.4834 57.234 68.8488 57.8685C68.2141 58.5031 68.2142 59.532 68.8488 60.1666L70.3529 61.6706C69.532 62.9212 69.0525 64.415 69.0525 66.0195C69.0525 67.624 69.532 69.1179 70.3529 70.3684L68.8488 71.8725C68.2144 72.507 68.2143 73.536 68.849 74.1705ZM81.6973 66.0195C81.6973 68.6096 79.59 70.7168 77 70.7168C74.41 70.7168 72.3027 68.6096 72.3027 66.0195C72.3027 63.4295 74.41 61.3223 77 61.3223C79.59 61.3223 81.6973 63.4295 81.6973 66.0195ZM89.0098 67.9238V63.9629C89.0098 63.0654 89.7373 62.3379 90.6348 62.3379C91.5323 62.3379 92.2598 63.0654 92.2598 63.9629V67.9238C92.2598 68.8213 91.5323 69.5488 90.6348 69.5488C89.7373 69.5488 89.0098 68.8213 89.0098 67.9238Z" fill="black"/>
</g>
<defs>
<clipPath id="clip0_104_291">
<rect width="52" height="52" fill="white" transform="translate(51 42)"/>
</clipPath>
</defs>
</svg>
