<svg width="153" height="137" viewBox="0 0 153 137" fill="none" xmlns="http://www.w3.org/2000/svg">
<path d="M41.5575 11.9973C24.5575 22.5973 5.55752 41.3973 1.15752 61.5973C-9.14248 108.697 51.6575 137.297 89.8575 136.697C114.058 136.297 139.158 123.297 148.658 100.997C154.858 86.4973 153.858 69.5973 148.658 54.6973C132.058 7.29729 86.3575 -15.8027 41.5575 11.9973Z" fill="#FCD535"/>
<g clip-path="url(#clip0_48_19070)">
<path d="M90.9169 41.9409C90.5818 41.6027 90.1248 41.4127 89.6487 41.4127C89.1726 41.4127 88.7161 41.6032 88.3805 41.9413L83.1011 47.2655C82.7516 47.6176 82.2876 47.8118 81.7952 47.8118C81.4201 47.8118 72.4468 47.8118 70.8743 47.8118C70.3814 47.8118 69.9179 47.6176 69.5651 47.2627L64.3783 42.0577C64.0432 41.721 63.5876 41.5319 63.1129 41.5319C63.1124 41.5319 63.1115 41.5319 63.111 41.5319C62.6354 41.5324 62.1798 41.7229 61.8447 42.0605L46.3997 57.6307C45.7067 58.3293 45.7081 59.4568 46.4029 60.154L50.8325 64.5951C51.6716 65.4414 52.1338 66.567 52.1338 67.7653C52.1338 69.3157 52.5685 70.7986 53.3764 72.0761C51.6181 74.2156 51.7317 77.4021 53.7189 79.4052C54.6809 80.3753 55.9407 80.9361 57.2917 81.0022C57.3536 82.3099 57.8786 83.5991 58.8671 84.5953C59.8291 85.5654 61.0889 86.1261 62.4404 86.1922C62.5018 87.5 63.0273 88.7891 64.0153 89.7853C65.5711 91.3539 67.8036 91.7493 69.6889 91.0716C69.9486 91.8224 70.3749 92.5266 70.9687 93.125C73.0905 95.2646 76.5311 95.265 78.6533 93.125L79.4077 92.365C79.8792 91.8895 80.2445 91.3469 80.5051 90.768C82.6157 92.6341 85.8688 92.5927 87.9254 90.5193C88.9139 89.5231 89.4388 88.234 89.5003 86.9262C90.8513 86.8605 92.1116 86.2993 93.0735 85.3292C94.062 84.3331 94.587 83.0439 94.6489 81.7362C95.9995 81.6705 97.2598 81.1093 98.2217 80.1397C100.198 78.1478 100.322 74.985 98.5945 72.8455C99.8534 71.0706 100.535 68.952 100.535 66.7272C100.535 66.2061 100.744 65.6966 101.109 65.3291L106.362 60.031C107.054 59.3338 107.054 58.2086 106.362 57.5115L90.9169 41.9409ZM56.2558 74.2152L58.8299 71.6201C59.5526 70.8913 60.718 70.8908 61.4412 71.6201C62.1719 72.3565 62.1719 73.5543 61.4412 74.2901L58.8671 76.8856C58.1439 77.6145 56.979 77.6145 56.2558 76.8856C55.5256 76.1493 55.5256 74.9515 56.2558 74.2152ZM61.404 79.4052L66.5521 74.2152C67.2754 73.4863 68.4407 73.4858 69.1639 74.2152C69.8941 74.9515 69.8941 76.1493 69.1639 76.8856C67.3289 78.7355 67.2312 78.8338 64.0153 82.0757C63.2921 82.8041 62.1272 82.8045 61.404 82.0752C60.6738 81.3394 60.6738 80.1415 61.404 79.4052ZM66.5521 87.2653C65.8219 86.5294 65.8219 85.3316 66.5521 84.5953L69.1262 82.0002C69.8495 81.2714 71.0148 81.2714 71.738 82.0002C72.4124 82.6802 72.4626 83.7528 71.8911 84.4933C71.7338 84.6386 71.9679 84.4048 69.1639 87.2653C68.4407 87.9946 67.2758 87.9951 66.5521 87.2653ZM76.8713 89.8449L76.1169 90.605C75.3937 91.3343 74.2288 91.3343 73.5056 90.605C72.8401 89.9343 72.7828 88.8813 73.3301 88.1427C74.3112 87.1502 74.2633 87.2089 74.4341 87.0217C75.1638 86.4474 76.2058 86.5043 76.8713 87.1749C77.6015 87.9112 77.6011 89.1091 76.8713 89.8449ZM95.6853 77.6196C94.9621 78.3485 93.7968 78.3485 93.0735 77.6196L89.7455 74.2645C89.0502 73.5636 87.9184 73.5594 87.218 74.2552C86.5175 74.951 86.5134 76.0832 87.2086 76.7841L90.5371 80.1392C91.2673 80.8755 91.2673 82.0734 90.5371 82.8092C89.8139 83.5385 88.6486 83.5385 87.9254 82.8092L84.5973 79.4541C83.9016 78.7532 82.7702 78.749 82.0698 79.4448C81.3694 80.1406 81.3652 81.2732 82.0605 81.9742L85.3885 85.3292C86.1192 86.0656 86.1192 87.2634 85.3885 87.9992C84.6657 88.7286 83.5004 88.7286 82.7767 87.9992C79.2732 84.4961 79.4412 84.5729 79.0885 84.3596C78.1781 83.5753 77.0505 83.1208 75.8489 83.0593C75.7842 81.7567 75.2592 80.4731 74.2749 79.4802C73.7699 78.9716 73.1826 78.5758 72.5436 78.3047C73.7555 76.2169 73.4749 73.484 71.7003 71.6956C69.8816 69.862 67.1609 69.6399 65.1322 70.8289C64.8693 70.2006 64.4853 69.6115 63.9781 69.1006C61.8559 66.961 58.4157 66.961 56.293 69.1006L56.0082 69.3879C55.8118 68.8775 55.708 68.3293 55.708 67.7653C55.708 65.6165 54.8773 63.5962 53.3657 62.0718L50.1894 58.8872L63.1157 45.8557L67.0315 49.7851C67.9064 50.6672 69.0285 51.2097 70.2409 51.3504L62.2547 60.9401C61.6232 61.6993 61.7255 62.8268 62.4837 63.4588C64.3169 64.9877 66.6355 65.711 69.0122 65.4949C71.3885 65.2788 73.5391 64.1494 75.0689 62.3122C75.7088 61.5437 76.7852 61.3122 77.6876 61.7482C79.5292 62.6386 81.5532 62.9637 83.5441 62.7094L95.6853 74.9492C96.4155 75.6855 96.4155 76.8833 95.6853 77.6196ZM98.5722 62.8091C97.5329 63.8565 96.961 65.2481 96.961 66.7272C96.961 67.9754 96.6375 69.1723 96.0335 70.223L87.3413 61.4608C89.1182 60.4716 90.5753 58.9845 91.5419 57.1412C92.0003 56.2666 91.6634 55.1856 90.7894 54.7269C89.9154 54.2677 88.8352 54.6049 88.3768 55.4795C87.4069 57.3294 85.7422 58.564 83.8774 59.0213C83.7955 59.0339 83.714 59.0516 83.6344 59.0758C82.2015 59.3725 80.6652 59.2155 79.2425 58.5277C76.8602 57.3759 74.0152 57.9907 72.3212 60.025C71.4043 61.1255 70.1143 61.8031 68.6888 61.9331C67.8785 62.0066 67.0799 61.8981 66.339 61.6229L74.6123 51.6866C75.2606 51.4887 75.9326 51.3732 76.6102 51.3732H81.7952C83.2472 51.3732 84.6118 50.819 85.6379 49.7851L89.6492 45.7398L102.576 58.7712L98.5722 62.8091Z" fill="black"/>
</g>
<defs>
<clipPath id="clip0_48_19070">
<rect width="61" height="54" fill="white" transform="translate(46 41)"/>
</clipPath>
</defs>
</svg>
