<svg width="35" height="35" viewBox="0 0 35 35" fill="none" xmlns="http://www.w3.org/2000/svg">
<path d="M7.96332 7.3011L7.93871 12.7699C7.93825 12.8714 7.90951 12.9709 7.85571 13.0571C7.8019 13.1432 7.72516 13.2127 7.63408 13.2577C7.54301 13.3027 7.4412 13.3214 7.34007 13.3118C7.23894 13.3022 7.14248 13.2646 7.06152 13.2032L6.54527 12.812C5.75264 14.6691 5.44431 16.697 5.64915 18.7057C5.85399 20.7144 6.5653 22.6383 7.71647 24.2972L6.81844 24.9214C5.49116 23.0093 4.70066 20.7764 4.52922 18.4551C4.35778 16.1338 4.81167 13.809 5.84363 11.7227C5.87938 11.6505 5.93061 11.5872 5.99366 11.5372C6.05671 11.4871 6.13003 11.4516 6.20839 11.4332C6.28674 11.4147 6.3682 11.4138 6.44695 11.4305C6.5257 11.4472 6.59979 11.4811 6.66394 11.5297L6.84995 11.6706L6.86636 8.02537L3.36266 9.03025L3.91501 9.4482C4.01961 9.52736 4.09228 9.64149 4.11975 9.76976C4.14721 9.89804 4.12766 10.0319 4.06465 10.147C3.69998 10.8134 3.38561 11.5061 3.12416 12.2193L2.09719 11.8433C2.32307 11.2271 2.58584 10.6251 2.88408 10.0405L1.83025 9.24278C1.74926 9.18149 1.68694 9.09886 1.65028 9.00414C1.61361 8.90942 1.60405 8.80636 1.62265 8.70652C1.64126 8.60667 1.68731 8.51398 1.75563 8.43883C1.82396 8.36368 1.91186 8.30904 2.00949 8.28103L7.26564 6.77296C7.34726 6.74955 7.4332 6.74546 7.51667 6.76102C7.60013 6.77657 7.67883 6.81135 7.74653 6.8626C7.81422 6.91385 7.86906 6.98015 7.90668 7.05626C7.94431 7.13237 7.9637 7.2162 7.96332 7.3011ZM2.83472 24.8549L3.81226 24.3637C2.41142 21.5828 1.89725 18.4391 2.33912 15.3568C2.42724 14.7337 2.55314 14.1166 2.71612 13.5088L1.65976 13.2251C1.48534 13.8759 1.35065 14.5367 1.25644 15.2038C0.782845 18.5065 1.33371 21.8751 2.83472 24.8549ZM14.8783 12.6331C14.5303 12.8024 14.1993 13.0048 13.8901 13.2374L14.5477 14.1114C14.8008 13.921 15.0716 13.7553 15.3565 13.6168L14.8783 12.6331ZM11.4845 18.5937H12.5783V18.0468C12.5779 16.8274 13.0314 15.6514 13.8506 14.7481L13.0396 14.0143C12.0383 15.1186 11.4839 16.5561 11.4845 18.0468V18.5937ZM32.2658 33.3593V28.4374H31.172V32.8124H25.7033V26.2499H26.2501V25.1562H25.2967C24.0558 24.4753 22.6636 24.1175 21.2482 24.1157C19.8328 24.114 18.4398 24.4684 17.1972 25.1462L17.1789 25.1562H13.1251C12.7891 25.1565 12.4577 25.2342 12.1565 25.3832C11.8553 25.5322 11.5925 25.7485 11.3882 26.0153C11.184 26.2822 11.044 26.5924 10.9789 26.9221C10.9138 27.2517 10.9254 27.5919 11.0128 27.9164L8.88296 26.9403C8.92683 26.8634 8.98071 26.7927 9.04319 26.73L10.2306 25.5426C10.3331 25.4401 10.3907 25.3011 10.3908 25.1562V18.0468C10.3936 16.4934 10.9037 14.9834 11.8436 13.7466C12.7835 12.5098 14.1016 11.6138 15.5975 11.1951C15.6784 11.1726 15.7531 11.1319 15.8157 11.076C15.8783 11.0201 15.9272 10.9505 15.9586 10.8726C15.99 10.7948 16.0031 10.7107 15.9968 10.627C15.9905 10.5433 15.965 10.4621 15.9223 10.3899L14.6303 8.20304H20.3699L19.0779 10.3899C19.0352 10.4621 19.0097 10.5433 19.0034 10.627C18.9971 10.7107 19.0102 10.7948 19.0416 10.8726C19.073 10.9505 19.1219 11.0201 19.1845 11.076C19.2472 11.1319 19.3218 11.1726 19.4027 11.1951C20.8986 11.6138 22.2168 12.5098 23.1567 13.7466C24.0965 14.9834 24.6067 16.4934 24.6095 18.0468V24.0624H25.7033V18.0468C25.6999 16.375 25.1875 14.7438 24.2341 13.3705C23.2808 11.9971 21.9318 10.9467 20.3667 10.359L21.7991 7.93432C21.8482 7.85126 21.8744 7.75671 21.8751 7.66026C21.8759 7.5638 21.8511 7.46887 21.8032 7.38509C21.7554 7.30131 21.6863 7.23167 21.6029 7.18324C21.5195 7.1348 21.4247 7.10929 21.3283 7.10929H13.672C13.5756 7.10929 13.4808 7.1348 13.3974 7.18324C13.314 7.23167 13.2449 7.30131 13.197 7.38509C13.1492 7.46887 13.1244 7.5638 13.1251 7.66026C13.1259 7.75671 13.1521 7.85126 13.2012 7.93432L14.6336 10.359C13.0685 10.9467 11.7195 11.9971 10.7662 13.3705C9.81283 14.7438 9.30037 16.375 9.29701 18.0468V24.9297L8.26977 25.9569C8.11508 26.1114 7.98563 26.2893 7.88614 26.484L6.04044 25.6386C5.50072 25.3983 4.89049 25.3691 4.33029 25.5568C3.7701 25.7446 3.30068 26.1356 3.01478 26.6526C2.38587 27.8231 2.83274 29.371 4.02459 29.968L10.4013 33.1563C11.3889 33.6482 12.477 33.9049 13.5804 33.9062H21.3283V32.8124H13.5804C12.6468 32.8113 11.7261 32.594 10.8904 32.1777L4.51397 28.9895C3.88465 28.6751 3.64772 27.7828 3.97776 27.1712C4.12955 26.8963 4.37901 26.6885 4.67675 26.5889C4.97449 26.4892 5.29879 26.505 5.58544 26.6331L11.8036 29.4815C11.8751 29.5142 11.9528 29.5312 12.0314 29.5312H18.047V28.4374H13.1251C12.8351 28.4374 12.5569 28.3222 12.3517 28.1171C12.1466 27.9119 12.0314 27.6337 12.0314 27.3437C12.0314 27.0536 12.1466 26.7754 12.3517 26.5703C12.5569 26.3651 12.8351 26.2499 13.1251 26.2499H17.3176C17.4086 26.2499 17.4981 26.2272 17.5781 26.1839L17.7196 26.1072C18.7741 25.5318 19.9536 25.2238 21.1547 25.21C22.3559 25.1962 23.5421 25.4771 24.6095 26.0282V32.8124H22.422V33.9062H31.7189C31.8639 33.9062 32.003 33.8485 32.1056 33.746C32.2082 33.6434 32.2658 33.5043 32.2658 33.3593ZM28.9845 30.6249C28.9845 30.4086 28.9204 30.1971 28.8002 30.0173C28.68 29.8374 28.5092 29.6972 28.3093 29.6144C28.1095 29.5316 27.8896 29.51 27.6774 29.5522C27.4652 29.5944 27.2703 29.6985 27.1174 29.8515C26.9644 30.0045 26.8602 30.1994 26.818 30.4115C26.7758 30.6237 26.7975 30.8436 26.8803 31.0435C26.9631 31.2433 27.1032 31.4141 27.2831 31.5343C27.463 31.6545 27.6744 31.7187 27.8908 31.7187C28.1807 31.7183 28.4587 31.603 28.6638 31.3979C28.8688 31.1929 28.9842 30.9149 28.9845 30.6249ZM18.047 15.8593V18.0468C18.6272 18.0468 19.1836 18.2773 19.5938 18.6875C20.004 19.0977 20.2345 19.6541 20.2345 20.2343C20.2345 20.8144 20.004 21.3708 19.5938 21.7811C19.1836 22.1913 18.6272 22.4218 18.047 22.4218V23.5155H16.9533V22.4218C16.3733 22.4211 15.8173 22.1905 15.4072 21.7804C14.9971 21.3703 14.7664 20.8142 14.7658 20.2343H15.8595C15.8599 20.5243 15.9752 20.8023 16.1802 21.0073C16.3853 21.2123 16.6633 21.3277 16.9533 21.328V19.1405C16.3731 19.1405 15.8167 18.9101 15.4065 18.4998C14.9962 18.0896 14.7658 17.5332 14.7658 16.953C14.7658 16.3729 14.9962 15.8165 15.4065 15.4062C15.8167 14.996 16.3731 14.7655 16.9533 14.7655V13.6718H18.047V14.7655C18.627 14.7662 19.183 14.9969 19.5931 15.407C20.0032 15.8171 20.2339 16.3731 20.2345 16.953H19.1408C19.1404 16.6631 19.0251 16.3851 18.82 16.18C18.615 15.975 18.337 15.8596 18.047 15.8593ZM16.9533 15.8593C16.6632 15.8593 16.385 15.9745 16.1799 16.1796C15.9747 16.3848 15.8595 16.663 15.8595 16.953C15.8595 17.2431 15.9747 17.5213 16.1799 17.7264C16.385 17.9316 16.6632 18.0468 16.9533 18.0468V15.8593ZM18.047 19.1405V21.328C18.3371 21.328 18.6153 21.2128 18.8204 21.0077C19.0255 20.8026 19.1408 20.5244 19.1408 20.2343C19.1408 19.9442 19.0255 19.666 18.8204 19.4609C18.6153 19.2558 18.3371 19.1405 18.047 19.1405ZM19.6419 2.3389C22.8452 2.79166 25.8229 4.24698 28.1481 6.49623C30.4734 8.74549 32.0268 11.6732 32.5858 14.8597L33.6632 14.6714C33.188 11.9599 32.0383 9.41146 30.3199 7.26081C28.6015 5.11016 26.3696 3.4264 23.8298 2.36455C21.29 1.30271 18.5238 0.896919 15.7861 1.18454C13.0483 1.47216 10.4268 2.44394 8.16313 4.01042C8.04696 4.09089 7.96644 4.21321 7.93847 4.35174C7.9105 4.49026 7.93724 4.63424 8.01308 4.75349L9.83862 7.62376C9.87839 7.68629 9.93045 7.74009 9.99164 7.78189C10.0528 7.82369 10.1219 7.85262 10.1946 7.86691C10.2673 7.88121 10.3422 7.88057 10.4146 7.86505C10.4871 7.84953 10.5557 7.81944 10.6161 7.77661C13.0954 6.01539 16.1562 5.27335 19.1667 5.70368C25.6709 6.6227 30.215 12.662 29.2957 19.1662C29.1492 20.2085 28.8654 21.2268 28.4517 22.1946L27.9221 21.7936C27.8411 21.7323 27.7447 21.6948 27.6436 21.6852C27.5425 21.6757 27.4407 21.6944 27.3497 21.7394C27.2586 21.7845 27.1819 21.8539 27.1281 21.9401C27.0744 22.0262 27.0456 22.1256 27.0452 22.2272L27.0207 27.6954C27.0203 27.7803 27.0397 27.8642 27.0773 27.9403C27.115 28.0164 27.1698 28.0827 27.2375 28.1339C27.3052 28.1852 27.3839 28.2199 27.4674 28.2355C27.5509 28.251 27.6368 28.2469 27.7184 28.2235L32.9747 26.7158C33.0723 26.6878 33.1602 26.6332 33.2285 26.558C33.2968 26.4829 33.3429 26.3902 33.3615 26.2904C33.3801 26.1906 33.3705 26.0875 33.3339 25.9928C33.2972 25.8981 33.2349 25.8155 33.154 25.7542L32.1118 24.9653C33.4619 22.3108 34.069 19.3406 33.8687 16.3692L32.7774 16.4435C32.8494 17.5108 32.81 18.5827 32.6601 19.6418C32.4043 21.4707 31.8185 23.238 30.9313 24.8576C30.8683 24.9727 30.8487 25.1066 30.8761 25.2348C30.9036 25.3631 30.9762 25.4773 31.0808 25.5565L31.6218 25.966L28.1177 26.9709L28.1341 23.3256L28.3332 23.476C28.3973 23.5246 28.4714 23.5584 28.5501 23.575C28.6288 23.5916 28.7102 23.5907 28.7885 23.5723C28.8668 23.5538 28.9401 23.5183 29.0031 23.4683C29.0661 23.4183 29.1173 23.355 29.1531 23.283C29.7713 22.0358 30.1851 20.6973 30.3786 19.3187C31.382 12.2178 26.421 5.62411 19.3197 4.62101C16.2289 4.17882 13.0824 4.86828 10.4597 6.56241L9.22298 4.61779C12.3088 2.62982 16.0079 1.82074 19.6419 2.3389Z" fill="black"/>
</svg>
