<svg width="34" height="34" viewBox="0 0 34 34" fill="none" xmlns="http://www.w3.org/2000/svg">
<path d="M21.5858 9.9875C21.5858 9.67456 21.332 9.42083 21.0191 9.42083H5.1707C4.85826 9.42083 4.60404 9.16661 4.60404 8.85417V4.8875C4.60404 4.57505 4.85826 4.32083 5.1707 4.32083H21.604C21.9165 4.32083 22.1707 4.57505 22.1707 4.8875V7.67514C22.1707 7.98809 22.4244 8.24181 22.7374 8.24181C23.0503 8.24181 23.304 7.98809 23.304 7.67514V4.8875C23.304 3.95016 22.5414 3.1875 21.604 3.1875H5.1707C4.23337 3.1875 3.4707 3.95016 3.4707 4.8875V8.85417C3.4707 9.7915 4.23337 10.5542 5.1707 10.5542H21.0191C21.332 10.5542 21.5858 10.3004 21.5858 9.9875Z" fill="black"/>
<path d="M8.92487 14.0329C8.92487 13.2081 8.25387 12.5371 7.42908 12.5371H4.96649C4.14171 12.5371 3.4707 13.2081 3.4707 14.0329V15.7872C3.4707 16.6119 4.14171 17.2829 4.96649 17.2829H7.42908C8.25387 17.2829 8.92487 16.6119 8.92487 15.7872V14.0329ZM7.79154 15.7872C7.79154 15.9871 7.62897 16.1496 7.42908 16.1496H4.96649C4.7666 16.1496 4.60404 15.9871 4.60404 15.7872V14.0329C4.60404 13.833 4.7666 13.6704 4.96649 13.6704H7.42908C7.62897 13.6704 7.79154 13.833 7.79154 14.0329V15.7872Z" fill="black"/>
<path d="M16.0792 14.0329C16.0792 13.2081 15.4082 12.5371 14.5834 12.5371H12.1208C11.296 12.5371 10.625 13.2081 10.625 14.0329V15.7872C10.625 16.6119 11.296 17.2829 12.1208 17.2829H14.5834C15.4082 17.2829 16.0792 16.6119 16.0792 15.7872V14.0329ZM14.9458 15.7872C14.9458 15.9871 14.7833 16.1496 14.5834 16.1496H12.1208C11.9209 16.1496 11.7583 15.9871 11.7583 15.7872V14.0329C11.7583 13.833 11.9209 13.6704 12.1208 13.6704H14.5834C14.7833 13.6704 14.9458 13.833 14.9458 14.0329V15.7872Z" fill="black"/>
<path d="M21.8085 12.5371H19.3459C18.5211 12.5371 17.8501 13.2081 17.8501 14.0329V15.7872C17.8501 16.6119 18.5211 17.2829 19.3459 17.2829H21.8085C22.6333 17.2829 23.3043 16.6119 23.3043 15.7872V14.0329C23.3043 13.2081 22.6333 12.5371 21.8085 12.5371ZM22.1709 15.7872C22.1709 15.9871 22.0083 16.1496 21.8085 16.1496H19.3459C19.1461 16.1496 18.9834 15.9871 18.9834 15.7872V14.0329C18.9834 13.833 19.1461 13.6704 19.3459 13.6704H21.8085C22.0083 13.6704 22.1709 13.833 22.1709 14.0329V15.7872Z" fill="black"/>
<path d="M8.92487 20.8337C8.92487 20.0089 8.25387 19.3379 7.42908 19.3379H4.96649C4.14171 19.3379 3.4707 20.0089 3.4707 20.8337V22.5879C3.4707 23.4127 4.14171 24.0837 4.96649 24.0837H7.42908C8.25387 24.0837 8.92487 23.4127 8.92487 22.5879V20.8337ZM7.79154 22.5879C7.79154 22.7878 7.62897 22.9504 7.42908 22.9504H4.96649C4.7666 22.9504 4.60404 22.7878 4.60404 22.5879V20.8337C4.60404 20.6338 4.7666 20.4712 4.96649 20.4712H7.42908C7.62897 20.4712 7.79154 20.6338 7.79154 20.8337V22.5879Z" fill="black"/>
<path d="M16.0792 20.8337C16.0792 20.0089 15.4082 19.3379 14.5834 19.3379H12.1208C11.296 19.3379 10.625 20.0089 10.625 20.8337V22.5879C10.625 23.4127 11.296 24.0837 12.1208 24.0837H14.5834C15.4082 24.0837 16.0792 23.4127 16.0792 22.5879V20.8337ZM14.9458 22.5879C14.9458 22.7878 14.7833 22.9504 14.5834 22.9504H12.1208C11.9209 22.9504 11.7583 22.7878 11.7583 22.5879V20.8337C11.7583 20.6338 11.9209 20.4712 12.1208 20.4712H14.5834C14.7833 20.4712 14.9458 20.6338 14.9458 20.8337V22.5879Z" fill="black"/>
<path d="M7.42908 26.1377H4.96649C4.14171 26.1377 3.4707 26.8087 3.4707 27.6335V29.3877C3.4707 30.2125 4.14171 30.8835 4.96649 30.8835H7.42908C8.25387 30.8835 8.92487 30.2125 8.92487 29.3877V27.6335C8.92487 26.8087 8.25387 26.1377 7.42908 26.1377ZM7.79154 29.3877C7.79154 29.5876 7.62897 29.7502 7.42908 29.7502H4.96649C4.7666 29.7502 4.60404 29.5876 4.60404 29.3877V27.6335C4.60404 27.4336 4.7666 27.271 4.96649 27.271H7.42908C7.62897 27.271 7.79154 27.4336 7.79154 27.6335V29.3877Z" fill="black"/>
<path d="M14.5834 26.1377H12.1208C11.296 26.1377 10.625 26.8087 10.625 27.6335V29.3877C10.625 30.2125 11.296 30.8835 12.1208 30.8835H14.5834C15.4082 30.8835 16.0792 30.2125 16.0792 29.3877V27.6335C16.0792 26.8087 15.4082 26.1377 14.5834 26.1377ZM14.9458 29.3877C14.9458 29.5876 14.7833 29.7502 14.5834 29.7502H12.1208C11.9209 29.7502 11.7583 29.5876 11.7583 29.3877V27.6335C11.7583 27.4336 11.9209 27.271 12.1208 27.271H14.5834C14.7833 27.271 14.9458 27.4336 14.9458 27.6335V29.3877Z" fill="black"/>
<path d="M26.4917 21.4632C26.4917 21.1502 26.2379 20.8965 25.925 20.8965C25.612 20.8965 25.3583 21.1502 25.3583 21.4632V22.1754C24.1531 22.3897 23.2471 23.2726 23.2471 24.3265C23.2471 25.9911 24.7291 26.2946 25.8113 26.5162C27.0758 26.7751 27.4695 26.9578 27.4695 27.5955C27.4695 28.1744 26.7622 28.6634 25.9249 28.6634C25.353 28.6634 24.828 28.4398 24.5547 28.0799C24.3655 27.8306 24.0099 27.782 23.7608 27.9712C23.5114 28.1604 23.4628 28.5159 23.652 28.7651C24.0408 29.2772 24.6555 29.6247 25.3583 29.7472V30.459C25.3583 30.7719 25.612 31.0256 25.9249 31.0256C26.2379 31.0256 26.4916 30.7719 26.4916 30.459V29.7467C27.6968 29.5324 28.6028 28.6495 28.6028 27.5956C28.6028 25.931 27.1208 25.6275 26.0386 25.4059C24.7741 25.147 24.3804 24.9644 24.3804 24.3266C24.3804 23.7477 25.0877 23.2587 25.925 23.2587C26.4969 23.2587 27.0219 23.4823 27.2952 23.8422C27.4845 24.0915 27.84 24.1402 28.0892 23.951C28.3385 23.7617 28.3871 23.4062 28.1979 23.157C27.8092 22.6449 27.1944 22.2974 26.4917 22.175V21.4632Z" fill="black"/>
<path d="M29.5524 18.7088C29.2731 18.5681 28.9322 18.6804 28.7914 18.96C28.6507 19.2395 28.7632 19.5802 29.0427 19.721C31.4013 20.9089 32.8667 23.2861 32.8667 25.925C32.8667 29.7527 29.7526 32.8667 25.925 32.8667C22.0974 32.8667 18.9833 29.7527 18.9833 25.925C18.9833 22.0973 22.0974 18.9833 25.925 18.9833C26.1654 18.9833 26.3127 19.0187 26.4968 18.9094C26.6646 18.81 26.7678 18.6321 26.7746 18.4429C26.7752 18.4254 26.775 2.86925 26.775 2.83333C26.775 1.27103 25.504 0 23.9417 0H2.83333C1.27103 0 0 1.27103 0 2.83333V31.1667C0 32.729 1.27103 34 2.83333 34H18.8075C19.1204 34 19.3741 33.7463 19.3741 33.4333C19.3741 33.1204 19.1204 32.8667 18.8075 32.8667H2.83333C1.896 32.8667 1.13333 32.104 1.13333 31.1667V2.83333C1.13333 1.896 1.896 1.13333 2.83333 1.13333H23.9417C24.879 1.13333 25.6417 1.896 25.6417 2.83333V17.8555C21.3198 18.0053 17.85 21.5673 17.85 25.925C17.85 30.3776 21.4725 34 25.925 34C30.3775 34 34 30.3776 34 25.925C34 22.8554 32.2957 20.0903 29.5524 18.7088Z" fill="black"/>
<path d="M19.8335 8.49954C20.1465 8.49954 20.4002 8.24582 20.4002 7.93287V5.80788C20.4002 5.49494 20.1465 5.24121 19.8335 5.24121H19.2669C18.9539 5.24121 18.7002 5.49494 18.7002 5.80788C18.7002 6.12082 18.9539 6.37454 19.2669 6.37454V7.93287C19.2669 8.24582 19.5206 8.49954 19.8335 8.49954Z" fill="black"/>
</svg>
