<svg width="35" height="35" viewBox="0 0 35 35" fill="none" xmlns="http://www.w3.org/2000/svg">
<g clip-path="url(#clip0_96_18067)">
<path d="M21.7462 25.7404C22.7694 25.7404 23.7926 25.351 24.5716 24.572C26.1294 23.0141 26.1294 20.4792 24.5716 18.9214C23.0136 17.3634 20.4788 17.3634 18.9208 18.9214C17.363 20.4792 17.363 23.0141 18.9208 24.572C19.6998 25.3509 20.723 25.7404 21.7462 25.7404ZM19.6456 19.6461C20.2248 19.0668 20.9853 18.7773 21.7462 18.7773C22.5069 18.7773 23.2678 19.067 23.8468 19.6461C25.005 20.8043 25.005 22.689 23.8468 23.8472C22.6885 25.0056 20.8038 25.0055 19.6456 23.8472C18.4872 22.689 18.4872 20.8043 19.6456 19.6461Z" fill="black"/>
<path d="M17.0948 17.0954C15.1882 19.0021 14.637 21.8376 15.6905 24.3194C15.8011 24.5799 16.1021 24.7013 16.3624 24.5908C16.623 24.4802 16.7445 24.1794 16.6339 23.9189C15.7445 21.8237 16.2099 19.4298 17.8196 17.8201C19.9847 15.655 23.5076 15.6551 25.6726 17.8201C27.8377 19.9852 27.8377 23.5081 25.6726 25.6731C24.6324 26.7132 23.2497 27.2908 21.779 27.2995C21.7677 27.2995 21.7567 27.2995 21.7455 27.2995C20.2885 27.2995 18.9132 26.7403 17.8699 25.7228C17.6673 25.5251 17.3429 25.5292 17.1453 25.7318C16.9477 25.9344 16.9518 26.2589 17.1544 26.4565C18.3903 27.662 20.0193 28.3244 21.7453 28.3244C21.7585 28.3244 21.7718 28.3244 21.785 28.3242C23.5272 28.3141 25.1653 27.6298 26.3974 26.3978C28.962 23.8331 28.962 19.6601 26.3974 17.0953C23.8325 14.5307 19.6596 14.5307 17.0948 17.0954Z" fill="black"/>
<path d="M34.018 19.4458H32.1945C31.9237 18.2102 31.4419 17.046 30.7622 15.9844L32.0504 14.6961C32.2358 14.5107 32.3379 14.2642 32.3379 14.0021C32.3379 13.7399 32.2358 13.4934 32.0505 13.3081L30.1844 11.4422C29.9991 11.2568 29.7527 11.1546 29.4905 11.1546C29.2283 11.1546 28.982 11.2567 28.7965 11.4421L27.5082 12.7305C26.4466 12.0506 25.2825 11.5689 24.0468 11.2981V9.47461C24.0468 8.93353 23.6066 8.49323 23.0654 8.49323H20.4266C20.1217 8.49323 19.8488 8.63302 19.6687 8.85181H19.3339C19.1156 7.89639 18.7421 6.99406 18.2227 6.16641L19.2083 5.18078C19.5558 4.8332 19.5558 4.26773 19.2083 3.92008L17.7002 2.41196C17.5317 2.2436 17.3079 2.15088 17.0698 2.15088C16.8316 2.15088 16.6077 2.2436 16.4394 2.41202L15.4538 3.39758C14.6263 2.87815 13.7239 2.50474 12.7684 2.28637V0.891467C12.7684 0.39992 12.3686 0 11.877 0H9.74418C9.25264 0 8.85272 0.39992 8.85272 0.891467V2.28644C7.89723 2.50481 6.99476 2.87829 6.16732 3.39765L5.18183 2.41209C5.01347 2.24367 4.78963 2.15094 4.55144 2.15094C4.31325 2.15094 4.08934 2.24367 3.92098 2.41209L2.413 3.92015C2.06549 4.26773 2.06549 4.8332 2.413 5.18085L3.39862 6.16648C2.8792 6.99392 2.50579 7.89639 2.28741 8.85188H0.892444C0.400897 8.85188 0.000976562 9.2518 0.000976562 9.74334V11.8761C0.000976562 12.3677 0.400897 12.7676 0.892444 12.7676H2.28741C2.50579 13.7231 2.8792 14.6256 3.39862 15.453L2.413 16.4386C2.06542 16.7862 2.06542 17.3517 2.413 17.6993L3.92105 19.2074C4.26863 19.5549 4.83411 19.5551 5.18183 19.2074L6.16745 18.2218C6.99483 18.7412 7.89716 19.1146 8.85279 19.333V19.6684C8.63311 19.8485 8.49263 20.1217 8.49263 20.4274V23.0663C8.49263 23.6074 8.93287 24.0477 9.47402 24.0477H11.2975C11.5683 25.2834 12.0501 26.4476 12.7298 27.5091L11.4416 28.7975C11.2561 28.9828 11.1541 29.2293 11.1541 29.4915C11.1541 29.7536 11.2561 30.0001 11.4415 30.1854L13.3075 32.0513C13.4929 32.2367 13.7393 32.3389 14.0015 32.3389C14.2636 32.3389 14.51 32.2368 14.6955 32.0514L15.9837 30.763C17.0454 31.4429 18.2096 31.9247 19.4452 32.1954V34.0188C19.4452 34.56 19.8854 35.0002 20.4266 35.0002H23.0654C23.6066 35.0002 24.0468 34.56 24.0468 34.0188V32.1952C25.2825 31.9244 26.4467 31.4426 27.5083 30.7628L28.7966 32.0512C28.982 32.2365 29.2283 32.3387 29.4905 32.3387C29.7527 32.3387 29.9991 32.2366 30.1844 32.0512L32.0504 30.1852C32.2358 29.9999 32.3379 29.7534 32.3379 29.4912C32.3379 29.2291 32.2358 28.9826 32.0505 28.7973L30.7622 27.5089C31.4419 26.4475 31.9237 25.2832 32.1945 24.0475H34.018C34.5591 24.0475 34.9993 23.6072 34.9993 23.0661V20.4271C34.9994 19.8861 34.5591 19.4458 34.018 19.4458ZM9.17249 18.354C8.26476 18.1579 7.41046 17.8045 6.63317 17.3033C6.28176 17.0769 5.81317 17.1264 5.51862 17.421L4.55144 18.3883L3.23204 17.0689L4.19928 16.1015C4.49384 15.8069 4.54331 15.3383 4.31694 14.987C3.81576 14.2098 3.46224 13.3554 3.26614 12.4476C3.17779 12.0391 2.81135 11.7425 2.39476 11.7425H1.02589V9.87672H2.39483C2.81135 9.87672 3.17786 9.58018 3.26627 9.17144C3.4623 8.26378 3.81583 7.40949 4.31701 6.63219C4.54338 6.28106 4.49391 5.81233 4.19935 5.51771L3.23211 4.55047L4.55151 3.23106L5.51868 4.19831C5.81324 4.49293 6.28176 4.5424 6.63331 4.31597C7.4106 3.81478 8.2649 3.46126 9.17249 3.26523C9.58109 3.17695 9.8777 2.81044 9.8777 2.39378V1.02491H11.7436V2.39385C11.7436 2.81051 12.0402 3.17702 12.4488 3.2653C13.3564 3.46133 14.2107 3.81485 14.988 4.31597C15.3392 4.54233 15.808 4.493 16.1027 4.19831L17.0698 3.23106L18.3892 4.55047L17.4221 5.51764C17.1274 5.81227 17.0779 6.28099 17.3043 6.63219C17.8056 7.40962 18.1591 8.26399 18.3551 9.17144C18.4433 9.58011 18.8098 9.87672 19.2265 9.87672H19.4452V11.2981C18.2096 11.5688 17.0454 12.0506 15.9838 12.7305L14.6955 11.4421C14.6802 11.4268 14.6639 11.413 14.6478 11.3988C14.8275 10.2184 14.4644 8.97042 13.5572 8.06324C12.484 6.98996 10.8714 6.63985 9.44921 7.17116C9.1841 7.27024 9.04943 7.56548 9.14857 7.83059C9.24758 8.0957 9.54282 8.2303 9.80793 8.1313C10.855 7.73999 12.0423 7.99772 12.8325 8.78792C13.4956 9.45104 13.7628 10.3613 13.637 11.2249C13.5152 11.2736 13.4032 11.3466 13.3076 11.4421L11.4416 13.3081C11.3458 13.4038 11.2728 13.516 11.2241 13.6381C11.0883 13.6578 10.9504 13.6689 10.8107 13.6689C10.0469 13.6689 9.32896 13.3715 8.78897 12.8315C7.8865 11.929 7.69197 10.5225 8.31587 9.4112C8.45437 9.16441 8.36664 8.85201 8.11984 8.71351C7.87318 8.57501 7.56071 8.66275 7.42215 8.90954C6.57441 10.4197 6.83843 12.3305 8.06415 13.5562C8.82135 14.3134 9.81606 14.692 10.8106 14.692C11.0067 14.692 11.2026 14.6765 11.3969 14.6469C11.4114 14.6635 11.4257 14.6803 11.4415 14.6961L12.7298 15.9844C12.0501 17.046 11.5683 18.2103 11.2975 19.4459H9.8777V19.2255C9.8777 18.8089 9.58115 18.4424 9.17249 18.354ZM33.9745 23.0226H32.1591C31.7004 23.0226 31.297 23.3492 31.1997 23.7992C30.954 24.9366 30.5111 26.0072 29.8831 26.9812C29.6337 27.368 29.688 27.8841 30.0123 28.2084L31.295 29.4912L29.4906 31.2956L28.2079 30.0128C27.8837 29.6886 27.3675 29.6341 26.9808 29.8834C26.0066 30.5115 24.936 30.9545 23.7986 31.2002C23.3486 31.2974 23.022 31.7009 23.022 32.1596V33.975H20.4701V32.1596C20.4701 31.701 20.1435 31.2975 19.6935 31.2002C18.5562 30.9545 17.4856 30.5115 16.5114 29.8834C16.1248 29.6342 15.6087 29.6885 15.2842 30.0128L14.0016 31.2956L12.1971 29.4911L13.4798 28.2083C13.8042 27.884 13.8586 27.3679 13.6092 26.9812C12.9812 26.0071 12.5382 24.9365 12.2925 23.7991C12.1952 23.3491 11.7917 23.0224 11.3331 23.0224H9.51768V20.4705H11.3331C11.7917 20.4705 12.1952 20.1439 12.2925 19.6939C12.5382 18.5565 12.9811 17.4859 13.6091 16.5119C13.8586 16.125 13.8042 15.609 13.4798 15.2847L12.1971 14.0019L14.0016 12.1975L15.2842 13.4802C15.6085 13.8045 16.1246 13.8589 16.5114 13.6096C17.4856 12.9816 18.5562 12.5385 19.6935 12.2929C20.1435 12.1957 20.4701 11.7922 20.4701 11.3335V9.51807H23.022V11.3335C23.022 11.7921 23.3486 12.1956 23.7986 12.2928C24.936 12.5385 26.0066 12.9815 26.9808 13.6096C27.3674 13.8588 27.8835 13.8046 28.2079 13.4802L29.4906 12.1974L31.295 14.0018L30.0123 15.2848C29.6879 15.6092 29.6335 16.1253 29.8829 16.5119C30.5109 17.486 30.954 18.5566 31.1997 19.6941C31.297 20.1441 31.7004 20.4707 32.159 20.4707H33.9744V23.0226H33.9745Z" fill="black"/>
</g>
<defs>
<clipPath id="clip0_96_18067">
<rect width="35" height="35" fill="black"/>
</clipPath>
</defs>
</svg>
