<svg width="35" height="35" viewBox="0 0 35 35" fill="none" xmlns="http://www.w3.org/2000/svg">
<path d="M23.6523 21.8066C23.2749 21.8066 22.9688 22.1127 22.9688 22.4902V27.207C22.9688 29.0917 21.4354 30.625 19.5508 30.625H12.1702C11.7927 30.625 11.4868 30.9308 11.4866 31.3081L11.4856 32.6672L9.854 31.0357C9.74839 30.7932 9.50667 30.625 9.22708 30.625H4.78516C2.90049 30.625 1.36719 29.0917 1.36719 27.207V16.6797C1.36719 14.795 2.90049 13.2617 4.78516 13.2617H11.6895C12.0669 13.2617 12.373 12.9557 12.373 12.5781C12.373 12.2006 12.0669 11.8945 11.6895 11.8945H4.78516C2.14662 11.8945 0 14.0412 0 16.6797V27.207C0 29.8456 2.14662 31.9922 4.78516 31.9922H8.87701L11.6846 34.7998C11.8154 34.9305 11.9902 35 12.1681 35C12.2561 35 12.3449 34.983 12.4293 34.948C12.6848 34.8424 12.8514 34.5933 12.8516 34.3169L12.8532 31.9922H19.5508C22.1893 31.9922 24.3359 29.8456 24.3359 27.207V22.4902C24.3359 22.1127 24.0298 21.8066 23.6523 21.8066Z" fill="black"/>
<path d="M25.0643 0H23.3342C17.8556 0 13.3984 4.45717 13.3984 9.93576C13.3984 15.4144 17.8556 19.8715 23.3341 19.8715H25.0642C25.9193 19.8715 26.7657 19.7628 27.586 19.5482L30.1418 22.1025C30.2725 22.2331 30.4473 22.3026 30.6251 22.3026C30.7133 22.3026 30.8021 22.2856 30.8867 22.2505C31.1421 22.1447 31.3086 21.8954 31.3086 21.619V17.664C32.3907 16.7877 33.2895 15.6808 33.9203 14.4441C34.6368 13.0396 35 11.5228 35 9.93576C35 4.45717 30.5428 0 25.0643 0ZM30.2137 16.7846C30.0423 16.9137 29.9414 17.116 29.9414 17.3307V19.9693L28.2686 18.2974C28.1384 18.1674 27.9638 18.0973 27.7853 18.0973C27.7183 18.0973 27.6506 18.1072 27.5846 18.1275C26.7709 18.3776 25.923 18.5043 25.0643 18.5043H23.3342C18.6094 18.5043 14.7656 14.6605 14.7656 9.93576C14.7656 5.21103 18.6095 1.36719 23.3342 1.36719H25.0643C29.789 1.36719 33.6328 5.21103 33.6328 9.93576C33.6328 12.6517 32.3866 15.1481 30.2137 16.7846Z" fill="black"/>
<path d="M27.2778 7.47954C27.1792 6.04844 26.0255 4.8948 24.5944 4.79616C23.7831 4.74045 23.0088 5.01409 22.4162 5.56732C21.8317 6.1129 21.4966 6.88413 21.4966 7.68332C21.4966 8.06087 21.8027 8.36691 22.1802 8.36691C22.5577 8.36691 22.8638 8.06087 22.8638 7.68332C22.8638 7.25546 23.0362 6.85891 23.3491 6.56681C23.6618 6.27498 24.0704 6.13054 24.5004 6.1602C25.2543 6.21216 25.8619 6.8198 25.9139 7.5736C25.9664 8.33492 25.4669 9.00771 24.7263 9.17342C24.1262 9.30767 23.7072 9.82912 23.7072 10.4414V12.0837C23.7072 12.4613 24.0133 12.7673 24.3908 12.7673C24.7683 12.7673 25.0744 12.4613 25.0743 12.0837V10.496C26.4517 10.1633 27.3759 8.90285 27.2778 7.47954Z" fill="black"/>
<path d="M24.8739 14.3048C24.7468 14.1776 24.5704 14.1045 24.3906 14.1045C24.2108 14.1045 24.0345 14.1776 23.9073 14.3048C23.7802 14.4319 23.707 14.6083 23.707 14.7881C23.707 14.9686 23.7802 15.1449 23.9073 15.2721C24.0345 15.3992 24.2108 15.4717 24.3906 15.4717C24.5704 15.4717 24.7468 15.3992 24.8739 15.2721C25.0011 15.1442 25.0742 14.9686 25.0742 14.7881C25.0742 14.6083 25.001 14.4319 24.8739 14.3048Z" fill="black"/>
<path d="M18.7988 21.1914H4.375C3.99752 21.1914 3.69141 21.4975 3.69141 21.875C3.69141 22.2525 3.99752 22.5586 4.375 22.5586H18.7988C19.1764 22.5586 19.4824 22.2525 19.4824 21.875C19.4824 21.4975 19.1763 21.1914 18.7988 21.1914Z" fill="black"/>
<path d="M19.2821 25.2198C19.155 25.0927 18.9786 25.0195 18.7988 25.0195C18.619 25.0195 18.4427 25.0927 18.3155 25.2198C18.1883 25.347 18.1152 25.5233 18.1152 25.7031C18.1152 25.8829 18.1884 26.0593 18.3155 26.1864C18.4427 26.3136 18.619 26.3867 18.7988 26.3867C18.9786 26.3867 19.155 26.3136 19.2821 26.1864C19.4093 26.0593 19.4824 25.8836 19.4824 25.7031C19.4824 25.5233 19.4092 25.347 19.2821 25.2198Z" fill="black"/>
<path d="M16.1101 25.0195H4.375C3.99752 25.0195 3.69141 25.3256 3.69141 25.7031C3.69141 26.0807 3.99752 26.3867 4.375 26.3867H16.1101C16.4876 26.3867 16.7936 26.0807 16.7936 25.7031C16.7936 25.3256 16.4875 25.0195 16.1101 25.0195Z" fill="black"/>
<path d="M14.3555 17.3633H4.375C3.99752 17.3633 3.69141 17.6693 3.69141 18.0469C3.69141 18.4244 3.99752 18.7305 4.375 18.7305H14.3555C14.733 18.7305 15.0391 18.4244 15.0391 18.0469C15.0391 17.6693 14.7329 17.3633 14.3555 17.3633Z" fill="black"/>
</svg>
