<svg width="140" height="58" viewBox="0 0 140 58" fill="none" xmlns="http://www.w3.org/2000/svg">
<mask id="mask0_7_34882" style="mask-type:alpha" maskUnits="userSpaceOnUse" x="0" y="0" width="140" height="58">
<path fill-rule="evenodd" clip-rule="evenodd" d="M11.5127 3.1911C5.30219 5.075 0.131987 6.70548 0.0232884 6.81451C-0.210781 7.04825 1.37402 18.9144 2.33564 24.132C4.09683 33.6845 8.57849 42.9819 15.1551 50.7265C17.5071 53.4963 22.2735 58 22.8524 58C23.3969 58 28.8548 52.7374 31.0681 50.0787C36.5534 43.4887 40.587 35.6634 42.6736 27.563C43.2611 25.2826 46.0826 6.96822 45.8759 6.77717C45.8402 6.74382 41.0094 5.27139 35.141 3.5042C29.2726 1.73734 24.0961 0.173544 23.6376 0.0288344C23.0124 -0.168557 19.9812 0.62201 11.5127 3.1911ZM31.9921 7.48171C36.6581 8.89413 40.5086 10.0805 40.5486 10.1182C40.721 10.2805 38.6427 23.7799 38.1246 25.8632C36.8599 30.949 34.6966 36.1039 31.8357 40.8479L30.6414 42.8288L30.6534 32.6592L30.6654 22.4895L31.7363 21.8173C32.7316 21.1924 32.814 20.999 32.9064 19.0665L33.0054 16.9879H31.656C30.4293 16.9879 30.3063 17.0659 30.3063 17.8434C30.3063 18.5803 30.1789 18.6847 29.3893 18.5937C28.7328 18.5183 28.442 18.2752 28.3657 17.7381C28.279 17.1266 28.0479 16.9879 27.1153 16.9879C26.1093 16.9879 25.9716 17.0912 25.9716 17.8448C25.9716 18.5423 25.8323 18.6817 25.2214 18.595C24.6462 18.5133 24.4469 18.2352 24.3668 17.4046C24.3001 16.7158 24.0821 16.321 23.7673 16.321C23.3722 16.321 23.2925 15.9035 23.3715 14.25L23.4709 12.1791L26.0967 11.7743C29.0606 11.3175 29.9378 10.8214 28.4374 10.4516C27.9065 10.3209 26.6282 9.78739 25.5969 9.26624C22.599 7.75112 22.6373 7.71344 22.6373 12.1844C22.6373 15.7325 22.584 16.0639 21.9891 16.2196C21.5527 16.3337 21.3076 16.7321 21.2389 17.4387C21.1615 18.2349 20.9558 18.514 20.3867 18.595C19.7758 18.6817 19.6364 18.5423 19.6364 17.8448C19.6364 17.0912 19.4987 16.9879 18.4928 16.9879C17.5601 16.9879 17.3291 17.1266 17.2424 17.7381C17.166 18.2752 16.8753 18.5183 16.2188 18.5937C15.4292 18.6847 15.3018 18.5803 15.3018 17.8434C15.3018 17.0879 15.1654 16.9879 14.1348 16.9879H12.9678V19.1362C12.9678 21.1698 13.0211 21.3165 13.9681 21.8756L14.9684 22.4665L14.961 32.4811C14.9524 44.1309 15.1571 43.8618 11.6547 36.8271C9.63814 32.7762 8.34575 29.2665 7.41914 25.3237C6.98668 23.4834 4.96342 10.2599 5.08946 10.0975C5.25917 9.87842 22.8797 4.71322 23.1561 4.80125C23.3499 4.86327 27.326 6.06929 31.9921 7.48171ZM55.6894 11.7083C52.4418 13.3158 52.027 18.2862 54.9365 20.7343C56.2203 21.8146 58.5443 22.2257 60.3345 21.6896C61.7952 21.2518 62.0753 20.9527 61.7702 20.1571C61.5972 19.7067 61.3224 19.6476 60.3518 19.852C58.2379 20.2972 57.2136 20.0841 56.2306 18.9945C54.265 16.8148 55.5731 12.9973 58.3145 12.9133C58.9564 12.8936 59.948 12.9917 60.5179 13.131C61.4108 13.3494 61.5805 13.2841 61.7442 12.6582C61.8983 12.0691 61.7206 11.843 60.802 11.4592C59.1895 10.7854 57.3756 10.8737 55.6894 11.7083ZM63.8719 11.2085C63.7495 11.3305 63.6495 13.7312 63.6495 16.5434V21.6559H64.8165H65.9835V19.6553C65.9835 17.9705 66.0755 17.6554 66.567 17.6597C67.5403 17.6684 67.9767 18.1322 68.6259 19.8484C69.1961 21.3558 69.3448 21.4975 70.4525 21.5929L71.6582 21.6966L70.9736 19.9604C70.5975 19.0055 70.1447 17.9538 69.968 17.6237C69.7203 17.1606 69.8383 16.8311 70.4825 16.187C71.9893 14.6802 71.4784 12.2978 69.4685 11.4579C68.3245 10.9801 64.2803 10.7997 63.8719 11.2085ZM71.8799 11.2362C71.8002 11.3739 72.5418 12.911 73.5274 14.6522C75.1205 17.466 75.3196 18.0312 75.3196 19.737V21.6559H76.4866H77.6536V19.4989C77.6536 17.509 77.783 17.1229 79.3208 14.5191C80.2377 12.9667 80.9879 11.5272 80.9879 11.3202C80.9879 11.0964 80.5485 10.9861 79.9043 11.0484C78.9467 11.1408 78.6882 11.4032 77.6816 13.3071C76.8217 14.9336 76.4703 15.3417 76.2469 14.9743C76.0838 14.7062 75.5056 13.6995 74.9615 12.7366C74.1216 11.2502 73.8255 10.9861 72.9986 10.9861C72.4627 10.9861 71.9596 11.0984 71.8799 11.2362ZM82.7384 11.2068C82.4304 11.3312 82.3217 12.7153 82.3217 16.5154V21.6559H83.4887H84.6557V19.822V17.9882H86.3175C87.6622 17.9882 88.1767 17.8118 89.013 17.0649C89.8952 16.2763 90.0463 15.9089 90.0463 14.5485C90.0463 12.7456 89.6262 12.0791 88.084 11.4345C87.0541 11.0041 83.605 10.857 82.7384 11.2068ZM90.9909 11.976C90.9909 12.9517 91.0432 12.9867 92.4913 12.9867H93.9918V17.3213V21.6559H95.1588H96.3258V17.3403V13.025L97.7429 12.9223C99.0049 12.8313 99.16 12.7286 99.16 11.9864V11.1528L95.0754 11.0591L90.9909 10.9654V11.976ZM102.431 11.6166C98.7512 13.3361 98.7285 19.4996 102.395 21.2745C104.286 22.1897 105.817 22.1794 107.65 21.2391C109.448 20.3175 110.33 18.7721 110.33 16.5434C110.33 13.3144 108.55 11.2908 105.526 11.0811C104.338 10.9987 103.408 11.1595 102.431 11.6166ZM68.1291 12.9783C68.784 13.2274 68.9844 13.5372 68.9844 14.3004C68.9844 15.4044 68.2428 15.9876 66.8391 15.9876C66.0348 15.9876 65.9835 15.8879 65.9835 14.3204C65.9835 12.4999 66.3189 12.2901 68.1291 12.9783ZM87.2488 13.1724C88.7956 14.2554 87.8443 16.321 85.799 16.321H84.6557V14.4871C84.6557 12.7043 84.6817 12.6532 85.5816 12.6532C86.0911 12.6532 86.8413 12.887 87.2488 13.1724ZM106.907 13.5258C107.83 14.1073 108.13 15.2303 107.903 17.2446C107.696 19.0821 106.787 19.9887 105.152 19.9887C103.591 19.9887 103.039 19.7083 102.482 18.631C101.434 16.6044 102.099 13.8666 103.82 13.1214C104.891 12.6579 105.698 12.7636 106.907 13.5258ZM57.1339 29.6183C54.4447 30.8396 53.1527 33.3014 53.175 37.1605C53.2047 42.3047 55.9575 44.9885 61.2104 44.9941C63.5238 44.9968 64.5157 44.5754 64.7928 43.4717C65.1276 42.138 64.5704 41.8285 61.8346 41.8285C59.8593 41.8285 59.2428 41.6998 58.6383 41.1617C56.9525 39.6609 56.5027 36.5787 57.6127 34.1343C58.3892 32.4244 59.6836 31.8246 62.004 32.0993C62.9206 32.208 63.8909 32.2124 64.1599 32.109C64.9285 31.8139 64.7635 30.1091 63.9085 29.5106C62.8419 28.7633 58.877 28.8264 57.1339 29.6183ZM68.5079 29.5152C68.0654 29.958 67.9841 31.1124 67.9841 36.9508C67.9841 41.8819 68.0988 43.9772 68.3842 44.2626C68.6043 44.4827 69.3995 44.6627 70.1514 44.6627C70.9033 44.6627 71.6985 44.4827 71.9186 44.2626C72.204 43.9772 72.3187 41.8809 72.3187 36.9461C72.3187 30.1768 72.303 30.0184 71.5775 29.5106C70.6255 28.8434 69.1774 28.8457 68.5079 29.5152ZM75.51 29.5152C74.7858 30.2398 74.8508 31.5628 75.631 31.9806C75.9858 32.1704 76.886 32.3257 77.6316 32.3257H78.9873V38.1201C78.9873 44.6764 79.0217 44.7694 81.38 44.5997L82.8218 44.496L82.9128 38.4109L83.0035 32.3257H84.5967C85.4726 32.3257 86.3695 32.1457 86.5896 31.9256C87.2234 31.2918 87.0757 29.7276 86.3448 29.3365C85.9854 29.1441 83.5607 28.9914 80.8669 28.9914C76.9181 28.9914 75.9381 29.0871 75.51 29.5152ZM91.4227 29.4936C90.5628 30.0957 86.0758 43.2043 86.4212 44.1046C86.6946 44.8168 89.069 44.8698 89.7599 44.1789C90.0259 43.9128 90.3447 43.1559 90.4684 42.4971L90.6931 41.2987L92.9061 41.3971L95.1188 41.4951L95.4189 42.6621C95.5839 43.304 95.874 44.0169 96.0634 44.2459C96.5435 44.8274 99.2987 44.7904 99.5254 44.1996C99.6231 43.9445 98.7045 40.6425 97.4838 36.8614C95.1605 29.6643 94.7763 28.9914 92.9915 28.9914C92.523 28.9914 91.8168 29.2175 91.4227 29.4936ZM101.851 29.5152C101.408 29.9584 101.327 31.1177 101.327 37.0098V43.9805L102.164 44.529C102.83 44.9651 103.602 45.0488 105.939 44.9368C110.805 44.7044 113.008 42.8975 113.757 38.5252C114.297 35.3723 113.69 32.9996 111.88 31.1934C110.189 29.5039 108.602 28.9914 105.063 28.9914C103.064 28.9914 102.241 29.1258 101.851 29.5152ZM116.582 29.3515C116.055 29.6583 115.998 30.3818 115.998 36.8027C115.998 42.4631 116.093 43.9925 116.461 44.2983C116.773 44.557 118.379 44.652 121.379 44.5894L125.835 44.496L125.942 43.5591C126.125 41.9673 125.561 41.6618 122.442 41.6618H119.631L119.732 39.9113L119.833 38.1608L122.466 37.9941C124.489 37.866 125.184 37.6923 125.465 37.2439C125.731 36.8201 125.731 36.5006 125.465 36.0768C125.184 35.6284 124.489 35.4547 122.466 35.3266L119.833 35.1599L119.73 33.7428L119.628 32.3257H122.169C125.226 32.3257 126.001 31.9886 126.001 30.6586C126.001 30.0341 125.769 29.5572 125.356 29.3365C124.526 28.8924 117.349 28.9047 116.582 29.3515ZM129.559 29.4085C129.046 29.7843 128.998 30.5595 129.079 37.1608L129.169 44.496L134.078 44.5884L138.988 44.6804L139.212 43.7865C139.614 42.1873 139.065 41.8452 135.803 41.6618L132.837 41.4951L132.749 35.6601C132.673 30.6529 132.582 29.766 132.101 29.4082C131.386 28.875 130.289 28.8754 129.559 29.4085ZM108.776 32.6772C110.329 33.8985 110.754 37.6343 109.622 40.1187C109.103 41.257 107.749 41.9953 106.179 41.9953H104.995V36.9938V31.9923H106.45C107.414 31.9923 108.2 32.2237 108.776 32.6772ZM93.779 36.0622C94.0795 37.2919 94.3252 38.3795 94.3252 38.4796C94.3252 38.5793 93.725 38.6609 92.9915 38.6609C92.0112 38.6609 91.6578 38.5246 91.6578 38.1461C91.6578 37.0861 92.7591 33.2947 92.9915 33.5551C93.1242 33.7041 93.479 34.8321 93.779 36.0622Z" fill="black"/>
</mask>
<g mask="url(#mask0_7_34882)">
<rect x="-4.0011" y="-14.3375" width="51.682" height="83.6915" fill="#FCD535"/>
<rect x="50.6816" y="8.33575" width="63.6855" height="15.0044" fill="#FCD535"/>
<rect x="51.682" y="27.0079" width="90.3601" height="21.6731" fill="#FCD535"/>
</g>
</svg>
