<svg width="694" height="619" viewBox="0 0 694 619" fill="none" xmlns="http://www.w3.org/2000/svg">
  <clipPath id="svgPath">
    <g filter="url(#filter0_d_96_18489)">
      <path fill-rule="evenodd" clip-rule="evenodd" d="M334.302 14.1354C402.224 15.1475 471.971 -9.045 532.992 20.8016C599.739 53.4489 655.19 111.885 678.438 182.458C701.732 253.17 686.818 330.835 657.691 399.35C630.354 463.654 579.945 513.648 521.418 551.818C465.313 588.409 401.26 608.463 334.302 610.257C265.84 612.092 191.858 606.495 139.756 562.044C89.0485 518.784 88.5139 444.19 66.0793 381.426C42.7349 316.116 -6.2367 255.858 5.90462 187.572C18.6721 115.764 66.7711 48.8759 131.263 14.8157C192.611 -17.5839 264.932 13.1018 334.302 14.1354Z" fill="#C4C4C4"/>
    </g>
    <defs>
      <filter id="filter0_d_96_18489" x="0" y="0" width="693.891" height="618.553" filterUnits="userSpaceOnUse" color-interpolation-filters="sRGB">
        <feFlood flood-opacity="0" result="BackgroundImageFix"/>
        <feColorMatrix in="SourceAlpha" type="matrix" values="0 0 0 0 0 0 0 0 0 0 0 0 0 0 0 0 0 0 127 0" result="hardAlpha"/>
        <feOffset dy="4"/>
        <feGaussianBlur stdDeviation="2"/>
        <feComposite in2="hardAlpha" operator="out"/>
        <feColorMatrix type="matrix" values="0 0 0 0 0 0 0 0 0 0 0 0 0 0 0 0 0 0 0.25 0"/>
        <feBlend mode="normal" in2="BackgroundImageFix" result="effect1_dropShadow_96_18489"/>
        <feBlend mode="normal" in="SourceGraphic" in2="effect1_dropShadow_96_18489" result="shape"/>
      </filter>
    </defs>
  </clipPath>
</svg>
