<svg width="48" height="48" viewBox="0 0 48 48" fill="none" xmlns="http://www.w3.org/2000/svg">
<path d="M47.2819 29.8057C44.0762 42.663 31.0524 50.4877 18.1921 47.2815C5.33727 44.0761 -2.4883 31.0529 0.718846 18.1967C3.92317 5.33806 16.947 -2.48721 29.8032 0.718162C42.6625 3.92353 50.4876 16.9481 47.2816 29.8059L47.2818 29.8057H47.2819Z" fill="#F7931A"/>
<path d="M34.6167 20.5455C35.0944 17.3516 32.6625 15.6348 29.3371 14.4895L30.4159 10.1631L27.782 9.5069L26.7318 13.7194C26.0394 13.5467 25.3283 13.384 24.6215 13.2227L25.6793 8.9824L23.0471 8.32617L21.9677 12.6511C21.3947 12.5207 20.8319 12.3918 20.2859 12.2559L20.2889 12.2423L16.6567 11.3354L15.9561 14.1483C15.9561 14.1483 17.9102 14.5961 17.869 14.6237C18.9356 14.8899 19.1285 15.5959 19.0965 16.1554L17.8676 21.0842C17.9411 21.1028 18.0363 21.1298 18.1414 21.1721C18.0536 21.1502 17.9601 21.1264 17.863 21.1032L16.1406 28.0077C16.0103 28.3317 15.6794 28.818 14.9337 28.6333C14.9601 28.6716 13.0194 28.1556 13.0194 28.1556L11.7117 31.1703L15.1393 32.0246C15.7769 32.1845 16.4018 32.3518 17.0171 32.5091L15.9272 36.8851L18.5581 37.5413L19.6374 33.2118C20.3562 33.4069 21.0536 33.5868 21.7365 33.7565L20.6607 38.0656L23.2947 38.7218L24.3846 34.354C28.8759 35.204 32.2531 34.8613 33.6745 30.7993C34.82 27.529 33.6175 25.6426 31.2546 24.4125C32.9757 24.0157 34.272 22.8838 34.6176 20.5459L34.6168 20.5453L34.6167 20.5455ZM28.5988 28.9831C27.7848 32.2535 22.2779 30.4856 20.4925 30.0423L21.9388 24.2449C23.7241 24.6905 29.4495 25.5725 28.5989 28.9831H28.5988ZM29.4134 20.4981C28.6708 23.4729 24.0874 21.9616 22.6005 21.591L23.9119 16.333C25.3987 16.7036 30.1869 17.3953 29.4136 20.4981H29.4134Z" fill="white"/>
</svg>
