<svg width="48" height="48" viewBox="0 0 48 48" fill="none" xmlns="http://www.w3.org/2000/svg">
<circle cx="24" cy="24" r="24" fill="#3CC8C8"/>
<g clip-path="url(#clip0_65_386)">
<path d="M23.5486 7.29914C24.3507 6.88586 25.3297 7.84459 24.9036 8.63641C24.6561 9.28186 23.7177 9.4535 23.2384 8.9615C22.7305 8.48932 22.8961 7.55604 23.5486 7.29914ZM14.9218 8.21804C15.409 8.01986 16.0258 8.46095 15.9761 8.98568C16.0278 9.55532 15.3229 9.97459 14.8263 9.70386C14.1683 9.45204 14.2435 8.39659 14.9218 8.21804ZM32.5905 9.71986C31.8291 9.62895 31.7086 8.44604 32.4417 8.20786C33.0102 7.93386 33.5319 8.44768 33.6151 8.98023C33.4958 9.43495 33.1105 9.85132 32.5905 9.71986ZM16.8847 11.8462C17.6992 11.3371 18.8616 12.0953 18.7363 13.0302C18.6939 13.9742 17.4251 14.5211 16.7091 13.883C16.0169 13.3817 16.1218 12.2317 16.8847 11.8462ZM29.3196 12.3864C29.683 11.461 31.1555 11.433 31.5692 12.3339C31.978 13.035 31.4751 13.9031 30.7467 14.1415C29.7818 14.3195 28.8653 13.2888 29.3196 12.3864ZM22.5097 14.089C22.5018 13.2935 23.2351 12.7008 24.0001 12.6466C24.5076 12.7471 25.0607 12.9608 25.2784 13.4668C25.6841 14.1648 25.3238 15.1259 24.5908 15.4462C24.2555 15.6319 23.8592 15.5622 23.4941 15.5406C22.9361 15.2699 22.4661 14.739 22.5097 14.089ZM9.68033 15.248C10.4244 14.796 11.4283 15.621 11.1466 16.4197C10.9915 17.1106 10.0516 17.3917 9.51437 16.9506C8.94084 16.5373 9.03173 15.5437 9.68033 15.248ZM37.2297 15.2466C37.861 14.7622 38.9028 15.3179 38.8276 16.1055C38.8699 16.8237 37.9692 17.3653 37.3425 16.9955C36.6523 16.689 36.5819 15.6397 37.2297 15.2466ZM26.1176 16.6766C27.1594 16.3068 28.3968 16.7493 28.9906 17.6671C29.7739 18.7891 29.3571 20.4979 28.1416 21.1417C26.8821 21.9031 25.043 21.2577 24.5779 19.8679C24.0498 18.6237 24.8191 17.0666 26.1176 16.6766ZM20.0051 16.799C21.1597 16.2604 22.7136 16.7122 23.2713 17.8793C23.9276 19.0153 23.4202 20.5971 22.2468 21.1837C21.072 21.843 19.4145 21.3431 18.8459 20.1235C18.2084 18.944 18.7745 17.342 20.0051 16.799ZM13.8847 18.8666C13.9725 18.1315 14.6743 17.6531 15.3823 17.6037C16.1452 17.6946 16.7546 18.28 16.8376 19.043C16.7875 19.7982 16.1969 20.5364 15.3869 20.5319C14.4958 20.6077 13.7145 19.7317 13.8847 18.8666ZM31.9624 17.7635C32.8772 17.2373 34.1476 18.0033 34.1069 19.0419C34.1696 20.1422 32.7637 20.9177 31.8527 20.2722C30.9064 19.7348 30.9802 18.2211 31.9624 17.7635ZM17.5176 21.6417C18.5876 21.3508 19.811 21.8491 20.3358 22.821C20.9106 23.7991 20.6756 25.158 19.7829 25.8755C18.6378 26.9279 16.5261 26.5053 15.9166 25.0691C15.2163 23.7526 16.067 21.9882 17.5176 21.6417ZM29.1113 21.6362C30.1514 21.3422 31.3734 21.7384 31.9326 22.6748C32.6719 23.7457 32.319 25.343 31.2183 26.0333C30.0653 26.835 28.2794 26.414 27.645 25.1606C26.8759 23.864 27.6498 22.0317 29.1113 21.6362ZM10.6358 22.858C11.5601 22.5126 12.5846 23.5204 12.2101 24.4259C11.9814 25.2508 10.8049 25.5557 10.1972 24.9475C9.48603 24.3764 9.74933 23.1057 10.6358 22.858ZM35.6874 24.172C35.6608 23.4153 36.221 22.7451 37.0064 22.7033C37.6393 22.8024 38.2548 23.307 38.2048 23.9879C38.2627 24.8871 37.1661 25.4984 36.3907 25.0759C36.0273 24.8933 35.8409 24.525 35.6874 24.172ZM6.09141 23.3022C6.64746 23.0624 7.33525 23.5386 7.20829 24.1488C7.17849 24.8397 6.14625 25.1053 5.76702 24.528C5.43196 24.1271 5.63252 23.509 6.09141 23.3022ZM41.1513 23.2884C41.5429 23.013 42.1711 23.211 42.3262 23.663C42.5893 24.1566 42.1068 24.833 41.5445 24.7495C40.7552 24.8206 40.4998 23.6319 41.1513 23.2884ZM20.5378 26.605C22.001 26.229 23.5738 27.4346 23.583 28.9233C23.6785 30.4277 22.1294 31.7617 20.6316 31.4142C19.4739 31.23 18.5655 30.128 18.603 28.972C18.5999 27.8664 19.4443 26.8388 20.5378 26.605ZM26.3323 26.6019C27.8174 26.1917 29.4371 27.419 29.4136 28.942C29.492 30.4186 27.9913 31.7077 26.5248 31.4148C25.1448 31.2384 24.1265 29.7402 24.5118 28.417C24.7063 27.5351 25.4519 26.818 26.3323 26.6019ZM15.16 27.5182C16.1877 27.345 17.1511 28.4779 16.7343 29.442C16.4304 30.4695 14.9172 30.7482 14.2481 29.909C13.4634 29.103 14.0492 27.6295 15.16 27.5182ZM32.1534 27.5635C33.0697 27.1842 34.1945 27.9675 34.124 28.9502C34.1608 30.032 32.7722 30.778 31.8761 30.1466C30.8611 29.5797 31.0459 27.9113 32.1534 27.5635ZM36.9031 32.2711C36.5443 31.6102 37.1961 30.7342 37.9387 30.8566C38.3083 30.8504 38.5669 31.1382 38.8035 31.3797C38.8521 31.7713 38.9336 32.2386 38.6046 32.5404C38.1578 33.0991 37.1458 32.9397 36.9031 32.2711ZM9.67721 31.0406C10.3713 30.584 11.37 31.265 11.214 32.0668C11.131 32.7759 10.227 33.1811 9.63157 32.7788C8.99254 32.4135 9.01609 31.3735 9.67721 31.0406ZM23.3889 32.525C24.2975 32.1288 25.455 32.9104 25.3689 33.8993C25.4363 34.992 24.0046 35.7488 23.1162 35.0926C22.1294 34.5291 22.2939 32.8715 23.3889 32.525ZM17.0381 33.989C17.812 33.5866 18.8505 34.2815 18.7801 35.1373C18.8036 35.84 18.1096 36.439 17.4078 36.3351C16.8265 36.3228 16.4475 35.8079 16.2611 35.3182C16.2707 34.7846 16.4929 34.1902 17.0381 33.989ZM29.9023 34.0013C30.6981 33.5153 31.8292 34.2133 31.7539 35.1286C31.7743 36.0851 30.4961 36.6979 29.7551 36.0695C29.0377 35.577 29.1253 34.393 29.9023 34.0013ZM32.1394 39.4662C31.7854 38.937 32.2021 38.2993 32.7769 38.1786C33.2391 38.2715 33.7278 38.615 33.6307 39.1444C33.5634 39.861 32.5028 40.0808 32.1394 39.4662ZM14.3813 39.0066C14.5223 38.5871 14.8638 38.1702 15.3635 38.2793C16.092 38.3304 16.3082 39.4153 15.6706 39.7497C15.0973 40.1317 14.4321 39.6086 14.3813 39.0066ZM22.9486 39.4879C23.088 38.8673 23.901 38.5655 24.4368 38.8951C24.7908 39.0453 24.8942 39.4368 24.9851 39.7695C24.9365 39.9428 24.8931 40.1162 24.8504 40.2895C24.6311 40.5464 24.3492 40.8033 23.9841 40.794C23.3057 40.8726 22.6937 40.1148 22.9486 39.4879Z" fill="white"/>
</g>
<defs>
<clipPath id="clip0_65_386">
<rect width="36.8" height="33.6" fill="white" transform="translate(5.6001 7.19995)"/>
</clipPath>
</defs>
</svg>
