<svg width="48" height="48" viewBox="0 0 48 48" fill="none" xmlns="http://www.w3.org/2000/svg">
<g clip-path="url(#clip0_65_381)">
<path d="M24 48C37.2548 48 48 37.2548 48 24C48 10.7452 37.2548 0 24 0C10.7452 0 0 10.7452 0 24C0 37.2548 10.7452 48 24 48Z" fill="#2573C2"/>
<path d="M39.6626 17.6832C39.6304 17.1454 39.4726 16.6226 39.2018 16.1568C38.9618 15.6768 38.5346 15.3024 38.0354 15.1104C37.5263 14.8567 36.9623 14.733 36.3938 14.7504H15.0914L13.565 19.3248H32.8658L29.8178 28.6751H10.5218L8.99536 33.2495H30.3986C31.0363 33.2311 31.6669 33.1095 32.2658 32.8895C32.8658 32.5487 33.5522 32.2031 34.133 31.7231C34.7 31.2761 35.2124 30.7638 35.6594 30.1967C36.0289 29.6412 36.344 29.0512 36.6002 28.4352L39.4274 19.5456C39.6846 18.9607 39.7663 18.3137 39.6626 17.6832Z" fill="white"/>
<path d="M21.173 21.8784H9.81619L8.28979 26.1073H19.7618L21.173 21.8784Z" fill="white"/>
</g>
<defs>
<clipPath id="clip0_65_381">
<rect width="48" height="48" fill="white"/>
</clipPath>
</defs>
</svg>
