<svg width="48" height="48" viewBox="0 0 48 48" fill="none" xmlns="http://www.w3.org/2000/svg">
<g clip-path="url(#clip0_65_370)">
<path d="M24.0001 45.4025C35.8203 45.4025 45.4025 35.8203 45.4025 24.0001C45.4025 12.1798 35.8203 2.59766 24.0001 2.59766C12.1798 2.59766 2.59766 12.1798 2.59766 24.0001C2.59766 35.8203 12.1798 45.4025 24.0001 45.4025Z" fill="white"/>
<path d="M24 0C19.2533 0 14.6131 1.40758 10.6663 4.04473C6.71955 6.68188 3.64341 10.4302 1.8269 14.8156C0.0103987 19.201 -0.464881 24.0266 0.461164 28.6822C1.38721 33.3377 3.67299 37.6141 7.02945 40.9706C10.3859 44.327 14.6623 46.6128 19.3178 47.5388C23.9734 48.4649 28.799 47.9896 33.1844 46.1731C37.5698 44.3566 41.3181 41.2805 43.9553 37.3337C46.5924 33.3869 48 28.7468 48 24C48.0092 20.8574 47.3993 17.7438 46.2051 14.837C45.011 11.9301 43.256 9.2869 41.0403 7.05829C38.8247 4.82968 36.1918 3.05931 33.2919 1.84824C30.392 0.637178 27.2821 0.00914422 24.1395 0H24ZM24.4068 24.8136L21.908 33.2397H35.2736C35.3622 33.2366 35.4504 33.251 35.5334 33.282C35.6164 33.3131 35.6924 33.3601 35.7572 33.4206C35.822 33.481 35.8742 33.5537 35.9109 33.6343C35.9475 33.7149 35.968 33.802 35.971 33.8906V34.1114L34.8087 38.1211C34.7575 38.3107 34.6433 38.4772 34.4849 38.5934C34.3265 38.7096 34.1333 38.7684 33.9371 38.7603H13.4819L16.9104 27.0799L13.0751 28.2421L13.9467 25.569L17.7821 24.4068L22.6053 8.01937C22.6584 7.83081 22.7731 7.66545 22.9311 7.5496C23.089 7.43376 23.2812 7.37411 23.477 7.38015H28.6489C28.7375 7.37704 28.8257 7.39142 28.9087 7.42245C28.9917 7.45349 29.0677 7.50058 29.1325 7.56102C29.1973 7.62147 29.2495 7.69409 29.2862 7.77473C29.3228 7.85537 29.3433 7.94245 29.3463 8.03099V8.25182L25.2785 22.0823L29.1138 20.9201L28.3003 23.7094L24.4068 24.8136Z" fill="#345D9D"/>
</g>
<defs>
<clipPath id="clip0_65_370">
<rect width="48" height="48" fill="white"/>
</clipPath>
</defs>
</svg>
