<svg width="48" height="48" viewBox="0 0 48 48" fill="none" xmlns="http://www.w3.org/2000/svg">
<g clip-path="url(#clip0_65_373)">
<path d="M47.9993 23.9976C47.9993 37.2507 37.2553 47.9951 23.9999 47.9951C10.7445 47.9951 0.000488281 37.2507 0.000488281 23.9976C0.000488281 10.7445 10.7448 0 23.9999 0C37.2551 0 47.9993 10.7435 47.9993 23.9976Z" fill="white"/>
<path d="M23.9998 0C10.7491 0 -0.0139191 10.7597 0.00294949 23.9969C0.00627209 26.6452 0.428626 29.1927 1.22132 31.5757H8.40173V11.3883L23.9998 26.9846L39.5971 11.3883V31.5761H46.7791C47.5729 29.1933 47.9931 26.6457 47.9978 23.9973C48.0205 10.7463 37.2519 0.00319447 23.9998 0.00319447V0Z" fill="#F26822"/>
<path d="M20.4129 30.5701L13.6058 23.7633V36.4663H8.40141L3.49048 36.4672C7.7029 43.3775 15.3158 48 24 48C32.6843 48 40.2975 43.3765 44.5107 36.4662H34.3927V23.7633L27.5852 30.5701L23.9993 34.1557L20.4131 30.5701H20.4129Z" fill="#4D4D4D"/>
</g>
<defs>
<clipPath id="clip0_65_373">
<rect width="48" height="48" fill="white"/>
</clipPath>
</defs>
</svg>
