<svg width="48" height="48" viewBox="0 0 48 48" fill="none" xmlns="http://www.w3.org/2000/svg">
<g clip-path="url(#clip0_65_362)">
<path d="M24.0012 47.918C37.2101 47.918 47.918 37.2101 47.918 24.0012C47.918 10.7923 37.2101 0.0843506 24.0012 0.0843506C10.7923 0.0843506 0.0843506 10.7923 0.0843506 24.0012C0.0843506 37.2101 10.7923 47.918 24.0012 47.918Z" fill="#50AF95"/>
<path fill-rule="evenodd" clip-rule="evenodd" d="M25.9788 25.6851C25.8458 25.6951 25.159 25.7362 23.627 25.7362C22.4085 25.7362 21.5434 25.6995 21.2399 25.6851C16.5309 25.4774 13.016 24.6553 13.016 23.6711C13.016 22.6869 16.5309 21.866 21.2399 21.6549V24.8664C21.5478 24.8886 22.4296 24.9408 23.6481 24.9408C25.1103 24.9408 25.8425 24.8797 25.9743 24.8675V21.6572C30.6734 21.8671 34.1805 22.6891 34.1805 23.6711C34.1805 24.6531 30.6745 25.4752 25.9743 25.684L25.9788 25.6851ZM25.9788 21.325V18.4513H32.5366V14.069H14.682V18.4513H21.2387V21.3239C15.9094 21.5694 11.9016 22.6281 11.9016 23.8966C11.9016 25.1652 15.9094 26.2228 21.2387 26.4694V35.6783H25.9777V26.466C31.2948 26.2205 35.296 25.163 35.296 23.8955C35.296 22.6281 31.2981 21.5705 25.9777 21.3239L25.9788 21.325Z" fill="white"/>
</g>
<defs>
<clipPath id="clip0_65_362">
<rect width="48" height="48" fill="white"/>
</clipPath>
</defs>
</svg>
