<svg width="48" height="48" viewBox="0 0 48 48" fill="none" xmlns="http://www.w3.org/2000/svg">
<g clip-path="url(#clip0_65_367)">
<path d="M24 48C37.2548 48 48 37.2548 48 24C48 10.7452 37.2548 0 24 0C10.7452 0 0 10.7452 0 24C0 37.2548 10.7452 48 24 48Z" fill="black"/>
<path d="M34.9517 10.5571H39.4302L30.1078 20.2229C26.7325 23.7224 21.2603 23.7224 17.8923 20.2229L8.56992 10.5571H13.0485L20.1279 17.8996C22.2686 20.1133 25.7316 20.1133 27.8649 17.8996L34.9517 10.5571ZM12.99 37.443H8.51147L17.8923 27.7115C21.2676 24.2119 26.7398 24.2119 30.1151 27.7115L39.4959 37.443H35.0174L27.8795 30.0348C25.7389 27.8211 22.2759 27.8211 20.1425 30.0348L12.99 37.443Z" fill="white"/>
</g>
<defs>
<clipPath id="clip0_65_367">
<rect width="48" height="48" fill="white"/>
</clipPath>
</defs>
</svg>
