<svg width="48" height="48" viewBox="0 0 48 48" fill="none" xmlns="http://www.w3.org/2000/svg">
<g clip-path="url(#clip0_65_377)">
<path d="M24.0013 47.918C37.2102 47.918 47.9182 37.2101 47.9182 24.0012C47.9182 10.7923 37.2102 0.0843506 24.0013 0.0843506C10.7924 0.0843506 0.0844727 10.7923 0.0844727 24.0012C0.0844727 37.2101 10.7924 47.918 24.0013 47.918Z" fill="url(#paint0_linear_65_377)"/>
<path d="M23.1192 29.2646H31.8148V33.7797H26.6842V37.6H22.2223V33.8981H16.8713C16.8713 32.3904 16.6509 30.8907 16.9853 29.5015C17.0993 28.8068 17.8746 28.1121 18.437 27.4176C20.1093 25.3338 21.7815 23.2499 23.5678 21.1661C24.2365 20.353 24.9055 19.6583 25.6884 18.735H17.3274V14.2198H22.2299V10.4H26.5778V14.101H31.9288C31.9288 15.6085 32.1492 17.1084 31.8148 18.4976C31.7008 19.1922 30.9255 19.8867 30.3629 20.5814C28.6908 22.6653 27.0186 24.7491 25.2323 26.833C24.5632 27.6465 23.8946 28.4516 23.1192 29.2646Z" fill="black"/>
</g>
<defs>
<linearGradient id="paint0_linear_65_377" x1="7.57967" y1="40.4017" x2="40.5962" y2="7.3851" gradientUnits="userSpaceOnUse">
<stop stop-color="#CF8724"/>
<stop offset="1" stop-color="#FDCE58"/>
</linearGradient>
<clipPath id="clip0_65_377">
<rect width="48" height="48" fill="white"/>
</clipPath>
</defs>
</svg>
