<svg width="80" height="80" viewBox="0 0 80 80" fill="none" xmlns="http://www.w3.org/2000/svg">
<g clip-path="url(#clip0_102_149)">
<path opacity="0.65" d="M40 80C62.0914 80 80 62.0914 80 40C80 17.9086 62.0914 0 40 0C17.9086 0 0 17.9086 0 40C0 62.0914 17.9086 80 40 80Z" fill="url(#paint0_radial_102_149)"/>
<path d="M39.9998 73.0338C58.244 73.0338 73.0338 58.244 73.0338 39.9998C73.0338 21.7556 58.244 6.96582 39.9998 6.96582C21.7556 6.96582 6.96582 21.7556 6.96582 39.9998C6.96582 58.244 21.7556 73.0338 39.9998 73.0338Z" fill="url(#paint1_radial_102_149)"/>
<path d="M41.0883 66.0682C55.4853 66.0682 67.1564 54.3971 67.1564 40.0001C67.1564 25.6032 55.4853 13.9321 41.0883 13.9321C26.6913 13.9321 15.0203 25.6032 15.0203 40.0001C15.0203 54.3971 26.6913 66.0682 41.0883 66.0682Z" fill="url(#paint2_linear_102_149)"/>
<path d="M38.9115 66.0682C53.3085 66.0682 64.9796 54.3971 64.9796 40.0001C64.9796 25.6032 53.3085 13.9321 38.9115 13.9321C24.5146 13.9321 12.8435 25.6032 12.8435 40.0001C12.8435 54.3971 24.5146 66.0682 38.9115 66.0682Z" fill="url(#paint3_linear_102_149)"/>
<path d="M38.9115 61.9323C51.0242 61.9323 60.8435 52.113 60.8435 40.0003C60.8435 27.8876 51.0242 18.0684 38.9115 18.0684C26.7988 18.0684 16.9795 27.8876 16.9795 40.0003C16.9795 52.113 26.7988 61.9323 38.9115 61.9323Z" fill="url(#paint4_linear_102_149)"/>
<path d="M38.9115 61.9323C51.0242 61.9323 60.8435 52.113 60.8435 40.0003C60.8435 27.8876 51.0242 18.0684 38.9115 18.0684C26.7988 18.0684 16.9795 27.8876 16.9795 40.0003C16.9795 52.113 26.7988 61.9323 38.9115 61.9323Z" stroke="#FBD436" stroke-width="4" stroke-miterlimit="10"/>
<g clip-path="url(#clip1_102_149)">
<path d="M39.6153 28.1586L34.1609 33.613C33.9321 33.809 33.9054 34.1533 34.1014 34.3821C34.2973 34.6109 34.6417 34.6376 34.8705 34.4416C34.8918 34.4233 34.9117 34.4034 34.9299 34.3821L39.4571 29.8604V51.4546C39.4571 51.7558 39.7014 52 40.0026 52C40.3039 52 40.5481 51.7558 40.5481 51.4546V29.8604L45.0698 34.3821C45.2657 34.6109 45.61 34.6376 45.8388 34.4416C46.0676 34.2456 46.0943 33.9013 45.8983 33.6725C45.88 33.6512 45.8602 33.6313 45.8388 33.613L40.3844 28.1586C40.1717 27.9471 39.8281 27.9471 39.6153 28.1586Z" fill="black"/>
</g>
</g>
<defs>
<radialGradient id="paint0_radial_102_149" cx="0" cy="0" r="1" gradientUnits="userSpaceOnUse" gradientTransform="translate(40.0038 40.0038) scale(49.7032)">
<stop stop-color="#FBD436"/>
<stop offset="0.995" stop-color="#FBD436" stop-opacity="0"/>
</radialGradient>
<radialGradient id="paint1_radial_102_149" cx="0" cy="0" r="1" gradientUnits="userSpaceOnUse" gradientTransform="translate(40.0036 40.0036) scale(47.1539)">
<stop stop-color="#FCD537"/>
<stop offset="0.995" stop-color="#FCD537" stop-opacity="0"/>
</radialGradient>
<linearGradient id="paint2_linear_102_149" x1="49.2946" y1="40.004" x2="95.7767" y2="40.004" gradientUnits="userSpaceOnUse">
<stop stop-color="#FCD637"/>
<stop offset="0.995" stop-color="#FBD537" stop-opacity="0"/>
</linearGradient>
<linearGradient id="paint3_linear_102_149" x1="58.4713" y1="59.5376" x2="17.9347" y2="19.001" gradientUnits="userSpaceOnUse">
<stop stop-color="#FBD435"/>
<stop offset="0.995" stop-color="#FBD537" stop-opacity="0"/>
</linearGradient>
<linearGradient id="paint4_linear_102_149" x1="26.2448" y1="29.1108" x2="57.0502" y2="55.5491" gradientUnits="userSpaceOnUse">
<stop stop-color="#FCD537"/>
<stop offset="1" stop-color="#FBD537" stop-opacity="0"/>
</linearGradient>
<clipPath id="clip0_102_149">
<rect width="80" height="80" fill="white"/>
</clipPath>
<clipPath id="clip1_102_149">
<rect width="24" height="24" fill="white" transform="translate(28 52) rotate(-90)"/>
</clipPath>
</defs>
</svg>
