<svg width="64" height="64" viewBox="0 0 64 64" fill="none" xmlns="http://www.w3.org/2000/svg">
<g clip-path="url(#clip0_7_16566)">
<path opacity="0.65" d="M32 64.0002C49.6731 64.0002 64 49.6734 64 32.0002C64 14.3271 49.6731 0.000244141 32 0.000244141C14.3269 0.000244141 0 14.3271 0 32.0002C0 49.6734 14.3269 64.0002 32 64.0002Z" fill="url(#paint0_radial_7_16566)"/>
<path d="M32 58.4274C46.5953 58.4274 58.4272 46.5956 58.4272 32.0002C58.4272 17.4049 46.5953 5.573 32 5.573C17.4046 5.573 5.57275 17.4049 5.57275 32.0002C5.57275 46.5956 17.4046 58.4274 32 58.4274Z" fill="url(#paint1_radial_7_16566)"/>
<path d="M32.8708 52.8546C44.3884 52.8546 53.7252 43.5178 53.7252 32.0002C53.7252 20.4826 44.3884 11.1458 32.8708 11.1458C21.3532 11.1458 12.0164 20.4826 12.0164 32.0002C12.0164 43.5178 21.3532 52.8546 32.8708 52.8546Z" fill="url(#paint2_linear_7_16566)"/>
<path d="M31.1293 52.8546C42.6469 52.8546 51.9837 43.5178 51.9837 32.0002C51.9837 20.4826 42.6469 11.1458 31.1293 11.1458C19.6117 11.1458 10.2749 20.4826 10.2749 32.0002C10.2749 43.5178 19.6117 52.8546 31.1293 52.8546Z" fill="url(#paint3_linear_7_16566)"/>
<path d="M31.1293 49.5457C40.8195 49.5457 48.6749 41.6903 48.6749 32.0002C48.6749 22.31 40.8195 14.4546 31.1293 14.4546C21.4392 14.4546 13.5837 22.31 13.5837 32.0002C13.5837 41.6903 21.4392 49.5457 31.1293 49.5457Z" fill="url(#paint4_linear_7_16566)"/>
<path d="M31.1293 49.5457C40.8195 49.5457 48.6749 41.6903 48.6749 32.0002C48.6749 22.31 40.8195 14.4546 31.1293 14.4546C21.4392 14.4546 13.5837 22.31 13.5837 32.0002C13.5837 41.6903 21.4392 49.5457 31.1293 49.5457Z" stroke="#FCD535" stroke-width="4" stroke-miterlimit="10"/>
<g clip-path="url(#clip1_7_16566)">
<g filter="url(#filter0_d_7_16566)">
<path d="M38.5 29.1377C38.5024 29.1197 38.5024 29.1015 38.5 29.0835C38.5 25.6377 35.5333 22.8335 31.8875 22.8335H30.1167C26.4667 22.8335 23.5 25.6377 23.5 29.0835C23.4976 29.1015 23.4976 29.1197 23.5 29.1377C23.1424 29.23 22.8257 29.4384 22.5994 29.7303C22.3732 30.0222 22.2503 30.3809 22.25 30.7502V32.8335C22.25 33.2755 22.4256 33.6995 22.7382 34.012C23.0507 34.3246 23.4746 34.5002 23.9167 34.5002H24.75C24.75 36.0473 25.3646 37.531 26.4585 38.625C27.5525 39.7189 29.0362 40.3335 30.5833 40.3335H31.4167C34.1708 40.3335 36.3458 38.4668 36.8083 36.7252C37.3074 36.5107 37.7455 36.1756 38.0833 35.7502C38.3779 35.3695 38.539 34.9024 38.5417 34.421C38.8874 34.3221 39.1918 34.1141 39.4096 33.828C39.6274 33.5419 39.7468 33.193 39.75 32.8335V30.7502C39.7497 30.3809 39.6268 30.0222 39.4006 29.7303C39.1743 29.4384 38.8575 29.23 38.5 29.1377ZM30.1167 23.6668H31.8875C35.075 23.6668 37.6667 26.096 37.6667 29.0835H37.175C36.9782 27.9193 36.3758 26.8623 35.4744 26.0997C34.5729 25.337 33.4307 24.918 32.25 24.9168H29.75C28.5693 24.918 27.4271 25.337 26.5256 26.0997C25.6242 26.8623 25.0218 27.9193 24.825 29.0835H24.3333C24.3333 26.096 26.925 23.6668 30.1167 23.6668ZM36.4167 29.9168H31.0417C30.5402 29.9142 30.055 29.7387 29.6678 29.4199C29.2807 29.1011 29.0154 28.6585 28.9167 28.1668C28.9112 28.1121 28.895 28.059 28.869 28.0106C28.843 27.9621 28.8077 27.9192 28.7652 27.8844C28.7226 27.8496 28.6736 27.8235 28.621 27.8076C28.5683 27.7917 28.513 27.7864 28.4583 27.7918C28.4036 27.7973 28.3505 27.8135 28.3021 27.8395C28.2536 27.8655 28.2107 27.9008 28.1759 27.9433C28.1411 27.9859 28.115 28.0349 28.0991 28.0875C28.0832 28.1402 28.0779 28.1954 28.0833 28.2502C28.0833 28.4712 27.9955 28.6831 27.8393 28.8394C27.683 28.9957 27.471 29.0835 27.25 29.0835H25.6667C25.8588 28.1424 26.3702 27.2965 27.1142 26.6891C27.8583 26.0816 28.7895 25.75 29.75 25.7502H32.25C33.3551 25.7502 34.4149 26.1892 35.1963 26.9706C35.9777 27.752 36.4167 28.8118 36.4167 29.9168ZM23.9167 33.6668C23.6957 33.6668 23.4837 33.579 23.3274 33.4228C23.1711 33.2665 23.0833 33.0545 23.0833 32.8335V30.7502C23.0833 30.5292 23.1711 30.3172 23.3274 30.1609C23.4837 30.0046 23.6957 29.9168 23.9167 29.9168H24.75V33.6668H23.9167ZM33.0042 36.5835C32.9184 36.341 32.76 36.1309 32.5505 35.9818C32.3409 35.8326 32.0905 35.7517 31.8333 35.7502H30.1667C29.8351 35.7502 29.5172 35.8819 29.2828 36.1163C29.0484 36.3507 28.9167 36.6686 28.9167 37.0002C28.9167 37.3317 29.0484 37.6496 29.2828 37.8841C29.5172 38.1185 29.8351 38.2502 30.1667 38.2502H31.8333C32.0912 38.2494 32.3426 38.169 32.5529 38.0198C32.7633 37.8706 32.9224 37.66 33.0083 37.4168C33.9416 37.4145 34.8714 37.304 35.7792 37.0877C35.1292 38.3335 33.4667 39.5002 31.4167 39.5002H30.5833C29.2572 39.5002 27.9855 38.9734 27.0478 38.0357C26.1101 37.098 25.5833 35.8262 25.5833 34.5002V29.9168H27.25C27.4866 29.9165 27.7205 29.8658 27.936 29.7681C28.1516 29.6704 28.3438 29.5279 28.5 29.3502C28.7721 29.7781 29.1475 30.1307 29.5917 30.3753C30.0359 30.62 30.5346 30.7489 31.0417 30.7502H36.4167V34.0835C36.4167 34.194 36.4606 34.3 36.5387 34.3781C36.6168 34.4563 36.7228 34.5002 36.8333 34.5002H37.7C37.6813 34.7758 37.5813 35.0397 37.4125 35.2585C36.9708 35.8418 35.8458 36.5252 33.0042 36.5835ZM32.25 37.0002C32.25 37.1107 32.2061 37.2167 32.128 37.2948C32.0498 37.3729 31.9438 37.4168 31.8333 37.4168H30.1667C30.0562 37.4168 29.9502 37.3729 29.872 37.2948C29.7939 37.2167 29.75 37.1107 29.75 37.0002C29.75 36.8897 29.7939 36.7837 29.872 36.7055C29.9502 36.6274 30.0562 36.5835 30.1667 36.5835H31.8333C31.9438 36.5835 32.0498 36.6274 32.128 36.7055C32.2061 36.7837 32.25 36.8897 32.25 37.0002ZM38.9167 32.8335C38.9167 33.0545 38.8289 33.2665 38.6726 33.4228C38.5163 33.579 38.3043 33.6668 38.0833 33.6668H37.25V29.9168H38.0833C38.3043 29.9168 38.5163 30.0046 38.6726 30.1609C38.8289 30.3172 38.9167 30.5292 38.9167 30.7502V32.8335Z" fill="black"/>
</g>
</g>
</g>
<defs>
<filter id="filter0_d_7_16566" x="22.25" y="22.8335" width="21.5" height="21.5" filterUnits="userSpaceOnUse" color-interpolation-filters="sRGB">
<feFlood flood-opacity="0" result="BackgroundImageFix"/>
<feColorMatrix in="SourceAlpha" type="matrix" values="0 0 0 0 0 0 0 0 0 0 0 0 0 0 0 0 0 0 127 0" result="hardAlpha"/>
<feOffset dx="2" dy="2"/>
<feGaussianBlur stdDeviation="1"/>
<feComposite in2="hardAlpha" operator="out"/>
<feColorMatrix type="matrix" values="0 0 0 0 1 0 0 0 0 1 0 0 0 0 1 0 0 0 0.25 0"/>
<feBlend mode="normal" in2="BackgroundImageFix" result="effect1_dropShadow_7_16566"/>
<feBlend mode="normal" in="SourceGraphic" in2="effect1_dropShadow_7_16566" result="shape"/>
</filter>
<radialGradient id="paint0_radial_7_16566" cx="0" cy="0" r="1" gradientUnits="userSpaceOnUse" gradientTransform="translate(32.003 32.0033) scale(39.7625)">
<stop stop-color="#FBD435"/>
<stop offset="0.995" stop-color="#FBD435" stop-opacity="0"/>
</radialGradient>
<radialGradient id="paint1_radial_7_16566" cx="0" cy="0" r="1" gradientUnits="userSpaceOnUse" gradientTransform="translate(32.003 32.0033) scale(37.7232)">
<stop stop-color="#FCD535"/>
<stop offset="0.995" stop-color="#FCD535" stop-opacity="0"/>
</radialGradient>
<linearGradient id="paint2_linear_7_16566" x1="39.4358" y1="32.0032" x2="76.6215" y2="32.0032" gradientUnits="userSpaceOnUse">
<stop stop-color="#FCD535"/>
<stop offset="0.995" stop-color="#FCD535" stop-opacity="0"/>
</linearGradient>
<linearGradient id="paint3_linear_7_16566" x1="46.7772" y1="47.6302" x2="14.3479" y2="15.2009" gradientUnits="userSpaceOnUse">
<stop stop-color="#FCD535"/>
<stop offset="0.995" stop-color="#FCD535" stop-opacity="0"/>
</linearGradient>
<linearGradient id="paint4_linear_7_16566" x1="20.996" y1="23.2885" x2="45.6403" y2="44.4392" gradientUnits="userSpaceOnUse">
<stop stop-color="#FCD535"/>
<stop offset="1" stop-color="#FCD535" stop-opacity="0"/>
</linearGradient>
<clipPath id="clip0_7_16566">
<rect width="64" height="64" fill="white" transform="translate(0 0.000244141)"/>
</clipPath>
<clipPath id="clip1_7_16566">
<rect width="20" height="24" fill="white" transform="translate(21 22.0002)"/>
</clipPath>
</defs>
</svg>
