<svg width="28" height="28" viewBox="0 0 28 28" fill="none" xmlns="http://www.w3.org/2000/svg">
<g clip-path="url(#clip0_7_16588)">
<path d="M27.583 13.9091C27.583 16.6007 26.784 19.2183 25.2726 21.479C25.0672 21.7864 24.7297 21.9524 24.386 21.9524C24.1825 21.9524 23.9767 21.8944 23.7948 21.7726C23.3057 21.4457 23.1744 20.7841 23.5012 20.2949C24.7778 18.3858 25.4524 16.1777 25.4524 13.9091C25.4524 12.9342 25.3304 11.9661 25.0899 11.0318C24.9432 10.4621 25.2863 9.88117 25.856 9.73448C26.4261 9.58799 27.0067 9.9309 27.1534 10.5006C27.4384 11.6084 27.583 12.7551 27.583 13.9091ZM19.8984 23.7579C18.109 24.8417 16.0509 25.4148 13.9467 25.4148C7.60248 25.4148 2.44099 20.2533 2.44099 13.9091C2.44099 7.56488 7.60248 2.40339 13.9467 2.40339C16.2956 2.40339 18.5543 3.10626 20.4788 4.43607C20.9627 4.77044 21.6263 4.64914 21.9609 4.16515C22.2952 3.68117 22.1741 3.01762 21.69 2.68304C19.4078 1.10625 16.7303 0.272705 13.9467 0.272705C10.3043 0.272705 6.87984 1.69115 4.30429 4.26669C1.72875 6.84224 0.310303 10.2667 0.310303 13.9091C0.310303 17.5514 1.72875 20.9759 4.30429 23.5515C6.87984 26.127 10.3043 27.5454 13.9467 27.5454C16.4402 27.5454 18.8801 26.8659 21.0025 25.5802C21.5058 25.2754 21.6667 24.6203 21.3618 24.117C21.0568 23.6137 20.4018 23.453 19.8984 23.7579ZM14.0495 16.9981C13.8807 17.0048 13.7232 16.9449 13.6009 16.8284L8.02133 11.5381C7.59437 11.1332 6.92 11.151 6.51529 11.578C6.11038 12.005 6.12827 12.6794 6.55524 13.0841L12.1337 18.3735C12.6489 18.8633 13.3154 19.1292 14.0216 19.1292C14.0594 19.1292 14.0973 19.1284 14.1352 19.127C14.8832 19.0968 15.5703 18.773 16.0697 18.2152C16.0823 18.2012 16.0944 18.1869 16.1063 18.1721L27.3479 4.1895C27.7166 3.7309 27.6438 3.06028 27.1852 2.69178C26.7268 2.32307 26.056 2.3959 25.6873 2.85449L14.4677 16.8098C14.3574 16.9249 14.2097 16.9917 14.0495 16.9981Z" fill="url(#paint0_linear_7_16588)"/>
</g>
<defs>
<linearGradient id="paint0_linear_7_16588" x1="0.310303" y1="4.14576" x2="23.4899" y2="4.58639" gradientUnits="userSpaceOnUse">
<stop stop-color="#FCD535"/>
<stop offset="1" stop-color="#FEF6D8"/>
</linearGradient>
<clipPath id="clip0_7_16588">
<rect width="27.2727" height="27.2727" fill="white" transform="translate(0.363525 0.272705)"/>
</clipPath>
</defs>
</svg>
