<svg width="20" height="24" viewBox="0 0 20 24" fill="none" xmlns="http://www.w3.org/2000/svg">
<g clip-path="url(#clip0_96_18190)">
<g filter="url(#filter0_d_96_18190)">
<path d="M17.5 7.13766C17.5024 7.11969 17.5024 7.10148 17.5 7.0835C17.5 3.63766 14.5333 0.833496 10.8875 0.833496H9.11666C5.46667 0.833496 2.5 3.63766 2.5 7.0835C2.49764 7.10148 2.49764 7.11969 2.5 7.13766C2.14245 7.22998 1.82568 7.43844 1.59943 7.7303C1.37319 8.02215 1.25028 8.38089 1.25 8.75017V10.8335C1.25 11.2755 1.42559 11.6995 1.73816 12.012C2.05072 12.3246 2.47464 12.5002 2.91667 12.5002H3.75C3.75 14.0473 4.36458 15.531 5.45854 16.625C6.5525 17.7189 8.03624 18.3335 9.58333 18.3335H10.4167C13.1708 18.3335 15.3458 16.4668 15.8083 14.7252C16.3074 14.5107 16.7455 14.1756 17.0833 13.7502C17.3779 13.3695 17.539 12.9024 17.5417 12.421C17.8874 12.3221 18.1918 12.1141 18.4096 11.828C18.6274 11.5419 18.7468 11.193 18.75 10.8335V8.75017C18.7497 8.38089 18.6268 8.02215 18.4006 7.7303C18.1743 7.43844 17.8575 7.22998 17.5 7.13766ZM9.11666 1.66683H10.8875C14.075 1.66683 16.6667 4.096 16.6667 7.0835H16.175C15.9782 5.91928 15.3758 4.86227 14.4744 4.09965C13.5729 3.33704 12.4307 2.91803 11.25 2.91683H8.75C7.56927 2.91803 6.42706 3.33704 5.52564 4.09965C4.62423 4.86227 4.02179 5.91928 3.825 7.0835H3.33333C3.33333 4.096 5.925 1.66683 9.11666 1.66683ZM15.4167 7.91683H10.0417C9.54018 7.91419 9.05496 7.73866 8.66785 7.41986C8.28073 7.10106 8.01542 6.6585 7.91667 6.16683C7.91119 6.11211 7.895 6.05901 7.869 6.01055C7.84301 5.96209 7.80772 5.91923 7.76516 5.88441C7.7226 5.84959 7.6736 5.82349 7.62095 5.8076C7.56831 5.79172 7.51305 5.78636 7.45833 5.79183C7.40361 5.7973 7.35051 5.8135 7.30205 5.83949C7.25359 5.86549 7.21073 5.90077 7.17591 5.94333C7.14109 5.98589 7.11499 6.0349 7.0991 6.08754C7.08322 6.14019 7.07786 6.19545 7.08333 6.25016C7.08333 6.47118 6.99553 6.68314 6.83925 6.83942C6.68297 6.9957 6.47101 7.0835 6.25 7.0835H4.66667C4.85877 6.14236 5.37015 5.2965 6.11425 4.68908C6.85834 4.08165 7.78945 3.74997 8.75 3.75016H11.25C12.3551 3.75016 13.4149 4.18915 14.1963 4.97055C14.9777 5.75195 15.4167 6.81176 15.4167 7.91683ZM2.91667 11.6668C2.69565 11.6668 2.48369 11.579 2.32741 11.4228C2.17113 11.2665 2.08333 11.0545 2.08333 10.8335V8.75017C2.08333 8.52915 2.17113 8.31719 2.32741 8.16091C2.48369 8.00463 2.69565 7.91683 2.91667 7.91683H3.75V11.6668H2.91667ZM12.0042 14.5835C11.9184 14.341 11.76 14.1309 11.5505 13.9818C11.3409 13.8326 11.0905 13.7517 10.8333 13.7502H9.16666C8.83514 13.7502 8.5172 13.8819 8.28278 14.1163C8.04836 14.3507 7.91667 14.6686 7.91667 15.0002C7.91667 15.3317 8.04836 15.6496 8.28278 15.8841C8.5172 16.1185 8.83514 16.2502 9.16666 16.2502H10.8333C11.0912 16.2494 11.3426 16.169 11.5529 16.0198C11.7633 15.8706 11.9224 15.66 12.0083 15.4168C12.9416 15.4145 13.8714 15.304 14.7792 15.0877C14.1292 16.3335 12.4667 17.5002 10.4167 17.5002H9.58333C8.25725 17.5002 6.98548 16.9734 6.0478 16.0357C5.11012 15.098 4.58333 13.8262 4.58333 12.5002V7.91683H6.25C6.48664 7.91653 6.72051 7.86584 6.93603 7.76814C7.15156 7.67043 7.34382 7.52795 7.5 7.35016C7.77209 7.7781 8.14754 8.13066 8.59173 8.37533C9.03591 8.62 9.53455 8.7489 10.0417 8.75017H15.4167V12.0835C15.4167 12.194 15.4606 12.3 15.5387 12.3781C15.6168 12.4563 15.7228 12.5002 15.8333 12.5002H16.7C16.6813 12.7758 16.5813 13.0397 16.4125 13.2585C15.9708 13.8418 14.8458 14.5252 12.0042 14.5835ZM11.25 15.0002C11.25 15.1107 11.2061 15.2167 11.128 15.2948C11.0498 15.3729 10.9438 15.4168 10.8333 15.4168H9.16666C9.05616 15.4168 8.95018 15.3729 8.87204 15.2948C8.7939 15.2167 8.75 15.1107 8.75 15.0002C8.75 14.8897 8.7939 14.7837 8.87204 14.7055C8.95018 14.6274 9.05616 14.5835 9.16666 14.5835H10.8333C10.9438 14.5835 11.0498 14.6274 11.128 14.7055C11.2061 14.7837 11.25 14.8897 11.25 15.0002ZM17.9167 10.8335C17.9167 11.0545 17.8289 11.2665 17.6726 11.4228C17.5163 11.579 17.3043 11.6668 17.0833 11.6668H16.25V7.91683H17.0833C17.3043 7.91683 17.5163 8.00463 17.6726 8.16091C17.8289 8.31719 17.9167 8.52915 17.9167 8.75017V10.8335Z" fill="white"/>
</g>
</g>
<defs>
<filter id="filter0_d_96_18190" x="1.25" y="0.833496" width="21.5" height="21.5" filterUnits="userSpaceOnUse" color-interpolation-filters="sRGB">
<feFlood flood-opacity="0" result="BackgroundImageFix"/>
<feColorMatrix in="SourceAlpha" type="matrix" values="0 0 0 0 0 0 0 0 0 0 0 0 0 0 0 0 0 0 127 0" result="hardAlpha"/>
<feOffset dx="2" dy="2"/>
<feGaussianBlur stdDeviation="1"/>
<feComposite in2="hardAlpha" operator="out"/>
<feColorMatrix type="matrix" values="0 0 0 0 1 0 0 0 0 1 0 0 0 0 1 0 0 0 0.25 0"/>
<feBlend mode="normal" in2="BackgroundImageFix" result="effect1_dropShadow_96_18190"/>
<feBlend mode="normal" in="SourceGraphic" in2="effect1_dropShadow_96_18190" result="shape"/>
</filter>
<clipPath id="clip0_96_18190">
<rect width="20" height="24" fill="white"/>
</clipPath>
</defs>
</svg>
