<svg width="54" height="54" viewBox="0 0 54 54" fill="none" xmlns="http://www.w3.org/2000/svg">
<path opacity="0.65" d="M2.63449e-06 27C1.98268e-06 41.9117 12.0883 54 27 54C41.9117 54 54 41.9117 54 27C54 12.0883 41.9117 -5.28397e-07 27 -1.18021e-06C12.0883 -1.83202e-06 3.2863e-06 12.0883 2.63449e-06 27Z" fill="url(#paint0_radial_200_142)"/>
<path d="M4.70195 27.0001C4.70194 39.3149 14.6851 49.2981 26.9999 49.2981C39.3147 49.2981 49.2979 39.3149 49.2979 27.0001C49.2979 14.6853 39.3147 4.70215 26.9999 4.70215C14.6851 4.70215 4.70195 14.6853 4.70195 27.0001Z" fill="url(#paint1_radial_200_142)"/>
<path d="M9.40388 27.7346C9.40388 37.4526 17.2818 45.3305 26.9998 45.3305C36.7177 45.3305 44.5957 37.4526 44.5957 27.7346C44.5957 18.0166 36.7177 10.1387 26.9998 10.1387C17.2818 10.1387 9.40388 18.0166 9.40388 27.7346Z" fill="url(#paint2_linear_200_142)"/>
<path d="M9.40388 26.2654C9.40388 35.9833 17.2818 43.8613 26.9998 43.8613C36.7177 43.8613 44.5957 35.9833 44.5957 26.2654C44.5957 16.5474 36.7177 8.66943 26.9998 8.66943C17.2818 8.66943 9.40388 16.5474 9.40388 26.2654Z" fill="url(#paint3_linear_200_142)"/>
<path d="M12.1955 26.2655C12.1955 34.4416 18.8235 41.0696 26.9996 41.0696C35.1757 41.0696 41.8037 34.4416 41.8037 26.2655C41.8037 18.0894 35.1757 11.4614 26.9996 11.4614C18.8235 11.4614 12.1955 18.0894 12.1955 26.2655Z" fill="url(#paint4_linear_200_142)"/>
<path d="M12.1955 26.2655C12.1955 34.4416 18.8235 41.0696 26.9996 41.0696C35.1757 41.0696 41.8037 34.4416 41.8037 26.2655C41.8037 18.0894 35.1757 11.4614 26.9996 11.4614C18.8235 11.4614 12.1955 18.0894 12.1955 26.2655Z" stroke="#F73E5D" stroke-width="4" stroke-miterlimit="10"/>
<g clip-path="url(#clip0_200_142)">
<path d="M34.9928 26.7402L31.3111 23.0584C31.1788 22.904 30.9464 22.886 30.792 23.0182C30.6375 23.1505 30.6195 23.3829 30.7518 23.5374C30.7642 23.5518 30.7776 23.5652 30.792 23.5775L33.8441 26.6334L19.2681 26.6334C19.0647 26.6334 18.8999 26.7982 18.8999 27.0016C18.8999 27.2049 19.0647 27.3697 19.2681 27.3697L33.8441 27.3697L30.792 30.4219C30.6375 30.5541 30.6195 30.7866 30.7518 30.941C30.8841 31.0954 31.1165 31.1134 31.2709 30.9812C31.2853 30.9688 31.2988 30.9554 31.3111 30.941L34.9929 27.2592C35.1356 27.1157 35.1356 26.8838 34.9928 26.7402Z" fill="white"/>
</g>
<defs>
<radialGradient id="paint0_radial_200_142" cx="0" cy="0" r="1" gradientUnits="userSpaceOnUse" gradientTransform="translate(26.9974 27.0026) rotate(90) scale(33.5497)">
<stop stop-color="#F73E5D"/>
<stop offset="0.995" stop-color="#F73E5D" stop-opacity="0"/>
</radialGradient>
<radialGradient id="paint1_radial_200_142" cx="0" cy="0" r="1" gradientUnits="userSpaceOnUse" gradientTransform="translate(26.9973 27.0027) rotate(90) scale(31.8289)">
<stop stop-color="#F73E5D"/>
<stop offset="0.995" stop-color="#F73E5D" stop-opacity="0"/>
</radialGradient>
<linearGradient id="paint2_linear_200_142" x1="26.9972" y1="33.2738" x2="26.9972" y2="64.6493" gradientUnits="userSpaceOnUse">
<stop stop-color="#F73E5D"/>
<stop offset="0.995" stop-color="#F73E5D" stop-opacity="0"/>
</linearGradient>
<linearGradient id="paint3_linear_200_142" x1="13.812" y1="39.4682" x2="41.1742" y2="12.106" gradientUnits="userSpaceOnUse">
<stop stop-color="#F73E5D"/>
<stop offset="0.995" stop-color="#F73E5D" stop-opacity="0"/>
</linearGradient>
<linearGradient id="paint4_linear_200_142" x1="34.3501" y1="17.7155" x2="16.5042" y2="38.5092" gradientUnits="userSpaceOnUse">
<stop stop-color="#F73E5D"/>
<stop offset="1" stop-color="#F73E5D" stop-opacity="0"/>
</linearGradient>
<clipPath id="clip0_200_142">
<rect width="16.2" height="16.2" fill="white" transform="translate(18.8999 18.8999)"/>
</clipPath>
</defs>
</svg>
