<svg width="10" height="10" viewBox="0 0 10 10" fill="none" xmlns="http://www.w3.org/2000/svg">
<path d="M4.99997 7.84969C4.82075 7.84969 4.64155 7.78126 4.50491 7.64468L0.205141 3.34487C-0.0683804 3.07135 -0.0683804 2.62788 0.205141 2.35447C0.478552 2.08106 0.921932 2.08106 1.19548 2.35447L4.99997 6.15918L8.80448 2.35461C9.078 2.08119 9.52134 2.08119 9.79473 2.35461C10.0684 2.62802 10.0684 3.07148 9.79473 3.34501L5.49502 7.64482C5.35832 7.78141 5.17912 7.84969 4.99997 7.84969Z" fill="#0A1A28"/>
<path d="M4.99997 7.84969C4.82075 7.84969 4.64155 7.78126 4.50491 7.64468L0.205141 3.34487C-0.0683804 3.07135 -0.0683804 2.62788 0.205141 2.35447C0.478552 2.08106 0.921932 2.08106 1.19548 2.35447L4.99997 6.15918L8.80448 2.35461C9.078 2.08119 9.52134 2.08119 9.79473 2.35461C10.0684 2.62802 10.0684 3.07148 9.79473 3.34501L5.49502 7.64482C5.35832 7.78141 5.17912 7.84969 4.99997 7.84969Z" fill="url(#paint0_linear_96_23131)"/>
<defs>
<linearGradient id="paint0_linear_96_23131" x1="4.99998" y1="2.14941" x2="7.98987" y2="13.0282" gradientUnits="userSpaceOnUse">
<stop stop-color="#F73E5D"/>
<stop offset="1" stop-color="#F73E5D" stop-opacity="0"/>
</linearGradient>
</defs>
</svg>
