<svg width="1116" height="150" viewBox="0 0 1116 150" fill="none" xmlns="http://www.w3.org/2000/svg">
<path d="M140.007 145.612C140.007 145.817 140.06 145.972 140.06 146.178C140.275 147.773 141.081 149.162 142.745 149.677C145.859 150.654 149.725 149.214 152.571 148.03C154.88 147.052 156.276 145.663 155.954 143.142C155.363 139.128 151.282 137.43 147.685 136.504C146.074 136.092 143.443 135.423 142.208 136.967C141.349 137.996 141.027 139.848 140.651 141.083C140.221 142.524 139.953 144.068 140.007 145.612Z" fill="#FEF6D8"/>
<path d="M975.993 145.612C975.993 145.817 975.939 145.972 975.939 146.178C975.725 147.773 974.919 149.162 973.255 149.677C970.141 150.654 966.275 149.214 963.429 148.03C961.12 147.052 959.724 145.663 960.046 143.142C960.637 139.128 964.717 137.43 968.315 136.504C969.926 136.092 972.557 135.423 973.792 136.967C974.651 137.996 974.973 139.848 975.349 141.083C975.778 142.524 976.047 144.068 975.993 145.612Z" fill="#FEF6D8"/>
<path d="M4.29577 1.09547C3.29577 1.69547 2.49577 2.59547 1.89577 3.59547C1.19577 4.59547 0.695768 5.79547 0.295768 6.99547C-0.804232 10.7955 1.29577 13.7955 4.39577 15.7955C7.79577 17.9955 14.8958 21.5955 18.3958 17.9955C20.2958 16.0955 22.1958 13.9955 22.9958 11.2955C23.5958 9.39547 22.9958 7.49547 21.5958 5.99547C19.3958 3.59547 16.2958 2.39547 13.2958 1.09547C10.5958 -0.104534 7.09577 -0.604534 4.29577 1.09547Z" fill="#FBD537"/>
<path d="M1111.7 1.09547C1112.7 1.69547 1113.5 2.59547 1114.1 3.59547C1114.8 4.59547 1115.3 5.79547 1115.7 6.99547C1116.8 10.7955 1114.7 13.7955 1111.6 15.7955C1108.2 17.9955 1101.1 21.5955 1097.6 17.9955C1095.7 16.0955 1093.8 13.9955 1093 11.2955C1092.4 9.39547 1093 7.49547 1094.4 5.99547C1096.6 3.59547 1099.7 2.39547 1102.7 1.09547C1105.4 -0.104534 1108.9 -0.604534 1111.7 1.09547Z" fill="#FBD537"/>
</svg>
