<svg width="36" height="35" viewBox="0 0 36 35" fill="none" xmlns="http://www.w3.org/2000/svg">
<path d="M0.041024 17.1614C-0.087176 19.7275 0.041024 22.4219 1.06662 24.7314C1.96402 26.656 3.50242 28.1957 5.16902 29.607C8.88682 32.943 13.7584 35.6374 18.63 34.8675C21.0658 34.4826 23.3734 33.3279 25.5528 32.0448C30.168 29.3504 34.7832 25.6296 35.8088 20.3691C36.9626 14.3387 32.732 8.3084 27.4758 4.97247C22.2196 1.63654 13.7584 -1.31447 7.47662 0.610103C1.45122 2.40637 0.425624 12.0292 0.041024 17.1614Z" fill="#FEF6D8"/>
<g clip-path="url(#clip0_7_16516)">
<path d="M16.0261 13.513C16.4012 13.3557 16.5585 12.908 16.3891 12.545L15.7962 11.2986C15.6268 10.9478 15.2153 10.7904 14.8523 10.9478C13.8238 11.3834 12.9404 11.9522 12.2386 12.6419C11.3795 13.4525 10.7986 14.3842 10.484 15.4128C10.1694 16.4536 10 17.8692 10 19.6722V23.3871C10 23.7864 10.3267 24.1131 10.726 24.1131H15.4816C15.8809 24.1131 16.2076 23.7864 16.2076 23.3871V18.6316C16.2076 18.2321 15.8809 17.9055 15.4816 17.9055H13.2067C13.2309 16.6832 13.5213 15.7032 14.0537 14.965C14.4893 14.3723 15.1427 13.8882 16.0261 13.513Z" fill="black" fill-opacity="0.2"/>
<path d="M24.5692 13.5131C24.9443 13.3558 25.1015 12.908 24.9322 12.545L24.3392 11.3109C24.1698 10.96 23.7584 10.8027 23.3954 10.96C22.379 11.3956 21.5076 11.9643 20.7938 12.6419C19.9345 13.4648 19.3417 14.3965 19.027 15.4251C18.7124 16.4414 18.5552 17.8573 18.5552 19.6724V23.3873C18.5552 23.7866 18.8819 24.1133 19.2812 24.1133H24.0367C24.4361 24.1133 24.7628 23.7866 24.7628 23.3873V18.6317C24.7628 18.2323 24.4361 17.9057 24.0367 17.9057H21.7497C21.7739 16.6834 22.0645 15.7034 22.5968 14.9651C23.0324 14.3723 23.6858 13.8883 24.5692 13.5131Z" fill="black" fill-opacity="0.2"/>
</g>
<defs>
<clipPath id="clip0_7_16516">
<rect width="15" height="15" fill="white" transform="translate(10 10)"/>
</clipPath>
</defs>
</svg>
