<svg width="110" height="110" viewBox="0 0 110 110" fill="none" xmlns="http://www.w3.org/2000/svg">
<rect x="16.593" y="14.9922" width="78.8968" height="78.8968" rx="39.4484" fill="white"/>
<rect x="0.813721" y="0.527893" width="109.141" height="109.141" rx="54.5703" fill="white" fill-opacity="0.1"/>
<path d="M70.3985 52.6697C69.985 52.4463 66.4396 50.3891 65.1092 49.6148L65.1054 49.6121L48.9909 40.3087C48.7163 40.1411 48.4085 40.0355 48.0889 39.9994C47.7693 39.9632 47.4456 39.9973 47.1406 40.0992C47.1062 40.1116 47.0738 40.124 47.0403 40.1394C46.9626 40.1647 46.8867 40.1951 46.813 40.2304C46.5049 40.4145 46.2521 40.6784 46.0812 40.994C45.9104 41.3097 45.8278 41.6656 45.8422 42.0243V66.989C45.8324 67.3232 45.9115 67.6539 46.0715 67.9474C46.2315 68.241 46.4665 68.4868 46.7526 68.6597C46.8186 68.6919 46.8866 68.7199 46.9562 68.7435C46.9942 68.761 47.0305 68.7763 47.0697 68.7902C47.258 68.8585 47.4564 68.8951 47.6566 68.8985C48.0413 68.8944 48.4181 68.7894 48.7494 68.5942C49.2605 68.2975 65.1054 59.1494 65.1054 59.1494L70.3921 56.097C70.719 55.9333 70.9949 55.6833 71.19 55.3742C71.3851 55.065 71.4919 54.7084 71.499 54.3429C71.483 53.9908 71.3723 53.6496 71.1786 53.3552C70.9849 53.0607 70.7154 52.8239 70.3985 52.6697ZM48.4721 64.7488V44.0553L58.9129 54.3896L48.4721 64.7488ZM55.0705 61.9063L60.7819 56.2395L62.2935 57.7356C60.6306 58.6959 57.821 60.3182 55.0705 61.9064V61.9063ZM60.7797 52.5373L54.9967 46.8134L62.2995 51.0295L60.7797 52.5373ZM64.6546 56.3726L62.6487 54.3873L64.6576 52.3941C65.6048 52.9441 67.0809 53.8002 68.0974 54.3853L64.6546 56.3726Z" fill="#FCD535"/>
</svg>
