<svg width="52" height="52" viewBox="0 0 52 52" fill="none" xmlns="http://www.w3.org/2000/svg">
<path d="M49.5756 0.549316H2.42437C1.08544 0.549316 0 1.63476 0 2.97368V10.139C0 11.478 1.08544 12.5634 2.42437 12.5634H9.63282V22.2609C8.36138 23.7155 3.01699 30.0296 2.37049 34.2103C2.36645 34.2641 2.36645 34.3182 2.37049 34.3719V50.3728C2.37049 50.9678 2.85294 51.4503 3.44799 51.4503H16.5073C16.8599 51.4497 17.1898 51.2767 17.3908 50.9869L22.9076 43.0458C22.9765 42.9438 23.0276 42.831 23.0584 42.7118C23.0584 42.5394 23.6295 40.6214 24.2652 37.9923H41.2897C41.8847 37.9923 42.3672 37.5099 42.3672 36.9148V12.5634H49.5756C50.9146 12.5634 52 11.478 52 10.139V2.97368C52 1.63476 50.9146 0.549316 49.5756 0.549316ZM24.3191 26.5385C23.5247 31.7377 22.4274 36.8863 21.0327 41.9575L15.9362 49.2845H4.51471V34.5012C4.93494 32.0445 7.56403 28.2733 9.63282 25.6765V36.9148C9.63282 37.5099 10.1153 37.9923 10.7103 37.9923H14.6001C14.7329 37.9913 14.8645 37.9658 14.988 37.9169L15.1065 37.8523C15.1837 37.8143 15.256 37.7673 15.322 37.7122L15.419 37.6044C15.469 37.5446 15.5123 37.4796 15.5483 37.4105L15.6129 37.2704C15.6129 37.2704 15.6129 37.2704 15.6129 37.195C16.6904 33.2082 19.0394 26.323 20.8172 24.793C22.024 23.7155 22.7244 23.597 23.0261 23.597C23.2537 23.5919 23.47 23.696 23.608 23.8771C24.1358 24.6598 24.3862 25.5968 24.3191 26.5385ZM40.2122 35.8373H24.7824C25.4505 32.9173 26.1293 29.5555 26.4633 26.7971C26.5948 25.2602 26.1619 23.7282 25.2458 22.4872C24.7063 21.8571 23.9203 21.4915 23.0908 21.4851C21.7183 21.606 20.4342 22.2136 19.4704 23.1983C16.9706 25.3533 14.5785 33.2082 13.8135 35.8804H11.7878V7.68235H40.2122V35.8373ZM49.845 10.1283C49.845 10.2771 49.7245 10.3976 49.5756 10.3976H42.3672V7.68235H44.3174C44.9125 7.68235 45.3949 7.1999 45.3949 6.60485C45.3949 6.0098 44.9125 5.52735 44.3174 5.52735H7.68255C7.08751 5.52735 6.60506 6.0098 6.60506 6.60485C6.60506 7.1999 7.08751 7.68235 7.68255 7.68235H9.6436V10.4515H2.42437C2.27554 10.4515 2.15499 10.331 2.15499 10.1821V2.97368C2.15499 2.82486 2.27554 2.70431 2.42437 2.70431H49.5756C49.7245 2.70431 49.845 2.82486 49.845 2.97368V10.1283Z" fill="black"/>
</svg>
