<svg width="52" height="52" viewBox="0 0 52 52" fill="none" xmlns="http://www.w3.org/2000/svg">
<path d="M42.4665 21.6665H40.0675C39.7963 20.7825 39.4429 19.9289 39.0121 19.116L40.7082 17.4208C40.8711 17.2578 40.9621 17.0386 40.9621 16.808C40.9621 16.5774 40.8711 16.3573 40.7082 16.1952L35.8053 11.2923C35.4663 10.9538 34.9187 10.9538 34.5798 11.2923L32.8837 12.9876C32.0707 12.558 31.2172 12.2043 30.3332 11.933V9.53317C30.3332 9.05371 29.9447 8.6665 29.4665 8.6665H22.5332C22.055 8.6665 21.6665 9.05371 21.6665 9.53317V11.933C20.7825 12.2034 19.9289 12.558 19.116 12.9876L17.4199 11.2923C17.081 10.9538 16.5334 10.9538 16.1944 11.2923L11.2915 16.1952C11.1285 16.3582 11.0376 16.5774 11.0376 16.808C11.0376 17.0386 11.1285 17.2587 11.2915 17.4208L12.9876 19.116C12.5568 19.9289 12.2034 20.7833 11.9322 21.6665H9.53317C9.05498 21.6665 8.6665 22.0537 8.6665 22.5332V29.4665C8.6665 29.946 9.05498 30.3332 9.53317 30.3332H11.9322C12.2034 31.2172 12.5568 32.0707 12.9876 32.8837L11.2915 34.5789C11.1285 34.7418 11.0376 34.961 11.0376 35.1917C11.0376 35.4223 11.1285 35.6423 11.2915 35.8044L16.1944 40.7074C16.5334 41.0459 17.081 41.0459 17.4199 40.7074L19.116 39.0121C19.9289 39.4416 20.7825 39.7954 21.6665 40.0667V42.4665C21.6665 42.946 22.055 43.3332 22.5332 43.3332H29.4665C29.9447 43.3332 30.3332 42.946 30.3332 42.4665V40.0667C31.2172 39.7963 32.0707 39.4416 32.8837 39.0121L34.5798 40.7074C34.9187 41.0459 35.4663 41.0459 35.8053 40.7074L40.7082 35.8044C40.8711 35.6415 40.9621 35.4223 40.9621 35.1917C40.9621 34.961 40.8711 34.741 40.7082 34.5789L39.0121 32.8837C39.4429 32.0707 39.7963 31.2163 40.0675 30.3332H42.4665C42.9447 30.3332 43.3332 29.946 43.3332 29.4665V22.5332C43.3332 22.0537 42.9447 21.6665 42.4665 21.6665ZM41.5998 28.5998H39.4124C39.0172 28.5998 38.6723 28.8677 38.5733 29.2498C38.2694 30.4275 37.8039 31.5515 37.1903 32.5917C36.9885 32.9332 37.0431 33.3665 37.3228 33.6454L38.8699 35.1917L35.1925 38.8691L33.6466 37.3228C33.3673 37.0448 32.9349 36.9893 32.5934 37.1895C31.5536 37.8031 30.4292 38.2682 29.2507 38.5724C28.8677 38.6714 28.5998 39.0172 28.5998 39.4124V41.5998H23.3998V39.4124C23.3998 39.0172 23.132 38.6723 22.7498 38.5724C21.5713 38.2682 20.4469 37.8031 19.4072 37.1895C19.0657 36.9893 18.6323 37.0439 18.3543 37.3228L16.808 38.8691L13.1306 35.1917L14.6777 33.6454C14.9575 33.3665 15.012 32.9332 14.811 32.5917C14.1974 31.5515 13.7315 30.4275 13.4281 29.2498C13.3282 28.8677 12.9825 28.5998 12.5872 28.5998H10.3998V23.3998H12.5872C12.9825 23.3998 13.3274 23.132 13.4264 22.7498C13.7302 21.5721 14.1957 20.4482 14.8093 19.408C15.0104 19.0665 14.9558 18.6332 14.676 18.3543L13.1289 16.808L16.8063 13.1306L18.3522 14.6769C18.6323 14.9558 19.0657 15.0104 19.4055 14.8102C20.4452 14.1966 21.5696 13.7315 22.7481 13.4272C23.132 13.3282 23.3998 12.9825 23.3998 12.5872V10.3998H28.5998V12.5872C28.5998 12.9825 28.8677 13.3274 29.2498 13.4272C30.4284 13.7315 31.5528 14.1966 32.5925 14.8102C32.9332 15.0087 33.3665 14.9549 33.6454 14.6769L35.1917 13.1306L38.8691 16.808L37.3219 18.3543C37.0431 18.6332 36.9885 19.0665 37.1895 19.408C37.8031 20.4482 38.2694 21.5721 38.5724 22.7498C38.6714 23.132 39.0172 23.3998 39.4124 23.3998H41.5998V28.5998Z" fill="black"/>
<path d="M26.0001 15.6001C20.2652 15.6001 15.6001 20.2652 15.6001 26.0001C15.6001 31.735 20.2652 36.4001 26.0001 36.4001C31.735 36.4001 36.4001 31.735 36.4001 26.0001C36.4001 20.2652 31.735 15.6001 26.0001 15.6001ZM26.0001 34.6668C21.2212 34.6668 17.3334 30.779 17.3334 26.0001C17.3334 21.2212 21.2212 17.3334 26.0001 17.3334C30.779 17.3334 34.6668 21.2212 34.6668 26.0001C34.6668 30.779 30.779 34.6668 26.0001 34.6668Z" fill="black"/>
<path d="M22.9725 20.0459C22.7012 20.2003 22.5332 20.4881 22.5332 20.8V31.2C22.5332 31.5119 22.7012 31.7996 22.9725 31.9541C23.1053 32.0294 23.2526 32.0666 23.3999 32.0666C23.5543 32.0666 23.7084 32.0252 23.8463 31.9426L32.513 26.7426C32.7737 26.5865 32.9332 26.3051 32.9332 26C32.9332 25.6949 32.7737 25.4134 32.513 25.2573L23.8463 20.0573C23.5785 19.8969 23.2437 19.8918 22.9725 20.0459ZM24.2665 22.3314L30.3819 26L24.2665 29.6685V22.3314Z" fill="black"/>
<path d="M48.5336 0C46.6216 0 45.0669 1.55475 45.0669 3.46667C45.0669 5.37858 46.6216 6.93333 48.5336 6.93333C50.4455 6.93333 52.0002 5.37858 52.0002 3.46667C52.0002 1.55475 50.4455 0 48.5336 0ZM48.5336 5.2C47.5776 5.2 46.8002 4.42262 46.8002 3.46667C46.8002 2.51071 47.5776 1.73333 48.5336 1.73333C49.4895 1.73333 50.2669 2.51071 50.2669 3.46667C50.2669 4.42262 49.4895 5.2 48.5336 5.2Z" fill="black"/>
<path d="M3.46667 0C1.55475 0 0 1.55475 0 3.46667C0 5.37858 1.55475 6.93333 3.46667 6.93333C5.37858 6.93333 6.93333 5.37858 6.93333 3.46667C6.93333 1.55475 5.37858 0 3.46667 0ZM3.46667 5.2C2.51071 5.2 1.73333 4.42262 1.73333 3.46667C1.73333 2.51071 2.51071 1.73333 3.46667 1.73333C4.42262 1.73333 5.2 2.51071 5.2 3.46667C5.2 4.42262 4.42262 5.2 3.46667 5.2Z" fill="black"/>
<path d="M48.5336 45.0669C46.6216 45.0669 45.0669 46.6216 45.0669 48.5336C45.0669 50.4455 46.6216 52.0002 48.5336 52.0002C50.4455 52.0002 52.0002 50.4455 52.0002 48.5336C52.0002 46.6216 50.4455 45.0669 48.5336 45.0669ZM48.5336 50.2669C47.5776 50.2669 46.8002 49.4895 46.8002 48.5336C46.8002 47.5776 47.5776 46.8002 48.5336 46.8002C49.4895 46.8002 50.2669 47.5776 50.2669 48.5336C50.2669 49.4895 49.4895 50.2669 48.5336 50.2669Z" fill="black"/>
<path d="M3.46667 45.0669C1.55475 45.0669 0 46.6216 0 48.5336C0 50.4455 1.55475 52.0002 3.46667 52.0002C5.37858 52.0002 6.93333 50.4455 6.93333 48.5336C6.93333 46.6216 5.37858 45.0669 3.46667 45.0669ZM3.46667 50.2669C2.51071 50.2669 1.73333 49.4895 1.73333 48.5336C1.73333 47.5776 2.51071 46.8002 3.46667 46.8002C4.42262 46.8002 5.2 47.5776 5.2 48.5336C5.2 49.4895 4.42262 50.2669 3.46667 50.2669Z" fill="black"/>
<path d="M45.0669 26H46.8002V27.7333H45.0669V26Z" fill="black"/>
<path d="M48.5332 26H50.2665V27.7333H48.5332V26Z" fill="black"/>
<path d="M48.5332 22.5332H50.2665V24.2665H48.5332V22.5332Z" fill="black"/>
<path d="M48.5332 19.0669H50.2665V20.8002H48.5332V19.0669Z" fill="black"/>
<path d="M48.5332 15.6001H50.2665V17.3334H48.5332V15.6001Z" fill="black"/>
<path d="M48.5332 12.1333H50.2665V13.8666H48.5332V12.1333Z" fill="black"/>
<path d="M48.5332 8.6665H50.2665V10.3998H48.5332V8.6665Z" fill="black"/>
<path d="M8.6665 1.7334H10.3998V3.46673H8.6665V1.7334Z" fill="black"/>
<path d="M12.1333 1.7334H13.8666V3.46673H12.1333V1.7334Z" fill="black"/>
<path d="M15.6001 1.7334H17.3334V3.46673H15.6001V1.7334Z" fill="black"/>
<path d="M19.0669 1.7334H20.8002V3.46673H19.0669V1.7334Z" fill="black"/>
<path d="M22.5332 1.7334H24.2665V3.46673H22.5332V1.7334Z" fill="black"/>
<path d="M26 1.7334H27.7333V3.46673H26V1.7334Z" fill="black"/>
<path d="M26 5.2002H27.7333V6.93353H26V5.2002Z" fill="black"/>
<path d="M1.7334 41.6001H3.46673V43.3334H1.7334V41.6001Z" fill="black"/>
<path d="M1.7334 38.1333H3.46673V39.8666H1.7334V38.1333Z" fill="black"/>
<path d="M1.7334 34.6665H3.46673V36.3998H1.7334V34.6665Z" fill="black"/>
<path d="M1.7334 31.2002H3.46673V32.9335H1.7334V31.2002Z" fill="black"/>
<path d="M1.7334 27.7334H3.46673V29.4667H1.7334V27.7334Z" fill="black"/>
<path d="M1.7334 24.2666H3.46673V25.9999H1.7334V24.2666Z" fill="black"/>
<path d="M5.2002 24.2666H6.93353V25.9999H5.2002V24.2666Z" fill="black"/>
<path d="M24.2666 45.0669H25.9999V46.8002H24.2666V45.0669Z" fill="black"/>
<path d="M24.2666 48.5332H25.9999V50.2665H24.2666V48.5332Z" fill="black"/>
<path d="M27.7334 48.5332H29.4667V50.2665H27.7334V48.5332Z" fill="black"/>
<path d="M31.2002 48.5332H32.9335V50.2665H31.2002V48.5332Z" fill="black"/>
<path d="M34.6665 48.5332H36.3998V50.2665H34.6665V48.5332Z" fill="black"/>
<path d="M38.1333 48.5332H39.8666V50.2665H38.1333V48.5332Z" fill="black"/>
<path d="M41.6001 48.5332H43.3334V50.2665H41.6001V48.5332Z" fill="black"/>
</svg>
