<svg width="52" height="52" viewBox="0 0 52 52" fill="none" xmlns="http://www.w3.org/2000/svg">
<g clip-path="url(#clip0_96_18416)">
<path d="M30.0786 10.5447C31.2963 9.43453 32.0668 7.84073 32.0668 6.06667C32.0668 2.7222 29.3454 0 26.0001 0C22.6548 0 19.9334 2.7222 19.9334 6.06667C19.9334 7.84073 20.7039 9.43453 21.9216 10.5447C18.3258 11.2381 15.6001 14.4049 15.6001 18.2V21.6667C15.6001 22.1459 15.9884 22.5333 16.4668 22.5333H35.5334C36.0118 22.5333 36.4001 22.1459 36.4001 21.6667V18.2C36.4001 14.4049 33.6744 11.2381 30.0786 10.5447ZM21.6668 6.06667C21.6668 3.67727 23.6107 1.73333 26.0001 1.73333C28.3895 1.73333 30.3334 3.67727 30.3334 6.06667C30.3334 8.45607 28.3895 10.4 26.0001 10.4C23.6107 10.4 21.6668 8.45607 21.6668 6.06667ZM34.6668 20.8H17.3334V18.2C17.3334 14.8555 20.0548 12.1333 23.4001 12.1333H28.6001C31.9454 12.1333 34.6668 14.8555 34.6668 18.2V20.8Z" fill="black"/>
<path d="M14.4785 40.0115C15.6962 38.9013 16.4667 37.3075 16.4667 35.5335C16.4667 32.189 13.7453 29.4668 10.4 29.4668C7.05467 29.4668 4.33333 32.189 4.33333 35.5335C4.33333 37.3075 5.1038 38.9013 6.32147 40.0115C2.72567 40.7049 0 43.8717 0 47.6668V51.1335C0 51.6127 0.388267 52.0001 0.866667 52.0001H19.9333C20.4117 52.0001 20.8 51.6127 20.8 51.1335V47.6668C20.8 43.8717 18.0743 40.7049 14.4785 40.0115ZM6.06667 35.5335C6.06667 33.1441 8.0106 31.2001 10.4 31.2001C12.7894 31.2001 14.7333 33.1441 14.7333 35.5335C14.7333 37.9229 12.7894 39.8668 10.4 39.8668C8.0106 39.8668 6.06667 37.9229 6.06667 35.5335ZM19.0667 50.2668H1.73333V47.6668C1.73333 44.3223 4.45467 41.6001 7.8 41.6001H13C16.3453 41.6001 19.0667 44.3223 19.0667 47.6668V50.2668Z" fill="black"/>
<path d="M45.6787 40.0115C46.8964 38.9013 47.6669 37.3075 47.6669 35.5335C47.6669 32.189 44.9455 29.4668 41.6002 29.4668C38.2549 29.4668 35.5335 32.189 35.5335 35.5335C35.5335 37.3075 36.304 38.9013 37.5217 40.0115C33.9259 40.7049 31.2002 43.8717 31.2002 47.6668V51.1335C31.2002 51.6127 31.5885 52.0001 32.0669 52.0001H51.1335C51.6119 52.0001 52.0002 51.6127 52.0002 51.1335V47.6668C52.0002 43.8717 49.2745 40.7049 45.6787 40.0115ZM37.2669 35.5335C37.2669 33.1441 39.2108 31.2001 41.6002 31.2001C43.9896 31.2001 45.9335 33.1441 45.9335 35.5335C45.9335 37.9229 43.9896 39.8668 41.6002 39.8668C39.2108 39.8668 37.2669 37.9229 37.2669 35.5335ZM50.2669 50.2668H32.9335V47.6668C32.9335 44.3223 35.6549 41.6001 39.0002 41.6001H44.2002C47.5455 41.6001 50.2669 44.3223 50.2669 47.6668V50.2668Z" fill="black"/>
<path d="M5.21646 27.7056L3.48486 27.7732C3.50826 28.3703 3.55593 28.9752 3.627 29.5698L5.3482 29.3635C5.28233 28.8149 5.23813 28.2568 5.21646 27.7056Z" fill="black"/>
<path d="M3.62613 24.1772C3.55593 24.7683 3.5074 25.3724 3.48486 25.973L5.21646 26.0406C5.23813 25.4859 5.28233 24.9287 5.34733 24.3818L3.62613 24.1772Z" fill="black"/>
<path d="M12.3404 8.94238C11.8664 9.30378 11.3992 9.69032 10.9512 10.0924L12.1099 11.382C12.5224 11.0111 12.9532 10.654 13.3908 10.3212L12.3404 8.94238Z" fill="black"/>
<path d="M5.60483 17.2725C5.35003 17.8141 5.1143 18.3723 4.90283 18.9347L6.52523 19.544C6.72023 19.0257 6.93777 18.5109 7.17263 18.0126L5.60483 17.2725Z" fill="black"/>
<path d="M4.33607 20.6465C4.1714 21.2194 4.0284 21.8096 3.90967 22.3972L5.6092 22.7395C5.7184 22.1978 5.85013 21.6536 6.00267 21.124L4.33607 20.6465Z" fill="black"/>
<path d="M9.66086 11.3506C9.24572 11.7874 8.84706 12.2424 8.47266 12.7043L9.82032 13.7946C10.1653 13.3682 10.5345 12.947 10.9175 12.544L9.66086 11.3506Z" fill="black"/>
<path d="M15.3688 6.99463C14.8444 7.27456 14.3218 7.58223 13.814 7.90896L14.7534 9.36669C15.2214 9.06423 15.7033 8.78083 16.1852 8.52343L15.3688 6.99463Z" fill="black"/>
<path d="M7.39603 14.1484C7.05717 14.6433 6.73477 15.1564 6.4375 15.6755L7.94117 16.537C8.21503 16.0586 8.51317 15.5845 8.82603 15.1286L7.39603 14.1484Z" fill="black"/>
<path d="M21.8936 47.2612L21.5513 48.9608C22.1345 49.0786 22.7343 49.1731 23.3331 49.2433L23.5342 47.5221C22.9839 47.4571 22.4309 47.3696 21.8936 47.2612Z" fill="black"/>
<path d="M30.1608 47.2505C29.6226 47.3597 29.0705 47.449 28.5176 47.5166L28.7264 49.2378C29.3244 49.165 29.9224 49.0679 30.5048 48.95L30.1608 47.2505Z" fill="black"/>
<path d="M26.8604 47.6494C26.3066 47.6711 25.7467 47.6737 25.1964 47.652L25.1279 49.3836C25.4165 49.3957 25.7077 49.4009 26.0024 49.4009C26.3127 49.3992 26.6221 49.3931 26.9297 49.381L26.8604 47.6494Z" fill="black"/>
<path d="M41.0524 10.0991L39.8945 11.3887C40.3071 11.7597 40.7075 12.1497 41.0862 12.5483L42.3446 11.3567C41.9338 10.9233 41.4996 10.5004 41.0524 10.0991Z" fill="black"/>
<path d="M43.5308 12.7095L42.1831 13.7997C42.5289 14.227 42.8634 14.6768 43.1772 15.1344L44.6063 14.1542C44.2666 13.6593 43.9052 13.1731 43.5308 12.7095Z" fill="black"/>
<path d="M48.5153 25.9756L46.7837 26.0432C46.795 26.3162 46.8002 26.5918 46.8002 26.8665C46.8002 27.1482 46.795 27.4281 46.7837 27.7081L48.5153 27.7757C48.5274 27.4741 48.5335 27.1707 48.5335 26.8648C48.5335 26.5675 48.5274 26.2703 48.5153 25.9756Z" fill="black"/>
<path d="M45.5661 15.6797L44.0615 16.542C44.3363 17.0213 44.5945 17.5179 44.8303 18.0171L46.3981 17.277C46.1433 16.7362 45.8633 16.1988 45.5661 15.6797Z" fill="black"/>
<path d="M47.099 18.9385L45.4766 19.5486C45.6707 20.0651 45.8458 20.5964 45.9983 21.1268L47.6649 20.6493C47.5002 20.0738 47.3096 19.4983 47.099 18.9385Z" fill="black"/>
<path d="M48.0898 22.4009L46.3911 22.7423C46.5003 23.2849 46.5887 23.8378 46.6528 24.3855L48.374 24.181C48.3038 23.5882 48.2085 22.9893 48.0898 22.4009Z" fill="black"/>
<path d="M38.1915 7.9126L37.2529 9.37033C37.7157 9.66847 38.1733 9.99 38.6145 10.3271L39.6666 8.94826C39.1891 8.5834 38.6933 8.23586 38.1915 7.9126Z" fill="black"/>
<path d="M35.017 6.21045L34.3228 7.79818C34.828 8.01918 35.3307 8.26358 35.8186 8.52532L36.6385 6.99825C36.1107 6.71398 35.5647 6.44878 35.017 6.21045Z" fill="black"/>
</g>
<defs>
<clipPath id="clip0_96_18416">
<rect width="52" height="52" fill="black"/>
</clipPath>
</defs>
</svg>
