<svg width="52" height="53" viewBox="0 0 52 53" fill="none" xmlns="http://www.w3.org/2000/svg">
<g clip-path="url(#clip0_96_18356)">
<path d="M7.1513 12.3201H7.91394V13.0827C7.91394 13.504 8.25539 13.8453 8.67657 13.8453C9.09775 13.8453 9.4392 13.5039 9.4392 13.0827V12.3201H10.2018C10.623 12.3201 10.9645 11.9786 10.9645 11.5574C10.9645 11.1361 10.623 10.7948 10.2018 10.7948H9.4392V10.0322C9.4392 9.61088 9.09775 9.26953 8.67657 9.26953C8.25539 9.26953 7.91394 9.61098 7.91394 10.0322V10.7948H7.1513C6.73013 10.7948 6.38867 11.1362 6.38867 11.5574C6.38867 11.9786 6.73013 12.3201 7.1513 12.3201Z" fill="black"/>
<path d="M37.2653 32.3407H36.5027V31.5781C36.5027 31.1568 36.1612 30.8154 35.74 30.8154C35.3189 30.8154 34.9774 31.1569 34.9774 31.5781V32.3407H34.2148C33.7935 32.3407 33.4521 32.6821 33.4521 33.1033C33.4521 33.5246 33.7936 33.866 34.2148 33.866H34.9774V34.6286C34.9774 35.0499 35.3189 35.3912 35.74 35.3912C36.1612 35.3912 36.5027 35.0498 36.5027 34.6286V33.866H37.2653C37.6866 33.866 38.0279 33.5245 38.0279 33.1033C38.0279 32.6821 37.6865 32.3407 37.2653 32.3407Z" fill="black"/>
<path d="M44.8493 2.50085H44.0867V1.73822C44.0867 1.31694 43.7452 0.975586 43.324 0.975586C42.9029 0.975586 42.5614 1.31704 42.5614 1.73822V2.50085H41.7988C41.3775 2.50085 41.0361 2.8423 41.0361 3.26348C41.0361 3.68466 41.3776 4.02612 41.7988 4.02612H42.5614V4.78875C42.5614 5.21003 42.9029 5.55138 43.324 5.55138C43.7452 5.55138 44.0867 5.20993 44.0867 4.78875V4.02612H44.8493C45.2706 4.02612 45.6119 3.68466 45.6119 3.26348C45.6119 2.8423 45.2705 2.50085 44.8493 2.50085Z" fill="black"/>
<path d="M25.6348 31.1486C25.4232 31.1456 25.2125 31.1662 25.0069 31.2091V25.4164C26.143 25.8036 27.3308 25.9996 28.5515 25.9996C34.6252 25.9996 39.5665 21.0584 39.5665 14.9847C39.5665 8.91095 34.6253 3.96973 28.5515 3.96973C22.4779 3.96973 17.5366 8.91105 17.5366 14.9848C17.5366 17.0744 18.1235 19.0986 19.2331 20.8559V27.2087C18.7887 26.9702 18.2871 26.8521 17.7669 26.8713C16.3923 26.9201 15.2474 27.9826 15.024 29.3283C14.57 29.0753 14.0545 28.9504 13.5185 28.969C12.4054 29.0085 11.4429 29.7126 10.9984 30.6937C10.4941 30.3489 9.89542 30.1737 9.27 30.1966C7.73589 30.2513 6.48779 31.5683 6.48779 33.1325V36.0255C6.48779 36.4468 6.82925 36.7881 7.25043 36.7881C7.67161 36.7881 8.01306 36.4467 8.01306 36.0255V33.1325C8.01306 32.3799 8.60131 31.7467 9.32423 31.7209C10.0975 31.6939 10.7362 32.3093 10.7362 33.0815C10.7362 33.5028 11.0776 33.8441 11.4988 33.8441C11.92 33.8441 12.2614 33.5027 12.2614 33.0815V31.9049C12.2614 31.1523 12.8496 30.519 13.5726 30.4933C13.9467 30.4792 14.3002 30.6153 14.5683 30.8741C14.8367 31.1332 14.9845 31.4812 14.9845 31.854C14.9845 32.2753 15.326 32.6166 15.7471 32.6166C16.1683 32.6166 16.5098 32.2752 16.5098 31.854V29.807C16.5098 29.0544 17.0979 28.4212 17.8209 28.3955C18.598 28.3695 19.2329 28.9866 19.2329 29.756C19.2329 30.1773 19.5743 30.5187 19.9955 30.5187C20.4167 30.5187 20.7581 30.1772 20.7581 29.756C20.7581 28.5553 20.7581 22.3053 20.7581 19.4633C20.7581 18.6947 21.3921 18.0764 22.1701 18.1027C22.8931 18.1284 23.4812 18.7616 23.4812 19.5143V31.4902C23.4812 32.3855 24.3509 32.9978 25.1921 32.7352C25.328 32.6926 25.4708 32.6731 25.6153 32.6737C26.3438 32.6829 26.9592 33.3299 26.9592 34.0868V40.2844C26.9592 41.9497 26.4092 43.6007 25.4104 44.9334C24.6552 45.973 24.2126 46.4371 23.7004 47.4004H10.4706C10.4639 47.3842 10.4574 47.3676 10.4506 47.3516L8.64082 43.0738C7.90286 41.3532 8.02697 39.789 8.01326 39.628C8.01326 39.2067 7.67181 38.8654 7.25063 38.8654C6.82945 38.8654 6.488 39.2068 6.488 39.628C6.50953 39.8737 6.34185 41.583 7.23763 43.6715L8.93982 47.6952C8.32679 48.0602 7.91383 48.7277 7.91383 49.4916V50.8841C7.91383 52.0372 8.85196 52.9754 10.0051 52.9754H23.8744C25.0275 52.9754 25.9657 52.0372 25.9657 50.8841V49.4916C25.9657 48.8359 25.6618 48.2504 25.188 47.8666C25.5645 47.2173 25.8055 46.9714 26.6315 45.8481C27.8267 44.2533 28.485 42.2774 28.485 40.2843V34.0868C28.4849 32.5134 27.1797 31.1679 25.6348 31.1486ZM22.2246 16.5783C21.0739 16.5379 20.0822 17.1659 19.5812 18.0857C19.2391 17.0958 19.0619 16.0502 19.0619 14.9848C19.0619 9.75209 23.3189 5.49509 28.5515 5.49509C33.7841 5.49509 38.0411 9.75209 38.0411 14.9848C38.0411 20.2174 33.7841 24.4744 28.5515 24.4744C27.322 24.4744 26.132 24.2439 25.0069 23.7894V19.8919C25.0616 19.972 25.1325 20.0432 25.2189 20.0996C26.1934 20.737 26.8533 20.9179 27.7205 20.9607V21.7464C27.7205 22.1677 28.0619 22.509 28.4831 22.509C28.9043 22.509 29.2457 22.1676 29.2457 21.7464V20.8814C30.8757 20.5239 31.8289 19.1635 32.0427 17.8909C32.3225 16.2269 31.4522 14.78 29.8255 14.2051C29.6349 14.1378 29.4403 14.0676 29.2457 13.9947V10.4993C29.742 10.6376 30.0362 10.8867 30.0639 10.9109C30.3738 11.1914 30.8523 11.1703 31.1363 10.8626C31.4219 10.5529 31.4024 10.0704 31.0928 9.78489C31.0512 9.7466 30.3678 9.13164 29.2458 8.93898V8.22316C29.2458 7.80188 28.9044 7.46053 28.4832 7.46053C28.062 7.46053 27.7206 7.80198 27.7206 8.22316V8.97046C27.5928 8.99697 27.4623 9.02957 27.329 9.06969C26.257 9.39266 25.4561 10.3099 25.2387 11.4635C24.8805 13.3645 25.9701 14.2527 27.7207 15.0226V19.4341C27.0943 19.3953 26.716 19.2561 26.054 18.8231C25.7014 18.5926 25.2289 18.6913 24.9983 19.0439C24.9898 19.0568 24.9827 19.0702 24.9752 19.0834C24.7714 17.715 23.6156 16.6278 22.2246 16.5783ZM29.2457 15.6176C30.2807 15.9866 30.6909 16.7329 30.5386 17.6381C30.4292 18.2889 29.9901 18.9791 29.2457 19.2849V15.6176ZM27.7205 13.33C27.0085 12.9499 26.569 12.6398 26.7374 11.7459C26.8225 11.2943 27.1259 10.7499 27.7205 10.547V13.33ZM24.4403 50.8841C24.4403 51.1961 24.1864 51.45 23.8744 51.45H10.0051C9.693 51.45 9.4392 51.1961 9.4392 50.8841V49.4916C9.4392 49.1784 9.69412 48.9257 10.0051 48.9257H23.8744C24.1818 48.9257 24.4403 49.1761 24.4403 49.4916V50.8841Z" fill="black"/>
<path d="M28.5518 0.975586C20.827 0.975586 14.5425 7.26017 14.5425 14.985C14.5425 17.6444 15.2913 20.2324 16.7079 22.4693C16.9332 22.825 17.4043 22.9311 17.7602 22.7055C18.1161 22.4801 18.2218 22.009 17.9964 21.6532C16.7347 19.6609 16.0677 17.3551 16.0677 14.9851C16.0677 8.10131 21.6681 2.50095 28.5518 2.50095C35.4356 2.50095 41.036 8.10131 41.036 14.9851C41.036 21.8689 35.4356 27.4693 28.5518 27.4693C28.284 27.4693 28.0126 27.4606 27.7453 27.4436C27.3225 27.4154 26.9625 27.7357 26.9355 28.1559C26.9086 28.5763 27.2276 28.9389 27.6479 28.9657C27.9475 28.9849 28.2516 28.9946 28.5518 28.9946C36.2766 28.9946 42.5612 22.7101 42.5612 14.9852C42.5612 7.26037 36.2766 0.975586 28.5518 0.975586V0.975586Z" fill="black"/>
</g>
<defs>
<clipPath id="clip0_96_18356">
<rect width="52" height="52" fill="black" transform="translate(0 0.975586)"/>
</clipPath>
</defs>
</svg>
