<svg width="52" height="52" viewBox="0 0 52 52" fill="none" xmlns="http://www.w3.org/2000/svg">
<path d="M26 26C30.0316 26 33.3125 22.7191 33.3125 18.6875C33.3125 14.6559 30.0316 11.375 26 11.375C21.9684 11.375 18.6875 14.6559 18.6875 18.6875C18.6875 22.7191 21.9684 26 26 26ZM26 13C29.1362 13 31.6875 15.5512 31.6875 18.6875C31.6875 21.8237 29.1362 24.375 26 24.375C22.8637 24.375 20.3125 21.8237 20.3125 18.6875C20.3125 15.5512 22.8637 13 26 13Z" fill="black"/>
<path d="M1.73069 23.1506C1.87451 23.4049 2.14507 23.5625 2.43757 23.5625H15.9486L15.9844 25.3907C15.9909 25.7311 16.2094 26.0317 16.5312 26.1422L19.7698 27.2635L21.8352 29.9984C22.0408 30.2705 22.3942 30.3851 22.72 30.286L26.0001 29.2866L29.2793 30.2852C29.3573 30.3087 29.4369 30.3201 29.5166 30.3201C29.7668 30.3201 30.0081 30.2039 30.1649 29.9975L32.2311 27.2627L35.4698 26.1414C35.7915 26.0301 36.0101 25.7303 36.0166 25.3899L36.0515 23.5625H49.5626C49.8551 23.5625 50.1256 23.4049 50.2695 23.1506C50.4141 22.8963 50.41 22.5835 50.2589 22.3324L48.0724 18.6875L50.2589 15.0435C50.41 14.7924 50.4133 14.4796 50.2695 14.2253C50.1256 13.9702 49.8551 13.8125 49.5626 13.8125H36.0515L36.0158 11.9844C36.0093 11.644 35.7907 11.3433 35.4689 11.2328L32.2303 10.1116L30.1641 7.37753C29.9586 7.10535 29.6043 6.99078 29.2793 7.08991L26.0001 8.08847L22.7208 7.08991C22.395 6.99159 22.0416 7.10535 21.836 7.37753L19.7698 10.1124L16.5312 11.2337C16.2094 11.345 15.9909 11.6448 15.9844 11.9852L15.9486 13.8125H2.43757C2.14507 13.8125 1.87451 13.9702 1.73069 14.2245C1.58607 14.4788 1.59013 14.7916 1.74126 15.0427L3.92769 18.6875L1.74126 22.3316C1.59013 22.5827 1.58607 22.8955 1.73069 23.1506ZM48.1277 15.4375L46.4288 18.2691C46.2744 18.5267 46.2744 18.8476 46.4288 19.1052L48.1277 21.9375H36.1011L38.0413 19.1515C38.2355 18.8728 38.2355 18.5023 38.0413 18.2228L36.1011 15.4375H48.1277ZM17.3916 16.1371C17.4834 16.0055 17.5338 15.8495 17.5371 15.6886L17.598 12.5824L20.5352 11.566C20.6879 11.5132 20.8204 11.4165 20.9179 11.2881L22.7907 8.80916L25.7636 9.7151C25.918 9.76222 26.0829 9.76222 26.2373 9.7151L29.2103 8.80997L31.0831 11.2889C31.1806 11.4173 31.313 11.514 31.4658 11.5668L34.4029 12.5832L34.4639 15.6894C34.4671 15.8503 34.5175 16.0063 34.6101 16.1379L36.3846 18.6875L34.6085 21.238C34.5167 21.3696 34.4663 21.5256 34.4631 21.6865L34.4021 24.7927L31.4649 25.8091C31.3122 25.8619 31.1798 25.9586 31.0823 26.087L29.2094 28.5659L26.2365 27.66C26.1593 27.6372 26.0797 27.625 26.0001 27.625C25.9204 27.625 25.8408 27.6372 25.7628 27.66L22.7899 28.5651L20.9171 26.0862C20.8196 25.9578 20.6871 25.8611 20.5344 25.8083L17.5972 24.7919L17.5363 21.6857C17.533 21.5248 17.4826 21.3688 17.39 21.2372L15.6155 18.6875L17.3916 16.1371ZM5.57138 19.106C5.72576 18.8484 5.72576 18.5275 5.57138 18.2699L3.87244 15.4375H15.8983L13.958 18.2236C13.7638 18.5023 13.7638 18.8728 13.958 19.1523L15.8991 21.9375H3.87244L5.57138 19.106Z" fill="black"/>
<path d="M25.1877 21.9375C25.1999 21.9375 25.2121 21.9375 25.2243 21.9367C25.4526 21.9261 25.6655 21.8205 25.8117 21.645L29.8742 16.77L28.6262 15.73L25.1333 19.9217L23.3247 18.113L22.1758 19.2619L24.6133 21.6994C24.766 21.8522 24.9724 21.9375 25.1877 21.9375Z" fill="black"/>
<path d="M30.0405 49.1806C30.0584 49.6014 30.0755 50.0085 30.0868 50.3977L31.711 50.3522C31.7005 49.9565 31.6826 49.5405 31.6639 49.1123C31.5526 46.4806 31.4128 43.2063 32.8241 41.2205C32.8323 41.2099 32.8323 41.2099 35.7825 37.0418C35.9149 36.8541 36.1318 36.742 36.361 36.742C36.7176 36.742 36.9021 36.9776 36.9646 37.0784C37.0272 37.1799 37.1556 37.4497 37.0191 37.7251L35.2787 40.7354C35.0642 41.1059 34.9513 41.5276 34.9513 41.9558H36.5763C36.5763 41.8128 36.6136 41.6723 36.6851 41.5496L36.8574 41.2514L40.5267 40.0269L40.5527 40.0399L40.5656 40.0139L42.7805 39.2746C43.1648 39.1308 43.5085 38.8894 43.775 38.5791L47.493 34.2411C47.6263 34.0859 47.8197 33.9941 48.0236 33.9893C48.2438 33.9884 48.4282 34.0681 48.5769 34.2257C48.802 34.4629 48.8085 34.8741 48.5932 35.1828L44.0724 41.6414C43.9587 41.8031 43.827 41.9501 43.68 42.0793L40.6095 44.7663C39.5386 45.7039 37.0638 48.1194 37.2198 50.2994L38.8407 50.1824C38.7554 48.9961 40.3162 47.1818 41.6796 45.9891L44.75 43.3021C44.9946 43.0876 45.214 42.8439 45.4033 42.5741L49.924 36.1148C50.5846 35.1714 50.5147 33.9072 49.7567 33.1085C49.2943 32.6202 48.6517 32.3618 47.9838 32.3651C47.32 32.3821 46.6911 32.6803 46.2588 33.1841L46.0175 33.4652L46.0728 33.1329C46.1727 32.5357 46.0053 31.9288 45.6137 31.4664C45.2221 31.0049 44.6509 30.7393 44.0456 30.7393C43.1007 30.7393 42.2808 31.3795 42.0509 32.296L41.496 34.5182L39.4119 38.6863L38.0818 39.1299L38.4475 38.4962C38.8123 37.7674 38.7741 36.9183 38.3459 36.2253C37.9177 35.5322 37.1751 35.1178 36.3601 35.1178C35.6037 35.1178 34.8911 35.4867 34.4548 36.1034L31.5111 40.2626C29.7659 42.7188 29.9178 46.3019 30.0405 49.1806ZM42.9902 35.1641C43.017 35.1113 43.0373 35.0553 43.0519 34.9976L43.6288 32.6893C43.6767 32.4975 43.849 32.3634 44.0464 32.3634C44.2195 32.3634 44.3267 32.4585 44.3747 32.5162C44.4234 32.5731 44.4998 32.6941 44.4713 32.8648L43.9741 35.8507L42.5417 37.5212C42.4531 37.6252 42.3377 37.7056 42.2378 37.743L41.5935 37.9575L42.9902 35.1641Z" fill="black"/>
<path d="M15.6658 36.7422C15.8958 36.7422 16.1127 36.8543 16.2451 37.042C16.2451 37.042 19.136 41.1264 19.1905 41.2036C20.614 43.2072 20.475 46.4824 20.3629 49.1133C20.345 49.5415 20.3271 49.9567 20.3166 50.3524L21.9408 50.3979C21.9513 50.0095 21.9692 49.6024 21.9871 49.1824C22.109 46.3029 22.2609 42.7197 20.5148 40.2619L20.5124 40.2635C20.3548 40.0336 19.7852 39.23 17.572 36.1019C17.1348 35.4844 16.4223 35.1164 15.6658 35.1164C14.8509 35.1164 14.1083 35.5299 13.6801 36.223C13.2519 36.9169 13.2137 37.7651 13.6013 38.5378L13.9425 39.1277L12.6149 38.6849L10.5308 34.5167L9.97509 32.2945C9.74515 31.378 8.92533 30.7378 7.98121 30.7378C7.37509 30.7378 6.8039 31.0027 6.41227 31.465C6.02146 31.9265 5.85409 32.5342 5.95402 33.1306L6.00927 33.4629L5.76796 33.1826C5.33571 32.6789 4.70684 32.3807 4.04302 32.3636C3.38815 32.3604 2.73328 32.6179 2.27015 33.107C1.5129 33.9065 1.44303 35.1708 2.10278 36.1133L6.62434 42.5727C6.81202 42.8408 7.0314 43.0854 7.27677 43.3007L10.3472 45.9876C11.7098 47.1804 13.2714 48.9939 13.1861 50.1809L14.807 50.2979C14.963 48.118 12.489 45.7024 11.4181 44.7648L8.34765 42.0779C8.20059 41.9487 8.06896 41.8024 7.95602 41.6415L3.43365 35.1814C3.21834 34.8734 3.22484 34.4615 3.4499 34.225C3.59859 34.0682 3.8009 33.9862 4.00321 33.9886C4.20796 33.9935 4.40134 34.0853 4.53459 34.2405L8.25258 38.5776C8.51908 38.8888 8.86277 39.1301 9.27552 39.2845L11.462 40.0141L11.475 40.0393L11.5001 40.0263L15.1702 41.2507L15.3425 41.5497C15.3855 41.6253 15.4513 41.9015 15.4513 42.1136H17.0763C17.0763 41.8122 17.0073 41.1833 16.7489 40.7364L15.0313 37.7684C14.8712 37.449 14.9996 37.1793 15.0621 37.0777C15.1247 36.977 15.3091 36.7422 15.6658 36.7422ZM9.81746 37.7529C9.68909 37.7042 9.57452 37.6245 9.48596 37.5205L8.05352 35.85L7.55627 32.8641C7.52784 32.6935 7.60421 32.5732 7.65215 32.5164C7.70009 32.4595 7.80652 32.3636 7.9804 32.3636C8.17865 32.3636 8.35009 32.4977 8.39802 32.6894L8.9749 34.9985C8.98952 35.0562 9.00983 35.1115 9.03665 35.1651L10.4341 37.9593L9.81746 37.7529Z" fill="black"/>
<path d="M24.8211 34.0703C24.3101 34.0313 23.7941 33.9663 23.2896 33.877L23.0068 35.4776C23.5642 35.5759 24.133 35.6474 24.6976 35.6905L24.8211 34.0703Z" fill="black"/>
<path d="M27.9038 34.0005C27.396 34.0631 26.8776 34.1004 26.3657 34.1118L26.4023 35.7368C26.9686 35.7238 27.5406 35.6824 28.1028 35.6133L27.9038 34.0005Z" fill="black"/>
<path d="M21.7863 33.5335C21.2955 33.3946 20.8031 33.2289 20.3246 33.0396L19.729 34.5516C20.2579 34.7604 20.8015 34.944 21.3443 35.0976L21.7863 33.5335Z" fill="black"/>
<path d="M29.4224 33.7366L29.7807 35.321C30.3332 35.1959 30.8857 35.0415 31.4235 34.8603L30.906 33.3198C30.4217 33.4831 29.9221 33.6229 29.4224 33.7366Z" fill="black"/>
<path d="M18.9214 32.4019C18.4656 32.1663 18.0171 31.9047 17.5881 31.626L16.7017 32.9877C17.1753 33.2965 17.671 33.5849 18.1755 33.8449L18.9214 32.4019Z" fill="black"/>
<path d="M33.7156 32.0513C33.2711 32.308 32.8088 32.5453 32.3433 32.7557L33.012 34.2369C33.5271 34.0045 34.0373 33.7421 34.5281 33.4585L33.7156 32.0513Z" fill="black"/>
<path d="M16.3394 30.7207C15.9405 30.3998 15.5521 30.0544 15.1865 29.6953L14.0474 30.8547C14.4512 31.2521 14.8802 31.6331 15.3214 31.9874L16.3394 30.7207Z" fill="black"/>
<path d="M36.217 30.251C35.8327 30.5906 35.4272 30.914 35.0112 31.2138L35.961 32.5325C36.4201 32.2018 36.8686 31.8443 37.2935 31.4689L36.217 30.251Z" fill="black"/>
<path d="M11.8667 28.2385C12.1836 28.7073 12.5289 29.1655 12.8921 29.601L14.1401 28.5602C13.8118 28.1661 13.4998 27.7518 13.2122 27.3276L11.8667 28.2385Z" fill="black"/>
<path d="M37.3213 29.1734L38.5132 30.2784C38.8992 29.8616 39.268 29.4228 39.6085 28.9727L38.3142 27.9912C38.0054 28.3983 37.6715 28.7964 37.3213 29.1734Z" fill="black"/>
<path d="M10.2466 25.2428C10.466 25.7677 10.713 26.2844 10.9819 26.7817L12.4111 26.009C12.1681 25.5597 11.9439 25.0917 11.7465 24.6172L10.2466 25.2428Z" fill="black"/>
<path d="M41.3856 26.0658L39.9215 25.3613C39.6989 25.8245 39.4511 26.2803 39.1846 26.7166L40.5707 27.564C40.8648 27.0814 41.1394 26.5768 41.3856 26.0658Z" fill="black"/>
<path d="M11.0093 11.536L12.484 12.2185C12.6977 11.7554 12.9398 11.2963 13.2014 10.8535L11.8023 10.0264C11.5138 10.5155 11.2473 11.0233 11.0093 11.536Z" fill="black"/>
<path d="M42.1565 11.9128C41.9314 11.3944 41.6763 10.8801 41.4001 10.3853L39.9814 11.1774C40.2317 11.6259 40.4624 12.0907 40.6664 12.5603L42.1565 11.9128Z" fill="black"/>
<path d="M15.0273 8.37049L13.8215 7.28174C13.4413 7.70261 13.0789 8.14786 12.7441 8.60368L14.0531 9.56649C14.3561 9.15374 14.6836 8.75155 15.0273 8.37049Z" fill="black"/>
<path d="M40.4933 8.9399C40.1699 8.47677 39.8181 8.0234 39.4492 7.59277L38.2158 8.65065C38.5506 9.04065 38.8683 9.45096 39.1616 9.87021L40.4933 8.9399Z" fill="black"/>
<path d="M16.1169 7.27677C16.4963 6.93227 16.8977 6.6024 17.3097 6.2969L16.342 4.99121C15.887 5.3284 15.4442 5.6924 15.0249 6.07346L16.1169 7.27677Z" fill="black"/>
<path d="M35.9863 6.52171C36.3893 6.83534 36.7818 7.17496 37.1539 7.53002L38.276 6.35515C37.8648 5.96271 37.431 5.58815 36.9857 5.24121L35.9863 6.52171Z" fill="black"/>
<path d="M19.9556 4.71574L19.265 3.24512C18.7539 3.4848 18.2469 3.75374 17.7603 4.04543L18.5939 5.44049C19.0343 5.17643 19.4925 4.93349 19.9556 4.71574Z" fill="black"/>
<path d="M33.3809 4.87804C33.8375 5.10554 34.29 5.35985 34.7239 5.63366L35.5909 4.25973C35.1107 3.95666 34.611 3.67554 34.1048 3.42285L33.3809 4.87804Z" fill="black"/>
<path d="M21.3833 4.13137C21.8643 3.96237 22.3623 3.81531 22.8612 3.69425L22.4793 2.11475C21.9268 2.248 21.3768 2.41131 20.8438 2.59818L21.3833 4.13137Z" fill="black"/>
<path d="M32.5421 2.74021C32.0108 2.53952 31.464 2.36321 30.918 2.21777L30.4995 3.78834C30.9927 3.91915 31.4859 4.0784 31.9661 4.2604L32.5421 2.74021Z" fill="black"/>
<path d="M24.3774 3.40832C24.8836 3.33844 25.4003 3.29375 25.9138 3.27507L25.8537 1.65088C25.2866 1.672 24.7146 1.72157 24.1548 1.79875L24.3774 3.40832Z" fill="black"/>
<path d="M27.4561 3.29411C27.9712 3.32661 28.4879 3.38349 28.9909 3.46555L29.2501 1.86168C28.6951 1.77149 28.1247 1.70811 27.5568 1.67236L27.4561 3.29411Z" fill="black"/>
</svg>
