<svg width="52" height="52" viewBox="0 0 52 52" fill="none" xmlns="http://www.w3.org/2000/svg">
<g clip-path="url(#clip0_96_18342)">
<path d="M47.8275 3.7832H41.1812C40.7605 3.7832 40.4194 4.12425 40.4194 4.54492C40.4194 4.96559 40.7605 5.30664 41.1812 5.30664H47.8275C48.2482 5.30664 48.5892 4.96559 48.5892 4.54492C48.5892 4.12425 48.2483 3.7832 47.8275 3.7832Z" fill="black"/>
<path d="M37.4072 5.30664H38.2174C38.6381 5.30664 38.9791 4.96559 38.9791 4.54492C38.9791 4.12425 38.6381 3.7832 38.2174 3.7832H37.4072C36.9866 3.7832 36.6455 4.12425 36.6455 4.54492C36.6455 4.96559 36.9866 5.30664 37.4072 5.30664Z" fill="black"/>
<path d="M37.4072 8.88525H47.8279C48.2486 8.88525 48.5897 8.54421 48.5897 8.12353C48.5897 7.70286 48.2486 7.36182 47.8279 7.36182H37.4072C36.9866 7.36182 36.6455 7.70286 36.6455 8.12353C36.6455 8.54421 36.9866 8.88525 37.4072 8.88525Z" fill="black"/>
<path d="M40.1622 45.104C40.1622 42.0613 39.1464 39.0763 37.2961 36.6645L37.4373 34.064C37.5333 32.2937 36.1285 30.7961 34.3418 30.7961H26.0038C25.6202 30.525 25.3875 30.0848 25.3875 29.6092V27.4824C26.6803 26.6464 27.5879 25.6929 28.2547 24.5582H29.7288C31.4341 24.5582 32.8214 23.1709 32.8214 21.4656V15.7768C32.8214 14.8174 32.2664 13.9692 31.4363 13.568V9.57554C31.4363 7.75798 29.9577 6.27923 28.1401 6.27923H28.0547C28.0027 6.27923 27.9605 6.23688 27.9605 6.18498C27.9605 4.36742 26.4817 2.88867 24.6641 2.88867H16.5971C12.5928 2.88867 9.33502 6.14649 9.33502 10.1508V13.5679C8.50505 13.9691 7.94991 14.8173 7.94991 15.7767V18.6699C7.94991 20.0235 9.05115 21.1247 10.4048 21.1247H11.3881C11.6426 23.2774 12.6525 25.2435 14.2342 26.6103C14.6053 26.931 14.9891 27.2176 15.3839 27.4735V29.6091C15.3839 30.0832 15.1503 30.5236 14.765 30.796H6.42982C4.65695 30.796 3.23761 32.2798 3.3345 34.0639L3.47567 36.6644C1.6253 39.0763 0.609477 42.0613 0.609477 45.104V47.9731C0.23075 48.3975 0 48.9566 0 49.5688C0 50.892 1.07646 51.9683 2.39962 51.9683H38.372C39.6952 51.9683 40.7717 50.8919 40.7717 49.5688C40.7717 48.9566 40.5409 48.3975 40.1622 47.9732V45.104ZM38.6387 45.104V47.1843C38.5511 47.1746 38.4622 47.1692 38.372 47.1692H36.7259L37.1558 39.2483C38.12 41.039 38.6387 43.0563 38.6387 45.104ZM31.2199 15.4049C31.27 15.5195 31.2982 15.6452 31.2982 15.7769V18.6701C31.2982 19.1837 30.8804 19.6015 30.3668 19.6015H29.4609V16.73L29.9304 16.5665C30.5111 16.3642 30.9678 15.9376 31.2199 15.4049ZM26.1344 24.2305H24.2228C23.9146 24.2305 23.6639 23.9798 23.6639 23.6717C23.6639 23.3636 23.9146 23.1129 24.2228 23.1129H26.1344C26.4425 23.1129 26.6932 23.3636 26.6932 23.6717C26.6932 23.9798 26.4425 24.2305 26.1344 24.2305ZM29.729 23.0349H28.959C29.1735 22.4233 29.3216 21.7826 29.3997 21.1249H30.3668C30.6964 21.1249 31.0108 21.0592 31.2982 20.9409V21.4658C31.2982 22.331 30.5942 23.0349 29.729 23.0349ZM10.8587 10.151C10.8587 6.98672 13.4331 4.41231 16.5973 4.41231H24.6644C25.6419 4.41231 26.4372 5.20765 26.4372 6.18519C26.4372 7.07721 27.163 7.80287 28.0549 7.80287H28.1403C29.1179 7.80287 29.9131 8.59821 29.9131 9.57575V14.447C29.9131 14.7535 29.7186 15.0271 29.4292 15.128L27.8284 15.6854C27.7639 15.7078 27.6974 15.6613 27.6974 15.5919L27.7004 12.5649C27.7096 10.3558 25.6411 8.42921 22.7429 9.36013C21.2853 9.82854 19.4814 9.82691 18.0287 9.36013C15.1605 8.43835 13.062 10.3308 13.0712 12.5626L13.0747 15.5921C13.0747 15.662 13.0067 15.708 12.9437 15.6854L11.3425 15.1279C11.053 15.0271 10.8586 14.7534 10.8586 14.4469V10.151H10.8587ZM9.47355 18.6701V15.7768C9.47355 15.6452 9.50178 15.5194 9.55185 15.4048C9.80403 15.9376 10.2608 16.3642 10.8417 16.5665L11.311 16.7299V19.6014H10.4051C9.89137 19.6015 9.47355 19.1836 9.47355 18.6701ZM12.8484 20.2451C12.8231 19.2437 12.8386 18.1807 12.8344 17.2076C12.8813 17.2116 12.9283 17.214 12.9753 17.214C13.881 17.214 14.5997 16.4778 14.5982 15.5899L14.5946 12.5584C14.5895 11.3216 15.6989 10.2114 17.5626 10.8104C19.329 11.378 21.4484 11.3762 23.209 10.8104C24.9846 10.24 26.1824 11.2443 26.1769 12.561L26.174 15.5901C26.1728 16.5342 26.9798 17.2906 27.9373 17.2076V20.3067C27.9152 20.9651 27.8068 21.6075 27.623 22.2185C27.2446 21.831 26.7174 21.5894 26.1344 21.5894H24.2228C23.0746 21.5894 22.1404 22.5234 22.1404 23.6716C22.1404 24.8198 23.0746 25.7538 24.2228 25.7538H25.1905C23.7836 26.852 22.1837 27.4246 20.4257 27.4538C16.5802 27.423 12.9584 24.582 12.8484 20.2451ZM16.9076 29.6093V28.2765C18.0087 28.7325 19.1832 28.9687 20.4237 28.9774H20.4291C20.4331 28.9774 20.437 28.9774 20.441 28.9773C21.6487 28.9585 22.792 28.7245 23.8643 28.2827V29.6092C23.8643 30.0251 23.9514 30.4277 24.1116 30.7961H16.6594C16.8202 30.4276 16.9076 30.0249 16.9076 29.6093ZM3.61583 39.2483L3.73608 41.4645C3.75893 41.8847 4.11877 42.2078 4.53791 42.1839C4.95798 42.1611 5.28003 41.8021 5.25728 41.3821L4.8556 33.9815C4.80675 33.0813 5.52114 32.3196 6.42982 32.3196H34.3419C35.2439 32.3196 35.9653 33.0745 35.9162 33.9815L35.2003 47.1693H23.2558C23.4013 46.2992 23.7931 45.4808 24.3967 44.8103L24.4186 44.7859C26.7242 42.2064 26.0341 38.1728 23.0539 36.4793C22.2891 36.0449 21.3179 36.5867 21.3179 37.4874V40.9436C21.3179 41.1021 21.189 41.2308 21.0305 41.2308H19.7411C19.5827 41.2308 19.4538 41.102 19.4538 40.9436V37.4874C19.4538 36.5884 18.4841 36.0439 17.7178 36.4793C14.729 38.1775 14.0529 42.2126 16.3554 44.7885L16.3749 44.8103C16.9785 45.4807 17.3703 46.2991 17.5159 47.1692H5.57141L5.44923 44.9172C5.42648 44.4972 5.06746 44.1747 4.6474 44.1979C4.22734 44.2206 3.90528 44.5797 3.92803 44.9997L4.04574 47.1692H2.39962C2.30943 47.1692 2.22056 47.1747 2.13291 47.1843V45.104C2.13291 43.0564 2.6518 41.039 3.61583 39.2483ZM19.0551 47.1692C18.8992 45.9211 18.3641 44.7429 17.5073 43.7911L17.489 43.7705C16.0172 42.1242 16.2144 39.5783 17.9305 38.1742V40.9435C17.9305 41.942 18.7428 42.7542 19.7412 42.7542H21.0306C22.0291 42.7542 22.8414 41.9419 22.8414 40.9435V38.1742C24.5461 39.569 24.7645 42.113 23.281 43.7726L23.2645 43.791C22.4076 44.7429 21.8726 45.9211 21.7167 47.1692H19.0551ZM38.372 50.445H2.39962C1.91648 50.445 1.52344 50.0519 1.52344 49.5689C1.52344 49.0859 1.91648 48.6927 2.39962 48.6927H38.372C38.8552 48.6927 39.2482 49.0858 39.2482 49.5689C39.2482 50.052 38.8552 50.445 38.372 50.445Z" fill="black"/>
<path d="M51.2383 5.24464C51.659 5.24464 52.0001 4.90359 52.0001 4.48292V3.00864C52.0001 1.36718 50.6646 0.0317383 49.0231 0.0317383H36.2119C34.5703 0.0317383 33.2349 1.36718 33.2349 3.00864V9.41601C33.2349 11.0576 34.5703 12.393 36.2119 12.393C36.5052 12.393 36.7438 12.6317 36.7438 12.925V16.8875C36.7438 17.4598 37.1144 17.9468 37.6659 18.0995C38.2208 18.2531 38.7875 18.0221 39.0801 17.5342L42.0081 12.6514C42.1037 12.492 42.2786 12.393 42.4645 12.393H49.0232C50.6647 12.393 52.0002 11.0576 52.0002 9.41601V8.0441C52.0002 7.62343 51.6591 7.28238 51.2384 7.28238C50.8178 7.28238 50.4767 7.62343 50.4767 8.0441V9.41601C50.4767 10.2175 49.8247 10.8696 49.0232 10.8696H42.4644C41.7463 10.8696 41.0708 11.2522 40.7015 11.8679L38.2672 15.9274V12.925C38.2672 11.7917 37.3451 10.8696 36.2118 10.8696C35.4102 10.8696 34.7582 10.2175 34.7582 9.41601V3.00864C34.7582 2.20721 35.4102 1.55518 36.2118 1.55518H49.0231C49.8246 1.55518 50.4766 2.20721 50.4766 3.00864V4.48292C50.4766 4.90359 50.8177 5.24464 51.2383 5.24464Z" fill="black"/>
</g>
<defs>
<clipPath id="clip0_96_18342">
<rect width="52" height="52" fill="black"/>
</clipPath>
</defs>
</svg>
