<svg width="78" height="43" viewBox="0 0 78 43" fill="none" xmlns="http://www.w3.org/2000/svg">
<path d="M1.25369 19.8797C1.71357 14.2856 4.8686 9.53962 9.3058 6.19762C13.6889 2.84743 20.2829 -0.112845 25.8978 1.56257C26.9559 1.88781 28.0273 2.49003 28.9579 3.29087C28.6006 3.45669 28.2352 3.67627 27.932 3.8503C23.1269 6.69666 19.0096 14.8711 24.9239 18.9564C27.1721 20.5617 30.1575 19.8592 31.9446 17.9304C34.1378 15.5132 34.2126 11.7303 33.383 8.80021C32.8102 6.73384 31.6636 4.80051 30.1108 3.35553C40.2482 -1.43248 54.2954 1.96021 59.8336 11.8173C60.7043 13.3789 61.3638 15.2384 61.7364 17.1645C58.8598 16.7837 55.9232 17.1637 53.2893 18.4693C50.9587 19.601 48.3109 21.7294 48.058 24.4955C47.7916 26.9846 49.593 29.347 51.8389 30.2371C54.6557 31.3787 57.9472 30.1177 59.875 27.9902C62.2009 25.4282 62.8711 21.7355 62.5478 18.3872C62.5181 18.2177 62.4884 18.0483 62.5128 17.887C66.0146 18.5274 69.3453 20.2967 71.7717 22.9188C76.3784 27.9608 77.7175 35.2022 76.816 41.8842C76.7671 42.2067 77.3543 42.3507 77.4113 41.9744C78.3157 34.9079 76.8334 27.1499 71.5936 21.902C69.1427 19.4412 65.8498 17.7876 62.3941 17.2091C60.0784 2.89125 41.9079 -2.88571 29.6266 2.89726C28.796 2.16657 27.8328 1.58075 26.7288 1.19355C22.7457 -0.289646 18.2013 0.836555 14.4658 2.47022C7.40623 5.57993 1.31414 11.8056 0.720603 19.744C0.609477 20.1121 1.19669 20.256 1.25369 19.8797ZM57.6148 29.0225C54.4583 30.8539 49.9364 30.0039 48.796 26.2019C47.6935 22.5156 51.6244 19.5919 54.675 18.4593C56.965 17.5964 59.4278 17.4197 61.8174 17.7267C62.5434 22.0708 61.5644 26.7065 57.6148 29.0225ZM30.5019 18.3167C26.6036 21.0255 22.7541 17.198 22.6369 13.2211C22.5085 9.68234 24.6912 6.6037 27.5852 4.67758C28.1456 4.26758 28.7438 3.97328 29.4043 3.63343C33.4784 7.43993 35.5048 14.8954 30.5019 18.3167Z" fill="white" fill-opacity="0.2"/>
</svg>
