<svg width="1117" height="348" viewBox="0 0 1117 348" fill="none" xmlns="http://www.w3.org/2000/svg">
<g clip-path="url(#clip0_96_18283)">
<path d="M234.069 244.863C236.97 234.464 244.654 226.647 254.249 221.947C263.745 217.212 277.275 214.017 287.271 219.222C289.151 220.22 290.956 221.747 292.423 223.598C291.688 223.781 290.917 224.063 290.282 224.282C280.172 227.912 269.425 241.855 279.111 251.72C282.774 255.569 288.668 255.327 292.744 252.333C297.765 248.565 299.281 241.447 298.779 235.612C298.448 231.501 296.984 227.432 294.577 224.139C315.463 218.779 340.762 230.292 347.64 250.922C348.717 254.188 349.287 257.939 349.291 261.713C343.996 259.948 338.312 259.599 332.863 261.108C328.049 262.398 322.275 265.456 320.792 270.588C319.385 275.193 321.929 280.309 325.847 282.807C330.752 285.986 337.427 284.801 341.842 281.483C347.166 277.489 349.773 270.758 350.379 264.317C350.385 263.986 350.39 263.655 350.495 263.359C356.876 265.841 362.524 270.393 366.154 276.228C373.023 287.424 372.921 301.588 368.79 313.881C368.58 314.473 369.637 314.958 369.881 314.268C374.157 301.25 374.177 286.058 366.187 274.242C362.452 268.704 356.834 264.384 350.517 262.036C351.346 234.152 319.126 216.638 293.829 223.097C292.525 221.416 290.919 219.959 288.975 218.827C281.991 214.578 272.998 215.054 265.349 216.782C250.885 220.09 237.117 229.635 233.111 244.413C232.768 245.067 233.824 245.553 234.069 244.863ZM337.197 282.612C330.57 284.924 322.338 281.675 321.566 274.08C320.823 266.717 329.31 262.623 335.483 261.592C340.122 260.795 344.838 261.356 349.24 262.804C349.032 271.272 345.499 279.672 337.197 282.612ZM289.879 252.539C281.532 256.238 275.652 247.61 276.875 240.056C277.919 233.326 283.16 228.305 289.326 225.718C290.533 225.148 291.77 224.809 293.141 224.407C299.453 233.077 300.571 247.895 289.879 252.539Z" fill="white" fill-opacity="0.2"/>
</g>
<g clip-path="url(#clip1_96_18283)">
<path d="M1096.44 39.2466C1086.95 30.0529 1074.01 26.5378 1060.97 27.4958C1048.02 28.3554 1031.76 33.3316 1024.41 44.9998C1023.04 47.2153 1022.08 49.9421 1021.67 52.8025C1022.56 52.5424 1023.55 52.3649 1024.35 52.2032C1037.27 49.7975 1057.23 57.8928 1053.09 74.2922C1051.6 80.619 1045.22 84.0014 1039.07 83.355C1031.44 82.4733 1025.44 75.8903 1022.37 69.4161C1020.18 64.8692 1019.22 59.6687 1019.73 54.7035C994.357 61.9343 974.739 89.7105 980.207 115.748C981.085 119.863 982.798 124.178 985.123 128.166C989.627 123.034 995.416 119.156 1002.1 117.387C1007.98 115.779 1015.97 115.445 1020.71 119.951C1025.04 123.946 1025.51 130.921 1022.91 135.978C1019.69 142.364 1011.91 145.232 1005.2 144.452C997.107 143.52 990.198 138.019 985.581 131.589C985.371 131.242 985.161 130.896 984.868 130.649C979.66 137.209 976.503 145.504 976.27 153.907C975.925 169.975 984.776 184.873 996.727 195.309C997.313 195.804 996.497 196.969 995.812 196.391C983.26 185.279 973.863 169.244 975.01 151.831C975.536 143.675 978.805 135.644 984.028 129.264C965.941 100.321 989.166 61.9327 1019.88 53.1416C1020.21 50.5606 1021.01 48.0306 1022.37 45.6341C1027.12 36.8352 1036.91 31.7871 1046.06 28.8913C1063.38 23.4582 1083.82 25.0422 1097.17 38.1802C1097.94 38.6598 1097.12 39.8247 1096.44 39.2466ZM1010.8 142.778C1019.23 141.129 1025.92 132.617 1022.04 124.117C1018.28 115.88 1006.79 116.794 999.635 119.516C994.242 121.537 989.607 125.04 985.851 129.287C991.297 138.105 1000.21 144.797 1010.8 142.778ZM1042.22 81.8036C1053.32 80.5592 1054.21 67.8161 1048.25 60.5918C1043 54.1264 1034.36 52.057 1026.25 53.1308C1024.62 53.2732 1023.11 53.6791 1021.41 54.1008C1020.09 67.155 1028.06 83.4978 1042.22 81.8036Z" fill="white" fill-opacity="0.2"/>
</g>
<g clip-path="url(#clip2_96_18283)">
<path d="M20.2494 43.2466C29.7328 34.0529 42.6745 30.5378 55.711 31.4958C68.6645 32.3554 84.9288 37.3316 92.2757 48.9998C93.6453 51.2153 94.6094 53.9421 95.0164 56.8025C94.1267 56.5424 93.1392 56.3649 92.3326 56.2032C79.4128 53.7975 59.454 61.8928 63.5964 78.2922C65.0901 84.619 71.4654 88.0014 77.6191 87.355C85.2488 86.4733 91.2433 79.8903 94.315 73.4161C96.5028 68.8692 97.4683 63.6687 96.9577 58.7035C122.329 65.9343 141.947 93.7105 136.479 119.748C135.601 123.863 133.888 128.178 131.563 132.166C127.059 127.034 121.27 123.156 114.582 121.387C108.701 119.779 100.714 119.445 95.9797 123.951C91.6508 127.946 91.1797 134.921 93.7774 139.978C96.9965 146.364 104.779 149.232 111.49 148.452C119.579 147.52 126.488 142.019 131.105 135.589C131.315 135.242 131.525 134.896 131.818 134.649C137.026 141.209 140.183 149.504 140.416 157.907C140.761 173.975 131.91 188.873 119.959 199.309C119.373 199.804 120.19 200.969 120.874 200.391C133.426 189.279 142.823 173.244 141.676 155.831C141.15 147.675 137.881 139.644 132.658 133.264C150.745 104.321 127.52 65.9327 96.8104 57.1416C96.472 54.5606 95.6742 52.0306 94.3191 49.6341C89.5642 40.8352 79.7714 35.7871 70.6248 32.8913C53.3044 27.4582 32.8686 29.0422 19.5157 42.1802C18.7485 42.6598 19.5653 43.8247 20.2494 43.2466ZM105.888 146.778C97.4603 145.129 90.7699 136.617 94.6422 128.117C98.4023 119.88 109.894 120.794 117.051 123.516C122.444 125.537 127.079 129.04 130.835 133.287C125.389 142.105 116.471 148.797 105.888 146.778ZM74.4657 85.8036C63.3646 84.5592 62.4791 71.8161 68.4343 64.5918C73.6909 58.1264 82.327 56.057 90.4365 57.1308C92.0643 57.2732 93.5797 57.6791 95.276 58.1008C96.5918 71.155 88.6268 87.4978 74.4657 85.8036Z" fill="white" fill-opacity="0.2"/>
</g>
<g clip-path="url(#clip3_96_18283)">
<path d="M881.611 255.863C878.71 245.464 871.026 237.647 861.431 232.947C851.935 228.212 838.405 225.017 828.409 230.222C826.529 231.22 824.724 232.747 823.258 234.598C823.993 234.781 824.763 235.063 825.399 235.282C835.508 238.912 846.255 252.855 836.569 262.72C832.906 266.569 827.012 266.327 822.936 263.333C817.915 259.565 816.4 252.447 816.902 246.612C817.233 242.501 818.696 238.432 821.104 235.139C800.217 229.779 774.918 241.292 768.04 261.922C766.963 265.188 766.393 268.939 766.389 272.713C771.684 270.948 777.368 270.599 782.818 272.108C787.631 273.398 793.405 276.456 794.888 281.588C796.296 286.193 793.752 291.309 789.833 293.807C784.928 296.986 778.253 295.801 773.839 292.483C768.515 288.489 765.907 281.758 765.301 275.317C765.295 274.986 765.29 274.655 765.185 274.359C758.804 276.841 753.156 281.393 749.526 287.228C742.657 298.424 742.76 312.588 746.89 324.881C747.1 325.473 746.043 325.958 745.799 325.268C741.523 312.25 741.503 297.058 749.493 285.242C753.228 279.704 758.846 275.384 765.163 273.036C764.334 245.152 796.554 227.638 821.852 234.097C823.155 232.416 824.761 230.959 826.706 229.827C833.69 225.578 842.682 226.054 850.331 227.782C864.795 231.09 878.563 240.635 882.569 255.413C882.913 256.067 881.856 256.553 881.611 255.863ZM778.483 293.612C785.11 295.924 793.342 292.675 794.114 285.08C794.857 277.717 786.37 273.623 780.197 272.592C775.558 271.795 770.842 272.356 766.44 273.804C766.648 282.272 770.181 290.672 778.483 293.612ZM825.801 263.539C834.149 267.238 840.028 258.61 838.805 251.056C837.761 244.326 832.52 239.305 826.354 236.718C825.147 236.148 823.91 235.809 822.539 235.407C816.227 244.077 815.109 258.895 825.801 263.539Z" fill="white" fill-opacity="0.2"/>
</g>
<g clip-path="url(#clip4_96_18283)">
<path d="M613.064 312.269C613.61 320.252 610.176 327.616 604.635 333.274C599.173 338.932 590.51 344.512 582.238 343.35C580.677 343.117 579.039 342.497 577.556 341.567C578.024 341.257 578.492 340.869 578.883 340.559C585.048 335.521 589.106 323.12 579.897 318.625C576.385 316.842 572.327 318.47 570.22 321.57C567.645 325.445 568.347 330.793 570.142 334.746C571.391 337.537 573.42 340.017 575.917 341.722C562.651 350.635 542.126 348.853 532.215 336.141C530.655 334.126 529.328 331.646 528.392 329.011C532.528 328.933 536.586 327.771 540.019 325.368C543.063 323.275 546.34 319.71 546.106 315.757C545.95 312.192 542.907 309.246 539.551 308.471C535.337 307.464 530.967 309.944 528.704 313.354C525.972 317.462 525.816 322.81 526.987 327.461C527.065 327.693 527.143 327.926 527.143 328.158C522.07 328.003 516.998 326.221 513.018 323.043C505.448 316.92 502.015 306.999 501.858 297.388C501.858 296.923 501 296.845 501 297.388C501.234 307.541 504.98 318.16 513.486 324.438C517.466 327.383 522.461 329.011 527.455 329.088C533.776 348.775 560.622 353.038 576.698 342.265C578.024 343.117 579.507 343.737 581.146 344.047C587.077 345.287 593.242 342.73 598.158 339.629C607.445 333.739 614.702 323.663 613.844 312.347C613.922 311.804 613.064 311.727 613.064 312.269ZM531.669 311.417C535.727 308.161 542.282 308.394 544.702 313.509C547.043 318.47 542.126 323.43 538.068 325.678C535.025 327.383 531.591 328.158 528.157 328.236C526.206 322.268 526.597 315.524 531.669 311.417ZM572.171 320.717C577.088 316.067 583.331 320.64 584.345 326.221C585.282 331.181 582.863 335.986 579.195 339.319C578.492 340.017 577.712 340.559 576.854 341.179C570.298 336.684 565.85 326.608 572.171 320.717Z" fill="white" fill-opacity="0.2"/>
</g>
<defs>
<clipPath id="clip0_96_18283">
<rect width="152.456" height="68.8074" fill="white" transform="translate(369.707 314.761) rotate(-160.496)"/>
</clipPath>
<clipPath id="clip1_96_18283">
<rect width="186.522" height="84.1826" fill="white" transform="matrix(0.645417 -0.763831 -0.763831 -0.645417 996.301 196.804)"/>
</clipPath>
<clipPath id="clip2_96_18283">
<rect width="186.522" height="84.1826" fill="white" transform="translate(120.385 200.804) rotate(-130.197)"/>
</clipPath>
<clipPath id="clip3_96_18283">
<rect width="152.456" height="68.8074" fill="white" transform="matrix(0.942616 -0.333878 -0.333878 -0.942616 745.973 325.761)"/>
</clipPath>
<clipPath id="clip4_96_18283">
<rect width="113" height="51" fill="white" transform="translate(501 297)"/>
</clipPath>
</defs>
</svg>
