<svg width="392" height="134" viewBox="0 0 392 134" fill="none" xmlns="http://www.w3.org/2000/svg">
<g clip-path="url(#clip0_319_142)">
<path d="M11.4375 39.8585C16.2809 30.7232 25.0701 24.982 35.0096 22.5491C44.8634 20.063 58.1764 19.8435 66.4636 26.7595C68.0182 28.0789 69.3943 29.8768 70.3877 31.9087C69.6624 31.9297 68.8842 32.0359 68.2445 32.1101C58.0425 33.4368 45.1331 44.2822 52.1759 55.495C54.8152 59.8461 60.3792 60.8262 64.8058 58.8598C70.2748 56.3618 73.1501 50.0126 73.875 44.45C74.4069 40.5359 73.8707 36.4301 72.2922 32.8558C92.9314 32.1172 114.244 48.0673 116.457 68.777C116.796 72.0532 116.561 75.6801 115.792 79.2112C111.199 76.4763 105.952 74.9857 100.545 75.282C95.7778 75.504 89.7492 77.1828 87.3111 81.6813C85.0516 85.7012 86.3842 91.0092 89.5391 94.1478C93.4778 98.127 99.9657 98.3841 104.775 96.1838C110.574 93.537 114.391 87.7731 116.277 81.8704C116.35 81.562 116.423 81.2536 116.581 80.9983C122.044 84.6269 126.396 90.0421 128.598 96.2438C132.732 108.126 129.737 121.357 123.356 132.013C123.039 132.523 123.928 133.193 124.298 132.598C130.964 121.293 134.092 107.084 129.035 94.3931C126.675 88.4467 122.302 83.2549 116.873 79.7646C123.357 53.8455 96.7967 30.8632 71.8056 31.7282C70.9306 29.8879 69.7259 28.1964 68.1384 26.7387C62.4738 21.3338 53.9629 19.938 46.4525 19.989C32.2429 20.1232 17.4068 26.2349 10.6338 39.2413C10.1782 39.7837 11.0676 40.454 11.4375 39.8585ZM100.199 96.2888C93.5251 97.0953 86.4882 92.3707 87.3205 85.1063C88.1328 78.0652 96.9114 75.9723 102.898 76.2718C107.401 76.4752 111.699 77.9656 115.521 80.2216C113.593 88.1026 108.567 95.2382 100.199 96.2888ZM62.083 58.4654C53.5158 60.218 49.7809 50.942 52.4721 44.1248C54.8263 38.0414 60.7581 34.4161 67.0564 33.2585C68.3029 32.9717 69.5294 32.9082 70.8944 32.8129C75.0248 42.2167 73.0376 56.3094 62.083 58.4654Z" fill="white" fill-opacity="0.2"/>
</g>
<g clip-path="url(#clip1_319_142)">
<path d="M380.367 39.8585C375.524 30.7232 366.735 24.982 356.795 22.5491C346.941 20.063 333.628 19.8435 325.341 26.7595C323.786 28.0789 322.41 29.8768 321.417 31.9087C322.142 31.9297 322.921 32.0359 323.56 32.1101C333.762 33.4368 346.672 44.2822 339.629 55.495C336.989 59.8461 331.425 60.8262 326.999 58.8598C321.53 56.3618 318.655 50.0126 317.93 44.45C317.398 40.5359 317.934 36.4301 319.512 32.8558C298.873 32.1172 277.56 48.0673 275.348 68.777C275.009 72.0532 275.244 75.6801 276.012 79.2112C280.605 76.4763 285.852 74.9857 291.259 75.282C296.027 75.504 302.055 77.1828 304.494 81.6813C306.753 85.7012 305.42 91.0092 302.266 94.1478C298.327 98.127 291.839 98.3841 287.03 96.1838C281.231 93.537 277.413 87.7731 275.528 81.8704C275.455 81.562 275.382 81.2536 275.223 80.9983C269.761 84.6269 265.409 90.0421 263.207 96.2438C259.072 108.126 262.068 121.357 268.449 132.013C268.766 132.523 267.877 133.193 267.507 132.598C260.841 121.293 257.713 107.084 262.769 94.3931C265.13 88.4467 269.502 83.2549 274.932 79.7646C268.448 53.8455 295.008 30.8632 319.999 31.7282C320.874 29.8879 322.079 28.1964 323.666 26.7387C329.331 21.3338 337.842 19.938 345.352 19.989C359.562 20.1232 374.398 26.2349 381.171 39.2413C381.626 39.7837 380.737 40.454 380.367 39.8585ZM291.606 96.2888C298.28 97.0953 305.316 92.3707 304.484 85.1063C303.672 78.0652 294.893 75.9723 288.907 76.2718C284.403 76.4752 280.106 77.9656 276.284 80.2216C278.211 88.1026 283.237 95.2382 291.606 96.2888ZM329.722 58.4654C338.289 60.218 342.024 50.942 339.333 44.1248C336.978 38.0414 331.047 34.4161 324.748 33.2585C323.502 32.9717 322.275 32.9082 320.91 32.8129C316.78 42.2167 318.767 56.3094 329.722 58.4654Z" fill="white" fill-opacity="0.2"/>
</g>
<defs>
<clipPath id="clip0_319_142">
<rect width="146.014" height="65.9003" fill="white" transform="translate(124.034 133.023) rotate(-148.154)"/>
</clipPath>
<clipPath id="clip1_319_142">
<rect width="146.014" height="65.9003" fill="white" transform="matrix(0.849468 -0.527641 -0.527641 -0.849468 267.771 133.023)"/>
</clipPath>
</defs>
</svg>
